<svg width="24" height="20" viewBox="0 0 24 20" fill="none" xmlns="http://www.w3.org/2000/svg">
<path d="M5.60014 7.40039C5.49854 7.40039 5.40854 7.46919 5.38214 7.56719L0.800138 19.0004V19.4004C0.800138 19.694 0.781338 19.8004 1.02614 19.8004H18.9298C19.3922 19.8004 19.7994 19.4888 19.9098 19.0752L24.0002 7.80039C24.0002 7.80039 24.0002 7.55039 24.0002 7.40039H5.60014Z" fill="white"/>
<path d="M5.0924 6.6002H21.2H21.6V4.093C21.6 3.4902 21.1096 3.0002 20.5072 3.0002H10.606L8.606 0.200195H1.0928C0.4904 0.200195 0 0.690595 0 1.293V18.0114L4.1128 7.3246C4.2228 6.9118 4.63 6.6002 5.0924 6.6002Z" fill="white"/>
</svg>
