<svg width="24" height="15" viewBox="0 0 24 15" fill="none" xmlns="http://www.w3.org/2000/svg">
<g clip-path="url(#clip0_979_1497)">
<path d="M11.3959 6.3681L5.36999 0.351179C5.14807 0.117027 4.87096 0 4.53811 0C4.20525 0 3.92814 0.117157 3.70622 0.351179L3.0038 1.04447C2.77577 1.27247 2.66175 1.54962 2.66175 1.87619C2.66175 2.19659 2.77573 2.47703 3.0038 2.71727L7.49561 7.20002L3.00361 11.692C2.77564 11.92 2.66162 12.1971 2.66162 12.5237C2.66162 12.8441 2.77561 13.1246 3.00361 13.3648L3.70609 14.058C3.9341 14.286 4.2115 14.4 4.53798 14.4C4.86458 14.4 5.14192 14.286 5.36986 14.058L11.3959 8.04106C11.624 7.80076 11.7381 7.52038 11.7381 7.19998C11.7381 6.87341 11.624 6.5961 11.3959 6.3681Z" fill="#EDEFF0"/>
</g>
<g clip-path="url(#clip1_979_1497)">
<path d="M20.996 6.3681L14.9701 0.351179C14.7482 0.117027 14.4711 0 14.1382 0C13.8053 0 13.5282 0.117157 13.3063 0.351179L12.6039 1.04447C12.3759 1.27247 12.2618 1.54962 12.2618 1.87619C12.2618 2.19659 12.3758 2.47703 12.6039 2.71727L17.0957 7.20002L12.6037 11.692C12.3757 11.92 12.2617 12.1971 12.2617 12.5237C12.2617 12.8441 12.3757 13.1246 12.6037 13.3648L13.3062 14.058C13.5342 14.286 13.8116 14.4 14.1381 14.4C14.4647 14.4 14.742 14.286 14.97 14.058L20.996 8.04106C21.2241 7.80076 21.3382 7.52038 21.3382 7.19998C21.3382 6.87341 21.2241 6.5961 20.996 6.3681Z" fill="#EDEFF0"/>
</g>
<defs>
<clipPath id="clip0_979_1497">
<rect width="14.4" height="14.4" fill="white"/>
</clipPath>
<clipPath id="clip1_979_1497">
<rect width="14.4" height="14.4" fill="white" transform="translate(9.6001)"/>
</clipPath>
</defs>
</svg>
