<svg width="64" height="64" viewBox="0 0 64 64" fill="none" xmlns="http://www.w3.org/2000/svg">
<circle cx="32" cy="32" r="32" fill="url(#paint0_linear_351_859)"/>
<g clip-path="url(#clip0_351_859)">
<path d="M51.6455 41.7402L34.2681 11.6368C33.2609 9.89254 30.7386 9.89254 29.7313 11.6368L12.354 41.7402C11.3467 43.4844 12.6078 45.671 14.6224 45.671H49.3771C51.3917 45.671 52.6528 43.4844 51.6455 41.7402ZM32.0243 20.907C33.138 20.907 34.0388 21.8323 34.0061 22.9461L33.6785 34.3781C33.654 35.2789 32.9169 35.9914 32.0161 35.9914C31.1153 35.9914 30.3783 35.2707 30.3537 34.3781L30.0343 22.9461C30.0098 21.8323 30.9024 20.907 32.0243 20.907ZM31.9997 41.5846C30.8615 41.5846 29.9361 40.6592 29.9361 39.5209C29.9361 38.3826 30.8615 37.4572 31.9997 37.4572C33.138 37.4572 34.0634 38.3826 34.0634 39.5209C34.0634 40.6592 33.138 41.5846 31.9997 41.5846Z" fill="white"/>
</g>
<defs>
<linearGradient id="paint0_linear_351_859" x1="1.86992e-09" y1="32" x2="64" y2="32" gradientUnits="userSpaceOnUse">
<stop stop-color="#2C608A"/>
<stop offset="1" stop-color="#2378C3"/>
</linearGradient>
<clipPath id="clip0_351_859">
<rect width="40" height="40" fill="white" transform="translate(12 8)"/>
</clipPath>
</defs>
</svg>
