<svg width="24" height="20" viewBox="0 0 24 20" fill="none" xmlns="http://www.w3.org/2000/svg">
<path d="M12.132 3.72948C16.176 3.76916 18.7093 3.51755 19.0515 7.99984H23.9829C23.9829 1.05607 17.927 0.120117 12.0036 0.120117C6.07985 0.120117 0.0244141 1.05607 0.0244141 7.99984H4.9175C5.29608 3.43212 8.12167 3.69027 12.132 3.72948Z" fill="#EDEFF0"/>
<path d="M2.46988 10.2321C3.67098 10.2321 4.67041 10.304 4.89262 9.1225C4.92249 8.96192 4.93976 8.77987 4.93976 8.56934H4.88281H0C0 10.3269 1.10587 10.2321 2.46988 10.2321Z" fill="#EDEFF0"/>
<path d="M19.0833 8.56934H19.0371C19.0371 8.78127 19.0553 8.96379 19.0894 9.1225C19.3237 10.212 20.3218 10.1443 21.5187 10.1443C22.8892 10.1443 24.0002 10.2344 24.0002 8.56934H19.0833Z" fill="#EDEFF0"/>
<path d="M16.6741 7.37253V6.67419C16.6741 6.36189 16.3142 6.34229 15.8698 6.34229H15.1439C14.7 6.34229 14.3401 6.36189 14.3401 6.67419V7.2759V7.74271H9.20517V7.2759V6.67419C9.20517 6.36189 8.84526 6.34229 8.40133 6.34229H7.67497C7.23104 6.34229 6.87113 6.36189 6.87113 6.67419V7.37253V7.98218C5.70131 9.19775 1.87348 14.3723 1.73438 14.9988L1.73624 19.179C1.73624 19.5651 2.0504 19.8792 2.43645 19.8792H21.1088C21.4948 19.8792 21.809 19.5651 21.809 19.179V14.9778C21.6713 14.3695 17.8444 9.19728 16.6741 7.98171V7.37253ZM8.95216 15.5613C8.57638 15.5613 8.27155 15.2569 8.27155 14.8807C8.27155 14.5044 8.57638 14.2001 8.95216 14.2001C9.32794 14.2001 9.63277 14.5044 9.63277 14.8807C9.63277 15.2569 9.32794 15.5613 8.95216 15.5613ZM8.95216 13.2272C8.57638 13.2272 8.27155 12.9229 8.27155 12.5466C8.27155 12.1704 8.57638 11.866 8.95216 11.866C9.32794 11.866 9.63277 12.1704 9.63277 12.5466C9.63277 12.9229 9.32794 13.2272 8.95216 13.2272ZM8.95216 10.8937C8.57638 10.8937 8.27155 10.5893 8.27155 10.2131C8.27155 9.83728 8.57638 9.53245 8.95216 9.53245C9.32794 9.53245 9.63277 9.83728 9.63277 10.2131C9.63277 10.5893 9.32794 10.8937 8.95216 10.8937ZM11.753 15.5613C11.3772 15.5613 11.0724 15.2569 11.0724 14.8807C11.0724 14.5044 11.3772 14.2001 11.753 14.2001C12.1293 14.2001 12.4336 14.5044 12.4336 14.8807C12.4336 15.2569 12.1293 15.5613 11.753 15.5613ZM11.753 13.2272C11.3772 13.2272 11.0724 12.9229 11.0724 12.5466C11.0724 12.1704 11.3772 11.866 11.753 11.866C12.1293 11.866 12.4336 12.1704 12.4336 12.5466C12.4336 12.9229 12.1293 13.2272 11.753 13.2272ZM11.753 10.8937C11.3772 10.8937 11.0724 10.5893 11.0724 10.2131C11.0724 9.83728 11.3772 9.53245 11.753 9.53245C12.1293 9.53245 12.4336 9.83728 12.4336 10.2131C12.4336 10.5893 12.1293 10.8937 11.753 10.8937ZM14.5539 15.5613C14.1776 15.5613 13.8733 15.2569 13.8733 14.8807C13.8733 14.5044 14.1776 14.2001 14.5539 14.2001C14.9301 14.2001 15.2345 14.5044 15.2345 14.8807C15.2345 15.2569 14.9301 15.5613 14.5539 15.5613ZM14.5539 13.2272C14.1776 13.2272 13.8733 12.9229 13.8733 12.5466C13.8733 12.1704 14.1776 11.866 14.5539 11.866C14.9301 11.866 15.2345 12.1704 15.2345 12.5466C15.2345 12.9229 14.9301 13.2272 14.5539 13.2272ZM14.5539 10.8937C14.1776 10.8937 13.8733 10.5893 13.8733 10.2131C13.8733 9.83728 14.1776 9.53245 14.5539 9.53245C14.9301 9.53245 15.2345 9.83728 15.2345 10.2131C15.2345 10.5893 14.9301 10.8937 14.5539 10.8937Z" fill="#EDEFF0"/>
</svg>
