<svg width="64" height="64" viewBox="0 0 64 64" fill="none" xmlns="http://www.w3.org/2000/svg">
<circle cx="32" cy="32" r="32" fill="url(#paint0_linear_351_831)"/>
<g clip-path="url(#clip0_351_831)">
<path d="M52 23.127V35.2354C52 35.2354 49.4085 35.7459 48.8746 35.8131C48.3424 35.8801 46.67 36.4201 45.458 35.2551C43.5888 33.4636 36.9477 26.8592 36.9477 26.8592C36.9477 26.8592 35.8027 25.7356 33.9641 26.7066C32.2763 27.5962 29.7745 28.8998 28.7295 29.4075C26.7541 30.4589 25.1168 28.7907 25.1168 27.52C25.1168 26.5343 25.7318 25.8653 26.6111 25.3734C28.9938 23.9289 34.016 21.1099 36.1078 19.9985C37.3793 19.3222 38.2954 19.2643 40.041 20.7348C42.1908 22.5429 44.1041 24.191 44.1041 24.191C44.1041 24.191 44.7281 24.7118 45.7233 24.502C48.1671 23.9854 52 23.127 52 23.127ZM25.5666 43.6435C25.8882 42.8172 25.7807 41.893 25.1641 41.259C24.6101 40.6919 23.8012 40.5424 23.0299 40.7192C23.2456 39.9541 23.1265 39.1399 22.5694 38.5653C22.0137 37.9996 21.2063 37.8471 20.4351 38.0255C20.6492 37.2616 20.5304 36.4474 19.973 35.8745C19.1002 34.9793 17.5906 35.0177 16.5989 35.963C15.6124 36.9096 14.9805 38.6247 15.8609 39.6341C16.7399 40.6385 17.7499 40.0274 18.5198 39.852C18.3056 40.6159 17.6638 41.3264 18.4542 42.3263C19.2438 43.3266 20.3431 42.7197 21.1138 42.5459C20.8989 43.3069 20.2851 44.0887 21.0451 45.0158C21.812 45.9457 23.068 45.4503 23.8976 45.1926C23.5774 46.0157 22.8922 46.903 23.7726 47.8973C24.6517 48.8988 26.6831 48.4354 27.6754 47.4887C28.665 46.5421 28.76 45.0418 27.8896 44.1438C27.2887 43.5277 26.3928 43.3843 25.5666 43.6435ZM43.6727 37.344C36.4995 30.1707 39.8734 33.5461 36.0131 29.6775C36.0131 29.6775 34.853 28.5225 33.3239 29.1934C32.2505 29.6638 30.8686 30.3049 29.8287 30.7943C28.6861 31.3934 27.8638 31.5789 27.4777 31.5763C25.2687 31.5619 23.4766 29.7864 23.4766 27.5796C23.4766 26.1481 24.2366 24.9017 25.3701 24.1942C26.9641 23.0912 30.633 21.1397 30.633 21.1397C30.633 21.1397 29.5153 19.7234 27.0668 19.7234C24.6191 19.7234 19.505 23.0737 19.505 23.0737C19.505 23.0737 18.0542 24.003 15.9861 23.1659L12 21.7779V35.6334C12 35.6334 13.1382 35.9628 14.1609 36.3805C14.3919 35.7218 14.7646 35.1135 15.2816 34.6111C16.9783 32.9951 19.7906 32.9783 21.3343 34.5678C21.7993 35.051 22.1238 35.6274 22.2895 36.2646C22.9115 36.4566 23.4749 36.7967 23.9276 37.2631C24.394 37.7431 24.7174 38.3227 24.8843 38.9567C25.5056 39.1489 26.0682 39.4902 26.5225 39.957C27.0341 40.4846 27.3749 41.1219 27.5341 41.8123C28.1835 42.0015 28.7704 42.3535 29.2431 42.8367C30.1709 43.7896 30.5001 45.0825 30.3006 46.3296C30.3022 46.3296 30.3053 46.3296 30.3068 46.3324C30.3219 46.3522 30.8816 46.9761 31.2305 47.328C31.9144 48.0125 33.0312 48.0125 33.7172 47.328C34.3987 46.6437 34.4017 45.5291 33.7172 44.8413C33.6927 44.8169 31.2498 42.2617 31.4464 42.0636C31.6416 41.8668 34.7539 45.1052 34.8118 45.1645C35.4948 45.8477 36.6108 45.8477 37.2969 45.1645C37.9814 44.4802 37.98 43.3656 37.2969 42.6794C37.2634 42.6475 37.1233 42.5133 37.0713 42.4598C37.0713 42.4598 33.9855 39.711 34.2204 39.4761C34.4582 39.2398 38.2911 42.8167 38.2973 42.8167C38.9863 43.4372 40.0476 43.4326 40.7104 42.7694C41.3553 42.1246 41.3692 41.1045 40.7974 40.4172C40.7853 40.3806 37.8763 37.3405 38.1034 37.1118C38.3337 36.8801 41.2121 39.844 41.2181 39.8501C41.8996 40.5331 43.0172 40.5331 43.7033 39.8501C44.3863 39.167 44.3863 38.0511 43.7033 37.3619C43.694 37.3561 43.6818 37.35 43.6727 37.344Z" fill="white"/>
</g>
<defs>
<linearGradient id="paint0_linear_351_831" x1="1.86992e-09" y1="32" x2="64" y2="32" gradientUnits="userSpaceOnUse">
<stop stop-color="#2C608A"/>
<stop offset="1" stop-color="#2378C3"/>
</linearGradient>
<clipPath id="clip0_351_831">
<rect width="40" height="40" fill="white" transform="translate(12 14)"/>
</clipPath>
</defs>
</svg>
