<svg width="24" height="22" viewBox="0 0 24 22" fill="none" xmlns="http://www.w3.org/2000/svg">
<path d="M3.2633 21.0953C3.2633 21.0953 3.24199 21.6318 3.76604 21.6318C4.418 21.6318 9.81578 21.6247 9.81578 21.6247L9.82467 16.6675C9.82467 16.6675 9.7394 15.8503 10.5326 15.8503H13.0427C13.9807 15.8503 13.923 16.6675 13.923 16.6675L13.9123 21.6087C13.9123 21.6087 19.0303 21.6087 19.8341 21.6087C20.4994 21.6087 20.4692 20.9408 20.4692 20.9408V11.8018L12.1234 4.37793L3.2633 11.8018C3.2633 11.8018 3.2633 21.0953 3.2633 21.0953Z" fill="white"/>
<path d="M0 11.1108C0 11.1108 0.752332 12.4974 2.39289 11.1108L12.1972 2.81653L21.3895 11.0593C23.2885 12.429 24 11.0593 24 11.0593L12.1972 0.367676L0 11.1108Z" fill="white"/>
<path d="M21.1667 2.79688H18.8022L18.812 5.66409L21.1667 7.66172V2.79688Z" fill="white"/>
</svg>
