<svg width="64" height="64" viewBox="0 0 64 64" fill="none" xmlns="http://www.w3.org/2000/svg">
<circle cx="32" cy="32" r="32" fill="url(#paint0_linear_1250_671)"/>
<g clip-path="url(#clip0_1250_671)">
<path d="M51.9773 19.2376C51.9773 19.2362 51.9766 19.2342 51.9766 19.2329C51.9613 19.1497 51.9327 19.0738 51.8887 19.0045C51.8881 19.0039 51.8881 19.0025 51.8881 19.0019C51.8874 19.0005 51.8861 18.9999 51.8854 18.9986C51.8435 18.9333 51.7929 18.8774 51.731 18.8301C51.7183 18.8201 51.705 18.8128 51.6917 18.8035C51.6418 18.7709 51.5905 18.7436 51.5326 18.7256C51.496 18.7129 51.4587 18.709 51.4207 18.703C51.3914 18.699 51.3655 18.6857 51.3348 18.6857H51.3322C51.3062 18.685 51.2882 18.6876 51.2696 18.6896C51.2636 18.6903 51.2583 18.6896 51.2523 18.6903C51.2463 18.691 51.2396 18.6903 51.233 18.6916C51.215 18.6943 51.197 18.697 51.1797 18.701L12.5312 26.6879C12.2562 26.7452 12.0459 26.9682 12.0066 27.2465C11.9673 27.5248 12.1064 27.7977 12.3548 27.9289L23.4275 33.7695L25.3694 44.5459C25.3681 44.5539 25.3701 44.5625 25.3694 44.5705C25.3628 44.6238 25.3621 44.6757 25.3688 44.7283C25.3721 44.7549 25.3754 44.7802 25.3821 44.8062C25.3974 44.8694 25.422 44.9287 25.4553 44.9846C25.462 44.9953 25.462 45.0079 25.4693 45.0186C25.4713 45.0219 25.4746 45.0246 25.4773 45.0272C25.4859 45.0399 25.4979 45.0499 25.5079 45.0625C25.5392 45.1011 25.5718 45.1364 25.6091 45.1664C25.6151 45.171 25.6191 45.1783 25.6257 45.183C25.6357 45.1903 25.647 45.1923 25.657 45.199C25.6976 45.2256 25.7396 45.2476 25.7842 45.2649C25.8022 45.2715 25.8188 45.2795 25.8374 45.2849C25.8974 45.3022 25.9593 45.3142 26.0219 45.3142C26.0225 45.3142 26.0232 45.3142 26.0239 45.3142C26.0265 45.3142 26.0292 45.3128 26.0318 45.3128C26.0432 45.3135 26.0545 45.3142 26.0658 45.3142C26.2502 45.3142 26.4166 45.2316 26.5398 45.1044L33.9156 40.1872L41.6383 45.207C41.7474 45.2775 41.8739 45.3142 42.0011 45.3142C42.071 45.3142 42.1422 45.3028 42.2108 45.2802C42.4025 45.2163 42.5557 45.0685 42.6256 44.8781L51.9034 19.6963C51.9653 19.5957 52.0006 19.4766 52.0006 19.3494C51.9999 19.3108 51.9839 19.2755 51.9773 19.2376ZM44.2646 23.7134L28.2914 35.4585C28.2654 35.4778 28.2448 35.5017 28.2222 35.5244C28.2135 35.5323 28.2048 35.539 28.1975 35.5477C28.1835 35.563 28.1709 35.5783 28.1582 35.5949C28.1463 35.6109 28.1369 35.6276 28.1263 35.6442C28.1017 35.6841 28.081 35.7254 28.065 35.7694C28.0617 35.778 28.0564 35.7847 28.0537 35.7933C28.0531 35.796 28.0504 35.7973 28.0497 35.8L26.2189 41.7498L24.7683 33.7002L44.2646 23.7134ZM27.2508 43.0306L29.0657 37.0363L31.8911 38.8731L32.6993 39.3983L29.9538 41.2285L27.2508 43.0306Z" fill="white"/>
</g>
<defs>
<linearGradient id="paint0_linear_1250_671" x1="1.86992e-09" y1="32" x2="64" y2="32" gradientUnits="userSpaceOnUse">
<stop stop-color="#2C608A"/>
<stop offset="1" stop-color="#2378C3"/>
</linearGradient>
<clipPath id="clip0_1250_671">
<rect width="40" height="40" fill="white" transform="translate(12 12)"/>
</clipPath>
</defs>
</svg>
