<svg width="24" height="24" viewBox="0 0 24 24" fill="none" xmlns="http://www.w3.org/2000/svg">
<path d="M22.1348 10.8741L17.6294 15.378C15.1428 17.866 11.1089 17.866 8.62192 15.378C8.23017 14.9873 7.92371 14.5472 7.65458 14.0932L9.74796 12C9.84747 11.8997 9.97035 11.8422 10.0878 11.7744C10.2325 12.2689 10.4851 12.737 10.874 13.1259C12.1158 14.3687 14.1365 14.367 15.3776 13.1259L19.8815 8.62212C21.1243 7.37945 21.1243 5.35922 19.8815 4.1175C18.6404 2.87578 16.6202 2.87578 15.3776 4.1175L13.776 5.72083C12.4763 5.21476 11.0761 5.0787 9.71293 5.27846L13.1258 1.86569C15.6139 -0.621898 19.6467 -0.621898 22.1348 1.86569C24.6216 4.35318 24.6216 8.38665 22.1348 10.8741ZM10.2246 18.28L8.62187 19.8833C7.38015 21.1244 5.35934 21.1244 4.11741 19.8833C2.87558 18.6405 2.87558 16.6203 4.11741 15.378L8.62187 10.8741C9.86459 9.63152 11.884 9.63152 13.1257 10.8741C13.5137 11.2622 13.7666 11.7301 13.9127 12.224C14.0308 12.1553 14.1522 12.0996 14.2516 12L16.3448 9.90758C16.0774 9.45187 15.7694 9.01329 15.3775 8.62222C12.8911 6.13463 8.85686 6.13463 6.36927 8.62222L1.8655 13.1262C-0.621832 15.6145 -0.621832 19.6468 1.8655 22.1349C4.35309 24.6217 8.3864 24.6217 10.8739 22.1349L14.2877 18.7214C12.9238 18.9223 11.5232 18.7851 10.2246 18.28Z" fill="white"/>
</svg>
