<svg width="1809" height="82" viewBox="0 0 1809 82" fill="none" xmlns="http://www.w3.org/2000/svg">
<g filter="url(#filter0_d_994_13224)">
<rect width="1797" height="70" transform="translate(6 3)" fill="url(#paint0_linear_994_13224)"/>
<g clip-path="url(#clip0_994_13224)">
<path d="M30.0143 9.57764C29.8145 8.83179 29.0506 8.39079 28.3072 8.59204C18.2822 11.2782 12.3098 21.6227 14.996 31.6477C15.0954 32.0187 15.3372 32.3167 15.6452 32.4945C15.9531 32.6723 16.3321 32.7327 16.7031 32.6333C17.449 32.4335 17.89 31.6696 17.6887 30.9262C15.4002 22.3853 20.4878 13.5733 29.0287 11.2847C29.7732 11.0873 30.2156 10.3211 30.0143 9.57764Z" fill="black" fill-opacity="0.12"/>
<path d="M20.2338 34.6717C20.3332 35.0427 20.575 35.3407 20.883 35.5185C21.1909 35.6963 21.5699 35.7567 21.9409 35.6573C31.9659 32.9711 37.9383 22.6266 35.2521 12.6016C35.0547 11.8572 34.2884 11.4148 33.545 11.616C32.8005 11.8135 32.3581 12.5797 32.5594 13.3231C34.8479 21.8641 29.7617 30.6736 21.2194 32.9646C20.4749 33.162 20.0325 33.9283 20.2338 34.6717Z" fill="black" fill-opacity="0.12"/>
</g>
<g clip-path="url(#clip1_994_13224)">
<path d="M68.4714 45.0866L82.1477 52.9826C82.9357 53.4376 83.9417 53.168 84.3967 52.38C84.8517 51.5919 84.5821 50.5859 83.7941 50.1309L70.1178 42.2349C65.3408 39.4769 59.4597 40.692 57.0041 44.9452L56.2425 46.2644L56.0283 46.6354C53.4117 51.1674 55.1561 57.6774 59.6906 60.2954L73.3669 68.1914C74.1549 68.6464 75.1609 68.3768 75.6159 67.5888C76.0709 66.8007 75.8013 65.7947 75.0133 65.3397L61.337 57.4437C58.7593 55.9555 57.5116 52.2703 58.3947 49.408L72.054 57.2942C72.842 57.7492 73.848 57.4796 74.303 56.6916C74.758 55.9035 74.4884 54.8975 73.7004 54.4425L59.9247 46.4891C61.6918 43.5908 65.7095 43.492 68.4714 45.0866Z" fill="black" fill-opacity="0.12"/>
</g>
<g clip-path="url(#clip2_994_13224)">
<path d="M117.988 10.101C113.265 7.37379 109.041 7.07888 107.711 9.38251C107.647 9.49405 107.597 9.614 107.547 9.73394C107.486 9.79549 107.431 9.86748 107.383 9.94993L97.8382 26.4827C97.687 26.7446 97.6481 27.0584 97.7294 27.3543C97.8224 27.686 98.8002 30.7077 104.482 33.9879L104.545 34.0243C110.226 37.3045 113.329 36.639 113.666 36.5551C113.961 36.48 114.214 36.2894 114.366 36.0251L123.91 19.4948C123.949 19.4269 123.983 19.3562 124.005 19.2847C124.076 19.1961 124.137 19.1019 124.193 19.0049C125.694 16.4155 122.113 12.4824 117.988 10.101ZM116.851 12.07C121.105 14.5256 122.566 17.2803 122.229 17.8647C121.907 18.4224 118.922 18.4515 114.606 15.9595C110.578 13.6341 109.274 11.2225 109.679 10.5217C110.083 9.82095 112.821 9.74319 116.851 12.07ZM112.688 34.3964C111.788 34.4265 109.452 34.2323 105.686 32.0581L105.623 32.0217C101.891 29.8671 100.53 27.9138 100.1 27.1228L100.173 26.9967C100.247 26.981 100.321 26.9654 100.402 26.9477C100.648 26.9022 100.81 26.6661 100.76 26.4172C100.74 26.3282 100.692 26.2551 100.635 26.1965L108.141 13.1967C109.115 14.7969 110.958 16.4757 113.475 17.9289C115.861 19.3065 118.589 20.3383 120.75 20.4378L113.356 33.2436C113.237 32.9805 113.1 32.7139 112.945 32.4499C112.817 32.234 112.541 32.1647 112.325 32.2923C112.109 32.4198 112.039 32.6966 112.167 32.9125C112.431 33.3624 112.64 33.8127 112.77 34.2596L112.688 34.3964Z" fill="black" fill-opacity="0.12"/>
<path d="M106.675 27.2715C106.17 27.0254 105.659 26.8078 105.165 26.6327C104.929 26.5483 104.671 26.6707 104.582 26.9037C104.507 27.1125 104.593 27.3435 104.782 27.4527C104.807 27.4667 104.826 27.4779 104.853 27.487C105.317 27.6579 105.799 27.8587 106.28 28.0907C106.506 28.2022 106.775 28.1054 106.887 27.8788C106.993 27.6494 106.895 27.3725 106.675 27.2715Z" fill="black" fill-opacity="0.12"/>
<path d="M103.578 26.1621C103.011 26.0353 102.451 25.9578 101.92 25.9359C101.668 25.9258 101.46 26.1166 101.445 26.3666C101.435 26.5416 101.531 26.7003 101.671 26.7815C101.73 26.8151 101.801 26.837 101.876 26.8415C102.354 26.8652 102.859 26.9369 103.376 27.0482C103.621 27.1056 103.862 26.9469 103.919 26.702C103.981 26.4598 103.825 26.2146 103.578 26.1621Z" fill="black" fill-opacity="0.12"/>
<path d="M111.957 31.0972C111.61 30.7025 111.215 30.3062 110.786 29.9292C110.597 29.7623 110.313 29.7854 110.146 29.9736C109.979 30.1617 110.002 30.4466 110.19 30.6135C110.591 30.9612 110.958 31.3282 111.277 31.6936C111.312 31.7333 111.353 31.7634 111.392 31.7858C111.557 31.881 111.766 31.8659 111.919 31.7346C112.103 31.5726 112.121 31.2851 111.957 31.0972Z" fill="black" fill-opacity="0.12"/>
<path d="M109.582 28.8335C109.156 28.5294 108.677 28.2335 108.171 27.9673C107.947 27.851 107.674 27.9324 107.558 28.1563C107.441 28.3801 107.523 28.6534 107.747 28.7697C108.216 29.0212 108.659 29.2899 109.051 29.5743C109.091 29.6044 109.138 29.6247 109.187 29.6402C109.37 29.6938 109.571 29.6357 109.687 29.4695C109.834 29.2639 109.789 28.9789 109.582 28.8335Z" fill="black" fill-opacity="0.12"/>
</g>
<g clip-path="url(#clip3_994_13224)">
<path d="M169.501 52.5859C169.846 52.387 170.128 52.1167 170.332 51.7626C172.133 48.6442 165.459 43.6825 161.233 41.2423C157.006 38.8021 149.373 35.5038 147.572 38.6222C147.322 39.0563 147.241 39.5269 147.289 40.0202L146.655 63.8544C146.641 64.3152 146.926 64.6673 147.326 64.8983C147.329 64.8997 147.331 64.9011 147.334 64.9025C147.729 65.1307 148.172 65.2087 148.565 64.9764L169.48 52.5997C169.488 52.5976 169.492 52.5903 169.501 52.5859ZM159.969 43.432C165.529 46.6422 167.881 49.562 168.091 50.4652C167.204 50.7356 163.497 50.1568 157.939 46.948C152.379 43.7378 150.026 40.818 149.814 39.9134C150.701 39.643 154.409 40.2218 159.969 43.432ZM149.201 61.7066L149.692 43.9617C151.674 45.9599 154.496 47.8829 156.673 49.1401C158.829 50.3847 161.867 51.8479 164.567 52.5757L149.201 61.7066Z" fill="black" fill-opacity="0.12"/>
</g>
<g clip-path="url(#clip4_994_13224)">
<path d="M184.61 30.4547C186.552 31.5761 188.584 30.4373 189.479 29.5866C189.494 29.5724 189.507 29.5607 189.522 29.5465C191.916 27.0295 195.719 23.0403 198.501 20.1489L201.483 21.8709C202.043 22.1943 202.761 22.0041 203.086 21.4415C203.409 20.8814 203.219 20.1637 202.657 19.8389L200.178 18.4081C201.058 17.5 201.691 16.8568 201.916 16.6408L202.168 16.4012C203.103 15.509 205.294 13.4176 206.433 14.0756C207.491 14.686 206.709 16.4041 206.67 16.4883C206.394 17.0726 206.637 17.7721 207.224 18.0494C207.809 18.3292 208.507 18.0826 208.787 17.4972C209.407 16.206 209.956 13.4001 207.607 12.0435C204.944 10.5063 201.975 13.3413 200.549 14.7033L200.307 14.9322C200.022 15.2011 199.188 16.0517 198.083 17.1985L194.531 15.1475C193.971 14.8241 193.253 15.0143 192.928 15.5769C192.605 16.137 192.795 16.8547 193.358 17.1795L196.408 18.9407C192.924 22.5677 188.354 27.3689 187.852 27.897C187.704 28.0249 186.634 28.914 185.783 28.4226C184.484 27.6722 184.973 25.5201 184.977 25.5066C185.133 24.8787 184.751 24.2411 184.119 24.0865C183.491 23.9309 182.855 24.3167 182.699 24.9446C182.347 26.3774 182.35 29.1499 184.61 30.4547Z" fill="black" fill-opacity="0.12"/>
<path d="M201.183 36.5314C201.782 36.8772 202.529 36.7427 202.919 36.0661C203.101 35.7509 203.139 35.3944 203.053 34.9276L202.342 31.2871L205.769 30.0778C206.094 29.9518 206.38 29.7808 206.572 29.4486C206.918 28.8497 206.685 28.1269 206.055 27.7629C205.63 27.5179 205.147 27.5943 204.663 27.7772L201.876 28.9359L201.518 25.9614C201.429 25.3866 201.227 24.9755 200.754 24.7025C200.155 24.3567 199.408 24.4913 199.016 25.1703C198.834 25.4855 198.796 25.842 198.882 26.3088L199.54 29.7115L195.913 31.0154C195.573 31.133 195.302 31.3124 195.11 31.6446C194.764 32.2436 194.998 32.9639 195.629 33.3279C196.053 33.5729 196.539 33.4979 197.021 33.3136L200.01 32.0617L200.42 35.2764C200.508 35.8474 200.71 36.2584 201.183 36.5314Z" fill="black" fill-opacity="0.12"/>
</g>
<g clip-path="url(#clip5_994_13224)">
<path d="M242.515 64.282L244.784 52.0744C245.052 52.0315 245.266 51.8386 245.362 51.6901L248.233 46.7167C248.298 46.6051 248.257 46.4685 248.15 46.4069L246.761 45.6047L248.241 43.0416C248.766 42.1322 248.21 41.6724 248.151 41.6287L246.81 40.8545C246.524 40.7344 245.876 40.6968 245.452 41.4316C245.133 41.9844 244.359 43.3254 243.972 43.9947L242.575 43.1883C242.464 43.1239 242.327 43.1646 242.266 43.2713L242.152 43.4677L239.393 48.2471C239.384 48.2617 239.373 48.2811 239.372 48.2998C239.371 48.3186 239.275 48.664 239.405 48.9817L229.99 57.0798C229.963 57.1096 229.316 57.8096 229.341 59.043L229.267 60.2867L228.564 61.0837C228.204 61.4999 228.18 61.57 228.194 61.6913C228.2 61.7594 228.246 61.8249 228.309 61.8613C228.484 61.9621 228.636 61.8269 228.878 61.6044L229.269 61.2515C229.294 61.2756 229.309 61.2941 229.346 61.3151C229.427 61.3526 229.526 61.3447 229.593 61.2898L241.12 51.8921L241.425 52.0685L241.459 52.0881L239.088 66.752C239.069 66.845 239.112 66.9341 239.189 66.9789C239.248 67.0226 239.338 67.0292 239.401 66.9979L239.284 67.6382C239.274 67.7065 239.287 67.7788 239.334 67.8256C239.345 67.8412 239.462 67.9737 239.629 68.0703C239.915 68.2355 240.203 68.2077 240.416 67.9846C240.444 67.9524 240.468 67.9112 240.473 67.8688L240.851 66.0375L241.123 65.8581C242.229 65.2646 242.497 64.3462 242.515 64.282Z" fill="black" fill-opacity="0.12"/>
</g>
<g clip-path="url(#clip6_994_13224)">
<path d="M269.515 25.647L278.96 31.1001C278.596 31.4006 278.203 31.6944 277.786 31.9867C277.106 32.4578 276.936 33.3909 277.406 34.0664C277.537 34.2549 277.7 34.4039 277.891 34.5145C278.376 34.7945 279.004 34.7883 279.493 34.4501C280.318 33.8786 281.057 33.2933 281.708 32.6863L287.998 36.3179C288.716 36.7323 289.629 36.4836 290.04 35.7707C290.452 35.0577 290.205 34.1422 289.492 33.7306L283.708 30.3916C284.752 28.8473 285.293 27.2163 285.306 25.5073C285.318 24.2272 285.023 23.0353 284.568 21.9581L299.455 18.2214C300.253 18.0034 300.719 17.1796 300.501 16.3812C300.283 15.5829 299.459 15.1169 298.661 15.335L283.014 19.2793C281.53 17.2973 279.848 16.0774 279.722 15.9882C279.047 15.5112 278.122 15.6626 277.638 16.3335C277.153 17.0044 277.308 17.9408 277.98 18.4227C277.997 18.4325 278.888 19.0894 279.851 20.1495L269.864 22.9094C269.284 23.069 268.855 23.5652 268.771 24.1635C268.702 24.7602 268.994 25.346 269.515 25.647ZM281.66 22.762C282.056 23.5986 282.321 24.524 282.31 25.4943C282.301 26.6466 281.893 27.7787 281.106 28.8793L274.11 24.8402L281.66 22.762Z" fill="black" fill-opacity="0.12"/>
</g>
<g clip-path="url(#clip7_994_13224)">
<path d="M333.729 65.0036C340.281 61.2208 342.534 52.8138 338.751 46.2618C334.968 39.7098 326.565 37.4644 320.013 41.2472C313.461 45.03 311.209 53.437 314.987 59.9818C318.766 66.5265 327.177 68.7864 333.729 65.0036ZM321.174 43.2574C326.225 40.3412 332.598 41.7475 335.993 46.3057C335.994 46.3244 336.603 47.2011 336.732 47.4241C336.741 47.4387 336.752 47.4581 336.76 47.4726C335.605 49.1351 332.721 52.8307 328.209 55.4361C323.689 58.0457 319.035 58.6926 317.036 58.8602C317.028 58.8457 317.021 58.8336 317.012 58.819C316.884 58.5959 316.428 57.6109 316.401 57.5975C314.153 52.3772 316.13 46.1694 321.174 43.2574ZM328.684 56.2644C333.048 53.7444 335.906 50.3163 337.263 48.4435C339.643 53.7098 337.683 60.0471 332.571 62.9983C327.457 65.9509 320.991 64.4786 317.621 59.7835C319.905 59.5449 324.312 58.7886 328.684 56.2644Z" fill="black" fill-opacity="0.12"/>
<path d="M332.884 47.3281C333.478 47.1983 334.088 47.089 334.687 46.9953C334.748 46.9892 334.801 46.9684 334.856 46.9362C335.024 46.8396 335.123 46.653 335.09 46.4556C335.054 46.198 334.806 46.0147 334.549 46.0502C333.933 46.1436 333.306 46.2565 332.685 46.3892C332.428 46.4434 332.267 46.6953 332.321 46.9517C332.376 47.2206 332.628 47.3824 332.884 47.3281Z" fill="black" fill-opacity="0.12"/>
<path d="M326.009 49.7959C326.539 49.5196 327.093 49.2542 327.657 49.0034C327.671 48.995 327.686 48.9866 327.705 48.9754C327.914 48.855 328 48.6014 327.907 48.3736C327.805 48.1352 327.516 48.0208 327.282 48.1302C326.7 48.3821 326.126 48.6587 325.575 48.9477C325.336 49.0661 325.252 49.3572 325.378 49.5918C325.496 49.8243 325.779 49.9126 326.009 49.7959Z" fill="black" fill-opacity="0.12"/>
<path d="M329.365 48.3283C329.938 48.1271 330.519 47.9405 331.108 47.7684C331.146 47.756 331.187 47.7423 331.221 47.7227C331.403 47.6177 331.497 47.395 331.436 47.1779C331.363 46.9226 331.101 46.7765 330.846 46.8495C330.238 47.0227 329.631 47.2147 329.044 47.4243C328.797 47.5119 328.665 47.782 328.75 48.0303C328.837 48.2873 329.115 48.4149 329.365 48.3283Z" fill="black" fill-opacity="0.12"/>
<path d="M322.88 51.7622C322.895 51.7538 322.909 51.7454 322.929 51.7342C323.416 51.3687 323.923 51.0209 324.427 50.7009C324.653 50.5606 324.719 50.2707 324.578 50.0445C324.438 49.8183 324.144 49.7457 323.922 49.8932C323.396 50.2258 322.87 50.5849 322.36 50.9629C322.154 51.1208 322.103 51.4187 322.259 51.6264C322.402 51.8348 322.672 51.8826 322.88 51.7622Z" fill="black" fill-opacity="0.12"/>
<path d="M320.044 54.1752C320.078 54.1556 320.11 54.1273 320.14 54.1004C320.58 53.6689 321.032 53.2591 321.497 52.8712C321.696 52.7012 321.718 52.3975 321.545 52.1996C321.375 52.0004 321.075 51.967 320.874 52.1509C320.399 52.5545 319.929 52.9841 319.475 53.4241C319.284 53.6086 319.279 53.9087 319.464 54.0996C319.615 54.2549 319.855 54.2844 320.044 54.1752Z" fill="black" fill-opacity="0.12"/>
<path d="M317.548 56.929C317.596 56.901 317.648 56.8615 317.684 56.8117C318.06 56.3325 318.461 55.8681 318.871 55.4182C319.046 55.2233 319.032 54.9243 318.839 54.7477C318.633 54.5694 318.334 54.5836 318.159 54.7785C317.731 55.2483 317.324 55.7356 316.933 56.2232C316.774 56.4285 316.803 56.7253 317.014 56.8945C317.168 57.0158 317.378 57.027 317.548 56.929Z" fill="black" fill-opacity="0.12"/>
</g>
<g clip-path="url(#clip8_994_13224)">
<path d="M357.606 21.1235C357.539 21.7893 357.879 22.4031 358.423 22.7167C358.619 22.8301 358.844 22.9051 359.082 22.9294L381.012 25.1088C381.676 25.1749 382.311 24.8367 382.629 24.2512C382.946 23.6643 382.878 22.9464 382.459 22.4295L368.921 5.71548C368.345 5.00477 367.307 4.89735 366.601 5.47211C365.891 6.04547 365.782 7.08515 366.357 7.79204L377.406 21.4325L359.411 19.6437C358.503 19.5528 357.697 20.2157 357.606 21.1235Z" fill="black" fill-opacity="0.12"/>
<path d="M379.209 29.8842C379.302 28.9778 378.641 28.1691 377.735 28.0758L355.378 25.8119C354.47 25.721 353.663 26.3801 353.57 27.2865C353.502 27.9523 353.842 28.5685 354.387 28.8835C354.584 28.9969 354.806 29.0705 355.044 29.0948L377.399 31.3612C378.307 31.452 379.118 30.792 379.209 29.8842Z" fill="black" fill-opacity="0.12"/>
</g>
<g clip-path="url(#clip9_994_13224)">
<path d="M461.479 40.3095C461.841 40.1305 462.088 39.7816 462.138 39.3806L465.486 12.3801C465.546 11.9007 465.311 11.4287 464.894 11.1879L454.904 5.41993L454.879 5.40593C454.841 5.38353 454.8 5.36981 454.76 5.34983C454.734 5.33826 454.71 5.32426 454.683 5.31511C454.613 5.29083 454.538 5.27001 454.46 5.25785C454.458 5.25645 454.456 5.25505 454.452 5.25608C454.434 5.25253 454.417 5.25523 454.402 5.25308C454.345 5.24588 454.288 5.2425 454.232 5.24537C454.201 5.24732 454.17 5.2517 454.142 5.25505C454.098 5.25867 454.055 5.26612 454.01 5.27599C453.98 5.28419 453.949 5.29239 453.917 5.30301C453.877 5.31569 453.836 5.33079 453.798 5.34729C453.768 5.35931 453.741 5.37273 453.713 5.38858C453.675 5.40891 453.64 5.43063 453.603 5.45478C453.577 5.47203 453.55 5.4917 453.526 5.51035C453.494 5.5373 453.462 5.56424 453.433 5.59259C453.409 5.61749 453.385 5.64239 453.359 5.66971C453.35 5.68044 453.34 5.68734 453.331 5.70189L441.214 20.9601C440.88 21.3816 440.865 21.974 441.179 22.4106L449.323 33.7893C449.343 33.8169 449.369 33.8385 449.393 33.865C449.411 33.8887 449.432 33.9138 449.454 33.9327C449.525 34.0059 449.604 34.0709 449.693 34.1227C449.696 34.1241 449.698 34.1255 449.701 34.1269C449.701 34.1269 449.703 34.1283 449.706 34.1297L460.343 40.2715C460.69 40.4779 461.118 40.4923 461.479 40.3095ZM443.663 21.7468L452.418 10.7226L449.548 29.968L443.663 21.7468ZM451.612 32.4565L455.204 8.37715L462.995 12.8753L459.968 37.2809L451.612 32.4565Z" fill="black" fill-opacity="0.12"/>
</g>
<g clip-path="url(#clip10_994_13224)">
<path d="M525.459 27.2426L527.918 28.6622C528.597 29.0542 529.465 28.8216 529.857 28.1426C530.249 27.4636 530.016 26.5954 529.337 26.2034L528.108 25.4936L538.28 7.87451L539.51 8.58431C540.189 8.97631 541.057 8.74366 541.449 8.0647C541.841 7.38574 541.608 6.51749 540.929 6.12549L538.47 4.70589C537.792 4.31389 536.923 4.54654 536.531 5.2255L524.939 25.3034C524.547 25.9824 524.78 26.8506 525.459 27.2426Z" fill="black" fill-opacity="0.12"/>
<path d="M548.703 39.0235L560.295 18.9456C560.687 18.2666 560.454 17.3984 559.775 17.0064L557.317 15.5868C556.638 15.1948 555.769 15.4274 555.377 16.1064C554.985 16.7853 555.218 17.6536 555.897 18.0456L557.126 18.7554L546.954 36.3744L545.725 35.6646C545.046 35.2726 544.177 35.5053 543.785 36.1843C543.393 36.8632 543.626 37.7315 544.305 38.1235L546.764 39.5431C547.443 39.9351 548.311 39.7024 548.703 39.0235Z" fill="black" fill-opacity="0.12"/>
<path d="M531.552 25.0894C531.653 25.4681 531.898 25.7713 532.211 25.9519C532.526 26.1339 532.909 26.1933 533.288 26.0918L541.64 23.8559L543.877 32.2056C543.979 32.5843 544.224 32.8875 544.537 33.0681C544.852 33.2501 545.235 33.3095 545.614 33.208C546.371 33.0051 546.82 32.2267 546.617 31.4694L544.38 23.1197L552.298 20.9982C553.055 20.7953 553.504 20.0169 553.301 19.2596C553.098 18.5023 552.32 18.0529 551.563 18.2558L543.645 20.3773L541.524 12.4598C541.321 11.7025 540.542 11.2531 539.785 11.456C539.028 11.6589 538.578 12.4373 538.781 13.1946L540.903 21.1121L532.556 23.3508C531.798 23.5537 531.349 24.3321 531.552 25.0894Z" fill="black" fill-opacity="0.12"/>
</g>
<g clip-path="url(#clip11_994_13224)">
<path d="M590.122 46.6923L589.888 46.9191C588.727 48.0111 578.467 58.7932 577.64 59.6668C577.496 59.7873 576.563 60.5455 575.879 60.1507C574.747 59.4969 575.194 57.5467 575.198 57.5394C575.383 56.7991 574.929 56.0518 574.188 55.8669C573.448 55.6819 572.701 56.1363 572.516 56.8767C572.153 58.3452 572.164 61.1997 574.504 62.5507C576.531 63.7211 578.642 62.5445 579.562 61.6626C579.582 61.645 579.6 61.6298 579.609 61.6152C583.425 57.6042 590.882 49.7888 591.78 48.9394L592.03 48.7023C592.76 48.0047 594.979 45.8849 595.952 46.4463C596.805 46.9391 596.108 48.4829 596.087 48.5193C595.763 49.2086 596.045 50.0247 596.739 50.3573C597.424 50.6882 598.254 50.3943 598.585 49.7092C599.224 48.3714 599.785 45.4621 597.334 44.0467C594.567 42.4493 591.568 45.3189 590.122 46.6923Z" fill="black" fill-opacity="0.12"/>
</g>
<g clip-path="url(#clip12_994_13224)">
<path d="M406.532 44.4524C408.215 45.424 410.376 44.845 411.348 43.1621C412.319 41.4792 411.74 39.3182 410.057 38.3466C408.374 37.375 406.213 37.954 405.242 39.6369C404.269 41.3222 404.849 43.4808 406.532 44.4524Z" fill="black" fill-opacity="0.12"/>
<path d="M412.656 56.8398C410.973 55.8682 408.812 56.4472 407.841 58.1301C406.869 59.8129 407.448 61.974 409.131 62.9456C410.814 63.9172 412.975 63.3381 413.946 61.6553C414.918 59.9724 414.339 57.8114 412.656 56.8398Z" fill="black" fill-opacity="0.12"/>
<path d="M395.104 58.1261C395.231 58.3771 395.421 58.5741 395.646 58.7043C396.034 58.9283 396.524 58.959 396.955 58.7452L423.081 45.6815C423.763 45.3411 424.038 44.5108 423.698 43.8293C423.358 43.1478 422.527 42.8722 421.846 43.2126L395.723 56.2753C395.042 56.6157 394.763 57.4446 395.104 58.1261Z" fill="black" fill-opacity="0.12"/>
<path d="M415.406 62.4982C414.435 64.1811 415.014 66.3421 416.696 67.3137C418.382 68.2867 420.54 67.7063 421.512 66.0234C422.484 64.3406 421.905 62.1795 420.222 61.2079C418.539 60.2363 416.378 60.8154 415.406 62.4982Z" fill="black" fill-opacity="0.12"/>
</g>
<g clip-path="url(#clip13_994_13224)">
<path d="M505.389 45.2878L506.665 43.0788C507.044 42.4216 506.82 41.584 506.162 41.2046C505.505 40.8252 504.668 41.0496 504.288 41.7068L503 43.9376C498.75 42.334 493.729 44.1426 491.269 48.4031C488.809 52.6636 489.753 57.9162 493.267 60.7953L491.94 63.0941C491.561 63.7513 491.785 64.5889 492.442 64.9683C493.1 65.3477 493.937 65.1233 494.317 64.4661L495.633 62.1867C499.911 63.8874 505.02 62.0841 507.506 57.7775C509.994 53.4685 509 48.1452 505.389 45.2878ZM493.645 49.7751C495.341 46.8386 498.683 45.49 501.604 46.3552L494.662 58.3802C492.453 56.2806 491.95 52.7116 493.645 49.7751ZM497.02 59.7837L504 47.6933C506.307 49.7749 506.857 53.4195 505.132 56.4069C503.405 59.3929 499.976 60.7401 497.02 59.7837Z" fill="black" fill-opacity="0.12"/>
</g>
<g clip-path="url(#clip14_994_13224)">
<path d="M634.751 18.6066C635.053 18.0834 634.874 17.4145 634.351 17.1125L623.351 10.7617C622.828 10.4597 622.159 10.6389 621.857 11.1621L619.645 14.9936C619.343 15.5167 619.522 16.1857 620.045 16.4877L631.045 22.8384C631.568 23.1405 632.237 22.9612 632.539 22.4381L634.751 18.6066ZM631.192 20.3971L622.086 15.1401L623.205 13.203L632.31 18.46L631.192 20.3971Z" fill="black" fill-opacity="0.12"/>
<path d="M619.96 18.5919L619.204 18.1555C618.681 17.8535 618.012 18.0327 617.71 18.5559C617.408 19.079 617.587 19.7479 618.111 20.0499L618.866 20.4863C619.39 20.7883 620.058 20.6091 620.36 20.086C620.663 19.5628 620.483 18.8939 619.96 18.5919Z" fill="black" fill-opacity="0.12"/>
<path d="M617.899 22.1614L617.143 21.7251C616.62 21.4231 615.951 21.6023 615.649 22.1254C615.347 22.6486 615.527 23.3175 616.05 23.6195L616.805 24.0559C617.329 24.3579 617.998 24.1787 618.3 23.6555C618.602 23.1324 618.422 22.4635 617.899 22.1614Z" fill="black" fill-opacity="0.12"/>
<path d="M615.838 25.731L615.083 25.2947C614.559 24.9926 613.89 25.1719 613.588 25.695C613.286 26.2182 613.466 26.8871 613.989 27.1891L614.745 27.6255C615.268 27.9275 615.937 27.7483 616.239 27.2251C616.541 26.702 616.361 26.0331 615.838 25.731Z" fill="black" fill-opacity="0.12"/>
<path d="M624.991 21.4964L624.235 21.0601C623.712 20.758 623.043 20.9372 622.741 21.4604C622.439 21.9835 622.618 22.6524 623.141 22.9545L623.897 23.3908C624.42 23.6928 625.089 23.5136 625.391 22.9905C625.693 22.4673 625.514 21.7984 624.991 21.4964Z" fill="black" fill-opacity="0.12"/>
<path d="M622.93 25.066L622.174 24.6296C621.651 24.3276 620.982 24.5068 620.68 25.03C620.378 25.5531 620.557 26.222 621.081 26.5241L621.836 26.9604C622.359 27.2624 623.028 27.0832 623.33 26.5601C623.632 26.0369 623.453 25.368 622.93 25.066Z" fill="black" fill-opacity="0.12"/>
<path d="M620.869 28.6355L620.113 28.1992C619.59 27.8972 618.921 28.0764 618.619 28.5996C618.317 29.1227 618.496 29.7916 619.02 30.0936L619.775 30.53C620.298 30.832 620.967 30.6528 621.269 30.1296C621.571 29.6065 621.392 28.9376 620.869 28.6355Z" fill="black" fill-opacity="0.12"/>
<path d="M630.422 25.8948C630.724 25.3716 630.545 24.7027 630.022 24.4007L629.266 23.9644C628.743 23.6623 628.074 23.8415 627.772 24.3647C627.47 24.8878 627.649 25.5567 628.172 25.8588L628.928 26.2951C629.451 26.5972 630.12 26.4179 630.422 25.8948Z" fill="black" fill-opacity="0.12"/>
<path d="M626.008 28.2922L624.028 31.7223C623.726 32.2454 623.905 32.9143 624.428 33.2164C624.951 33.5184 625.62 33.3392 625.922 32.816L627.903 29.3859C628.205 28.8628 628.025 28.1939 627.502 27.8918C626.979 27.5898 626.31 27.769 626.008 28.2922Z" fill="black" fill-opacity="0.12"/>
<path d="M630.951 32.1899C631.474 32.492 632.143 32.3127 632.445 31.7896L639.362 19.8081C640.568 17.7189 639.85 15.0379 637.761 13.8317L624.488 6.16846C622.399 4.96227 619.718 5.68064 618.511 7.76982L608.886 24.4408C607.68 26.53 608.399 29.211 610.488 30.4172L623.761 38.0804C625.85 39.2866 628.531 38.5682 629.738 36.4783C630.04 35.9552 629.86 35.2866 629.337 34.9846C628.814 34.6825 628.145 34.8622 627.843 35.3853C627.24 36.4299 625.899 36.7891 624.855 36.186L611.581 28.5227C610.537 27.9196 610.178 26.5791 610.781 25.5346L620.406 8.86357C621.009 7.81898 622.349 7.45979 623.394 8.06289L636.667 15.7261C637.712 16.3292 638.071 17.6697 637.468 18.7143L630.55 30.6958C630.248 31.219 630.427 31.8879 630.951 32.1899Z" fill="black" fill-opacity="0.12"/>
</g>
<g clip-path="url(#clip15_994_13224)">
<path d="M660.943 64.0445C666.766 67.4065 673.707 69.7221 675.477 66.6568C675.572 66.4928 675.835 66.0364 675.839 66.0296L682.596 54.3259C682.613 54.2974 682.872 53.8483 682.975 53.6702C684.745 50.6052 679.314 45.6736 673.491 42.3116C665.054 37.4506 659.94 37.5675 658.697 39.7202C658.599 39.8913 658.371 40.3019 658.355 40.3301L651.841 51.6134C651.837 51.6204 651.43 52.3077 651.245 52.6286C649.356 55.9001 655.954 61.1638 660.943 64.0445ZM659.266 43.5744C660.617 45.7609 663.498 48.4413 668.338 51.2356C672.052 53.3797 676.28 55.0607 679.306 55.2014L675.01 62.6425C673.367 60.0886 669.805 57.2709 666.092 55.1268C662.841 53.2502 658.273 51.2873 654.961 51.0478C654.958 51.037 659.266 43.5744 659.266 43.5744ZM662.125 61.9984C655.325 58.0724 652.798 54.2185 653.156 53.5988C653.514 52.9786 658.115 53.2399 664.915 57.1658C671.437 60.9315 673.966 64.6822 673.562 65.3807C673.159 66.0791 668.646 65.7638 662.125 61.9984ZM672.31 44.3573C678.832 48.1229 681.361 51.8734 680.958 52.5718C680.554 53.2703 676.042 52.9552 669.52 49.1898C662.812 45.3173 660.328 41.4881 660.686 40.8681C661.044 40.2482 665.595 40.4806 672.31 44.3573Z" fill="black" fill-opacity="0.12"/>
</g>
<g clip-path="url(#clip16_994_13224)">
<path d="M712.994 33.1394C711.093 28.4306 719.971 18.7006 719.971 18.7006C719.971 18.7006 723.763 20.89 724.205 21.1451C724.647 21.4002 726.54 22.1226 727.737 20.0481C729.211 17.4962 727.003 16.4307 727.003 16.4307C727.003 16.4307 715.398 9.73073 711.414 7.43032C708.855 5.95293 704.854 7.5493 702.318 8.87939C700.967 9.59108 701.185 10.1351 702.701 10.3074C708.024 10.8999 708.834 12.2612 708.834 12.2612C708.306 13.8668 704.674 20.3898 702.11 22.3119C699.618 24.0764 695.822 25.943 697.783 29.4605C699.356 32.1361 703.38 30.8287 705.812 26.0554C707.114 23.5374 712.23 14.2312 712.23 14.2312L716.137 16.4866C715.188 17.8491 710.303 24.78 708.492 29.5134C705.035 37.164 713.708 40.2991 717.542 37.0486C718.56 36.125 718.977 35.2059 719.085 34.3934C719.289 32.8865 718.492 32.341 718.256 32.9646C718.103 33.3611 717.862 33.6968 717.619 33.9848C716.876 34.8768 713.955 35.2617 712.994 33.1394Z" fill="black" fill-opacity="0.12"/>
</g>
<g clip-path="url(#clip17_994_13224)">
<path d="M763.355 51.0355C759.914 49.0493 756.014 50.5476 752.572 51.8701C749.632 52.9997 746.856 54.0664 744.882 52.9269C742.83 51.7425 742.788 48.9068 743.661 47.3953C744.47 45.9939 747.028 44.755 749.193 46.0053C751.295 47.2185 751.418 49.5324 751.424 49.6505C751.446 50.3979 752.069 50.9886 752.817 50.9706C753.57 50.9529 754.165 50.3287 754.147 49.5765C754.143 49.4171 754.014 45.6432 750.555 43.646C747.074 41.6364 742.884 43.2914 741.301 46.0332C739.668 48.8615 740.178 53.3572 743.519 55.2864C746.618 57.0757 750.142 55.7223 753.549 54.4131C756.701 53.2027 759.678 52.0589 761.992 53.3951C763.369 54.19 764.004 55.1795 763.934 56.4185C763.872 57.4934 763.327 58.4357 763.138 58.7621C763.03 58.9493 762.389 59.8313 761.443 60.4125C760.364 61.0743 759.364 61.0946 758.292 60.4758C756.134 59.2299 755.778 57.1541 755.644 56.3722C755.609 56.1688 755.584 56.0224 755.529 55.8651C755.279 55.1564 754.501 54.783 753.791 55.033C753.107 55.2741 752.736 56.0065 752.935 56.694C752.942 56.7305 752.95 56.7771 752.959 56.8317C753.134 57.8507 753.664 60.9495 756.93 62.8347C760.898 65.126 764.416 61.9973 765.507 60.1079C766.202 58.9047 766.588 57.716 766.653 56.5738C766.745 54.9697 766.248 52.7059 763.355 51.0355Z" fill="black" fill-opacity="0.12"/>
</g>
<g clip-path="url(#clip18_994_13224)">
<path d="M796.601 22.894L796.373 22.0456L795.96 26.0839L800.641 24.8297L796.653 19.304L796.524 20.5635L797.112 22.7566C797.15 22.8987 797.067 23.0435 796.925 23.0811C796.784 23.1191 796.638 23.0349 796.601 22.894Z" fill="black" fill-opacity="0.12"/>
<path d="M800.93 16.5205L801.033 16.9095L803.735 20.8469L802.465 16.1087L800.93 16.5205Z" fill="black" fill-opacity="0.12"/>
<path d="M804.757 18.5138L804.002 15.6981L802.978 15.9726L804.281 20.8367C804.319 20.9784 804.235 21.1235 804.094 21.1614C804.042 21.1753 803.992 21.1684 803.945 21.1528L805.563 23.5116L811.18 22.0065C811.745 21.8551 812.081 21.2735 811.929 20.7079L810.42 15.0755C810.269 14.5103 809.687 14.1745 809.121 14.3258L806.561 15.0119L807.864 19.8761C807.902 20.0179 807.819 20.1627 807.677 20.2006C807.535 20.2385 807.39 20.1549 807.352 20.0132L806.049 15.1492L804.513 15.5608L805.267 18.3765C805.305 18.5182 805.222 18.6631 805.08 18.7011C804.94 18.7388 804.794 18.6549 804.757 18.5138Z" fill="black" fill-opacity="0.12"/>
<path d="M791.201 19.1273L790.176 19.4019L790.931 22.2174C790.969 22.3591 790.885 22.504 790.744 22.5419C790.602 22.5803 790.457 22.4965 790.419 22.3545L789.664 19.5389L788.128 19.9506L789.431 24.8146C789.469 24.9566 789.386 25.1011 789.244 25.1393C789.102 25.1774 788.957 25.0937 788.919 24.9518L787.616 20.088L786.592 20.3625L787.346 23.1781C787.384 23.3198 787.301 23.4646 787.159 23.5026C787.017 23.5409 786.872 23.4572 786.834 23.3151L786.08 20.4996L784.544 20.9112L785.847 25.7753C785.885 25.917 785.801 26.0619 785.66 26.0999C785.518 26.1382 785.373 26.0544 785.335 25.9124L784.032 21.0483L780.961 21.8714C780.395 22.0229 780.059 22.6046 780.211 23.1701L781.72 28.8024C781.871 29.3679 782.453 29.7036 783.019 29.5521L790.998 27.4136L791.529 20.3523L791.201 19.1273Z" fill="black" fill-opacity="0.12"/>
<path d="M806.49 29.0864L806.586 28.6164C806.936 27.39 806.464 26.546 806.464 26.546L804.565 23.7783L801.656 19.5389L800.89 18.421L799.794 16.8245L798.701 15.231C799.014 15.0286 798.935 14.586 798.935 14.586L797.317 8.54855L795.385 9.06624C795.385 9.06624 794.73 6.6207 794.487 5.71571C794.37 5.27945 794.17 5.0681 793.994 4.96658C793.805 4.85726 793.643 4.87454 793.643 4.87454L793.013 5.0428L792.53 5.17255L792.046 5.30175C792.046 5.30175 791.346 5.5868 791.589 6.49209C791.832 7.39791 792.487 9.84263 792.487 9.84263L790.555 10.3607L792.172 16.3981C792.172 16.3981 792.295 16.6161 792.508 16.739C792.584 16.7831 792.673 16.815 792.771 16.82L792.626 18.7456L792.411 21.5987L792.291 23.1975L791.994 27.1462L791.743 30.4897C791.743 30.4897 791.774 31.4519 792.691 32.3389L793.066 32.7589C793.066 32.7589 793.232 33.46 793.436 34.3246C793.55 34.8104 793.661 35.0913 793.742 35.138C793.805 35.1744 793.85 35.0683 793.864 34.8056L793.924 33.7208L794.171 33.9967L794.953 26.3539L795.665 19.4024L795.816 17.9205L795.82 17.8896L795.834 17.7463L796.378 17.6007L796.585 17.5451L796.67 17.6618L796.948 18.048L797.821 19.2575L801.647 24.5594L806.142 30.789L806.251 30.256L806.979 31.3251C806.979 31.3251 807.673 31.3819 807.665 30.8662L806.49 29.0864Z" fill="black" fill-opacity="0.12"/>
</g>
<g clip-path="url(#clip19_994_13224)">
<path d="M848.392 65.0955L838.497 39.0394C838.339 38.6218 837.958 38.3369 837.514 38.3006C837.07 38.2645 836.649 38.4859 836.427 38.8707L827.696 53.9939C827.382 54.5376 827.543 55.2744 828.093 55.5919L846.702 66.5556L846.708 66.559C847.129 66.8023 847.675 66.7178 848.041 66.4084C848.408 66.0986 848.561 65.5513 848.392 65.0955ZM830.256 54.1602L837.206 42.1227L845.083 62.8676L830.256 54.1602Z" fill="black" fill-opacity="0.12"/>
<path d="M828.486 44.4126C828.602 44.2109 828.859 44.1473 829.055 44.2602C829.25 44.3731 829.32 44.6335 829.207 44.829L828.653 45.7881C828.968 45.6523 829.315 45.616 829.687 45.8312C830.286 46.1769 830.583 46.9756 830.093 47.8246L830.085 47.837C829.592 48.6926 828.768 48.8358 828.156 48.4829C827.772 48.2607 827.636 47.9458 827.584 47.6393L827.581 47.6455C827.468 47.841 827.208 47.9106 827.012 47.7977C826.81 47.6815 826.747 47.4249 826.86 47.2294L828.486 44.4126ZM829.364 47.421L829.368 47.415C829.611 46.9935 829.49 46.5407 829.154 46.3466C828.818 46.1526 828.368 46.2679 828.121 46.6954L828.114 46.7078C827.871 47.1293 827.986 47.5788 828.328 47.7764C828.668 47.9639 829.114 47.8547 829.364 47.421Z" fill="black" fill-opacity="0.12"/>
<path d="M846.138 49.5691C846.254 49.3674 846.51 49.3035 846.706 49.4167C846.902 49.5294 846.971 49.7895 846.858 49.9852L846.308 50.9384C846.597 50.8197 846.923 50.7476 847.296 50.9628C847.846 51.2806 847.956 51.8243 847.617 52.4109L846.855 53.7306C846.738 53.9324 846.482 53.9962 846.286 53.8832C846.091 53.7701 846.021 53.5099 846.134 53.3144L846.766 52.2206C846.963 51.8784 846.901 51.606 846.625 51.4472C846.351 51.2886 846.071 51.3635 845.874 51.7057L845.242 52.7995C845.126 53.0012 844.869 53.0649 844.674 52.952C844.478 52.8391 844.408 52.5787 844.521 52.3832L846.144 49.5727L846.138 49.5691Z" fill="black" fill-opacity="0.12"/>
<path d="M833.695 62.3861L833.698 62.3801C834.019 61.824 834.593 61.8043 835.204 62.1571C835.46 62.3053 835.625 62.4574 835.767 62.6212L835.792 62.5788C835.965 62.2793 835.88 62.0024 835.513 61.7905C835.312 61.6742 835.135 61.6129 834.97 61.5745C834.92 61.5621 834.886 61.5505 834.855 61.5329C834.69 61.4377 834.63 61.2316 834.725 61.0667C834.799 60.9383 834.942 60.8745 835.083 60.8983C835.359 60.9434 835.637 61.0394 835.979 61.237C836.376 61.4662 836.604 61.7362 836.675 62.0215C836.755 62.3207 836.678 62.6507 836.477 62.9993L835.803 64.1664C835.69 64.3619 835.443 64.4227 835.248 64.31C835.04 64.1898 834.984 63.9622 835.073 63.8091L835.076 63.8033C834.786 63.8966 834.468 63.8841 834.113 63.6793C833.64 63.3977 833.405 62.8871 833.695 62.3861ZM835.456 63.1748L835.53 63.0466C835.439 62.9209 835.299 62.7828 835.121 62.6805C834.81 62.5006 834.55 62.5138 834.416 62.746L834.408 62.7582C834.296 62.9538 834.394 63.1649 834.626 63.2991C834.969 63.4963 835.304 63.4376 835.456 63.1748Z" fill="black" fill-opacity="0.12"/>
</g>
<g clip-path="url(#clip20_994_13224)">
<path d="M865.189 26.811C865.096 27.5269 865.443 28.2284 866.068 28.5891L885.673 39.9081C886.528 40.4018 887.621 40.1091 888.115 39.2537L890.796 34.6107C891.289 33.7558 890.997 32.6629 890.141 32.1691C889.286 31.6754 888.193 31.968 887.7 32.8232L885.912 35.9185L871.575 27.6406L882.785 24.5972C883.682 24.3533 884.243 23.4617 884.074 22.547L881.637 9.37375L896.338 17.8615L895.742 18.8933C895.249 19.7483 895.542 20.841 896.397 21.3349C897.252 21.8287 898.345 21.5358 898.839 20.6809L900.328 18.1013C900.821 17.2463 900.529 16.1534 899.674 15.6597L880.068 4.34042C879.464 3.99182 878.713 4.02635 878.143 4.42888C877.574 4.83141 877.29 5.52832 877.417 6.21355L880.26 21.5795L866.494 25.3166C865.797 25.5057 865.283 26.0951 865.189 26.811Z" fill="black" fill-opacity="0.12"/>
</g>
<g clip-path="url(#clip21_994_13224)">
<path d="M934.211 48.3276L933.507 50.6266L916.19 60.6243C915.297 61.14 914.991 62.2809 915.504 63.1686C916.017 64.0565 917.157 64.3622 918.051 63.8465L932.162 55.6995L930.687 61.1689C930.42 62.1626 931.009 63.1819 932.003 63.4481C932.997 63.7146 934.022 63.1228 934.288 62.1289L938.212 47.5885C938.345 47.1099 938.252 46.5569 937.993 46.1217C937.745 45.6806 937.335 45.3616 936.851 45.232L922.281 41.333C921.287 41.0665 920.262 41.6584 919.996 42.6523C919.73 43.6464 920.321 44.6711 921.315 44.9373L926.796 46.4057L912.685 54.5527C911.792 55.0682 911.486 56.2093 912.002 57.1025C912.517 57.9958 913.658 58.3015 914.552 57.7858L931.853 47.7748L934.211 48.3276Z" fill="black" fill-opacity="0.12"/>
</g>
<g clip-path="url(#clip22_994_13224)">
<path d="M966.477 29.5982C965.784 29.1982 964.899 29.4354 964.499 30.1282C964.099 30.821 964.336 31.707 965.029 32.107L974.644 37.6586C975.337 38.0586 976.223 37.8214 976.623 37.1283C977.023 36.4356 976.786 35.55 976.093 35.1499L966.477 29.5982Z" fill="black" fill-opacity="0.12"/>
<path d="M959.616 10.5856C959.216 11.2785 959.453 12.164 960.146 12.5641L963.491 14.4951L961.56 17.84C961.16 18.5327 961.397 19.4185 962.09 19.8185C962.782 20.2185 963.668 19.9813 964.068 19.2883L965.999 15.9434L969.762 18.1159C970.455 18.5159 971.34 18.2786 971.74 17.5858C972.14 16.893 971.903 16.0073 971.21 15.6073L967.447 13.4348L969.861 9.25394C970.261 8.56111 970.024 7.67554 969.331 7.27553C968.638 6.87553 967.753 7.11279 967.353 7.80562L964.939 11.9865L961.594 10.0554C960.901 9.65565 960.016 9.89299 959.616 10.5856Z" fill="black" fill-opacity="0.12"/>
<path d="M984.841 18.9849C984.634 18.2122 983.84 17.7537 983.067 17.9608L954.283 25.6741C953.51 25.8812 953.052 26.6753 953.259 27.4476C953.362 27.834 953.612 28.1422 953.933 28.3274C954.254 28.5124 954.646 28.5756 955.033 28.4717L983.816 20.7592C984.589 20.5524 985.048 19.7575 984.841 18.9849Z" fill="black" fill-opacity="0.12"/>
</g>
<g clip-path="url(#clip23_994_13224)">
<path d="M1067.14 22.6181C1067.82 23.0113 1068.69 22.7783 1069.08 22.0972C1069.48 21.4161 1069.24 20.5457 1068.56 20.1523L1066.36 18.8835L1070.1 17.0151C1070.81 16.6635 1071.09 15.8081 1070.74 15.105C1070.39 14.4016 1069.53 14.1165 1068.83 14.4678L1063.41 17.1771L1056.74 13.3239C1052.61 10.9396 1047.52 11.9907 1045.4 15.667L1044.74 16.809L1044.55 17.1289C1042.92 19.9535 1043.26 23.6607 1045.04 26.3623L1041.87 27.9459C1041.16 28.2977 1040.88 29.153 1041.23 29.8561C1041.36 30.1148 1041.56 30.3173 1041.79 30.4518C1042.19 30.683 1042.7 30.7151 1043.14 30.493L1047.08 28.5238C1047.29 28.6723 1047.5 28.8141 1047.72 28.9417L1059.55 35.7701C1060.23 36.1634 1061.1 35.9302 1061.49 35.2488C1061.88 34.5679 1061.65 33.6973 1060.97 33.304L1050.09 27.0208L1055.17 24.4775L1058.41 26.3465C1059.09 26.7397 1059.96 26.5067 1060.36 25.8254C1060.75 25.1444 1060.52 24.2737 1059.83 23.8804L1058.23 22.9516L1063.31 20.4088L1067.14 22.6181ZM1047.61 25.0746C1046.47 23.5246 1046.04 21.3368 1046.6 19.5269L1052.22 22.7715L1047.61 25.0746ZM1055.27 21.2457L1047.92 17.0029C1049.45 14.4981 1052.92 14.4119 1055.31 15.7898L1060.36 18.7029L1055.27 21.2457Z" fill="black" fill-opacity="0.12"/>
</g>
<g clip-path="url(#clip24_994_13224)">
<path d="M1130.43 16.3505L1131.43 16.9296L1132.32 26.8811C1132.36 27.3481 1132.63 27.7584 1133.03 27.9874C1133.1 28.0325 1133.19 28.0707 1133.28 28.1004C1133.81 28.2829 1134.4 28.1363 1134.78 27.7253L1145.14 16.6241L1155.77 22.7616C1156.45 23.1547 1157.32 22.9218 1157.72 22.2405C1158.11 21.5596 1157.88 20.6887 1157.19 20.2954L1145.58 13.592C1145.01 13.2607 1144.28 13.3694 1143.83 13.8536L1134.87 23.4516L1134.2 15.9398C1134.16 15.4785 1133.9 15.0655 1133.5 14.8335L1131.85 13.8844C1131.17 13.4912 1130.3 13.7244 1129.91 14.4056C1129.51 15.0866 1129.75 15.9573 1130.43 16.3505Z" fill="black" fill-opacity="0.12"/>
<path d="M1139.96 28.8405C1139.61 29.446 1139.84 30.1764 1140.48 30.5439C1140.91 30.7922 1141.4 30.7146 1141.89 30.5296L1144.92 29.2616L1145.33 32.5152C1145.42 33.0972 1145.62 33.513 1146.1 33.7886C1146.71 34.1383 1147.46 34.0023 1147.86 33.3179C1148.04 32.9995 1148.08 32.6392 1147.99 32.164L1147.28 28.4805L1150.74 27.2553C1151.07 27.1269 1151.36 26.9545 1151.56 26.62C1151.91 26.0145 1151.67 25.2837 1151.03 24.916C1150.6 24.6678 1150.11 24.7457 1149.62 24.9308L1146.8 26.1036L1146.44 23.0923C1146.35 22.5099 1146.14 22.0939 1145.67 21.8183C1145.06 21.4688 1144.3 21.6052 1143.91 22.2898C1143.73 22.6078 1143.69 22.9684 1143.77 23.4425L1144.44 26.8847L1140.77 28.2047C1140.43 28.3247 1140.15 28.5059 1139.96 28.8405Z" fill="black" fill-opacity="0.12"/>
</g>
<g clip-path="url(#clip25_994_13224)">
<path d="M1190.62 68.229L1189.44 65.4225C1189.18 64.8108 1188.48 64.5248 1187.87 64.7825C1187.45 64.958 1187.19 65.3423 1187.15 65.7623L1183.47 63.642C1188.05 62.2438 1194.03 57.0737 1201.31 48.2082C1201.73 47.6968 1201.66 46.9405 1201.14 46.5194C1200.63 46.0981 1199.87 46.1735 1199.45 46.6855C1188.82 59.6351 1183.4 61.6091 1181.11 61.6334C1181 61.6344 1180.89 61.6295 1180.79 61.621L1190.07 45.538C1190.18 45.7461 1190.34 45.9215 1190.54 46.0364C1190.75 46.1586 1191 46.2182 1191.26 46.1898C1191.92 46.1205 1192.4 45.5292 1192.33 44.8706L1192.01 41.886C1191.97 41.508 1191.76 41.1716 1191.43 40.9785C1191.11 40.8032 1190.7 40.7584 1190.35 40.906L1187.55 42.0883C1186.94 42.3458 1186.65 43.0495 1186.91 43.66C1187.09 44.1027 1187.52 44.3712 1187.96 44.3898L1178.7 60.4296C1175.92 57.3947 1178.69 44.8663 1181.73 36.4332C1181.95 35.8094 1181.63 35.1212 1181.01 34.897C1180.38 34.6728 1179.7 34.9955 1179.47 35.619C1179.39 35.8504 1177.41 41.3565 1176.15 47.3966C1175.09 52.5022 1174.86 56.3523 1175.48 59.0251L1169.36 55.4944C1168.79 55.163 1168.05 55.3597 1167.72 55.9336C1167.39 56.5076 1167.59 57.2415 1168.16 57.5729L1186.07 67.91C1185.59 68.1106 1185.28 68.5981 1185.34 69.136C1185.38 69.5336 1185.61 69.8642 1185.93 70.0497C1186.14 70.1722 1186.39 70.231 1186.66 70.2029L1189.64 69.8877C1190.02 69.848 1190.36 69.6315 1190.55 69.3051C1190.74 68.9775 1190.77 68.579 1190.62 68.229Z" fill="black" fill-opacity="0.12"/>
</g>
<g clip-path="url(#clip26_994_13224)">
<path d="M1029.6 48.4418L1007.44 35.6485C1006.86 35.3169 1006.12 35.5158 1005.79 36.0902L994.202 56.1588C993.87 56.7332 994.069 57.4753 994.644 57.807L1016.8 70.6003C1017.38 70.932 1018.12 70.7332 1018.45 70.1588L1030.04 50.0902C1030.37 49.5096 1030.18 48.777 1029.6 48.4418ZM1015.73 56.0474C1015.15 55.7155 1014.41 55.9144 1014.08 56.489L1013.96 56.6968L1013.72 57.1123L1011.63 55.9056L1011.99 55.2824C1012.32 54.7078 1012.12 53.9659 1011.55 53.634C1010.97 53.3024 1010.23 53.5011 1009.9 54.0757L1009.78 54.2834L1009.54 54.699L1006.61 53.0089L1006.97 52.3856C1007.3 51.811 1007.11 51.0689 1006.53 50.7373C1005.96 50.4056 1005.21 50.6043 1004.88 51.1789L1004.76 51.3867L1004.52 51.8022L1000.76 49.6289L1003.89 44.1965L1005.98 45.4032L1005.62 46.0327L1005.5 46.2404C1005.23 46.705 1005.39 47.2929 1005.86 47.5611C1005.89 47.5822 1005.93 47.5938 1005.97 47.6087C1006 47.6359 1006.03 47.6598 1006.06 47.681C1006.64 48.0126 1007.38 47.8139 1007.71 47.2396L1008.07 46.6101L1009.75 47.5768L1009.39 48.2063L1009.27 48.4141C1009 48.8787 1009.16 49.4666 1009.62 49.7347C1009.66 49.7559 1009.69 49.7675 1009.73 49.7824C1009.76 49.8096 1009.79 49.8335 1009.83 49.8547C1010.4 50.1863 1011.14 49.9876 1011.48 49.4132L1011.84 48.7837L1014.77 50.4737L1014.4 51.1032L1014.28 51.3109C1014.01 51.7756 1014.17 52.3636 1014.64 52.6317C1014.67 52.653 1014.71 52.6646 1014.75 52.6797C1014.78 52.7067 1014.81 52.7306 1014.85 52.7518C1015.42 53.0836 1016.16 52.8847 1016.49 52.3103L1016.86 51.6808L1018.95 52.8875L1018.58 53.517L1018.46 53.7248C1018.2 54.1894 1018.35 54.7772 1018.82 55.0454C1018.85 55.0665 1018.89 55.0783 1018.93 55.0931C1018.96 55.1204 1018.99 55.1442 1019.03 55.1655C1019.6 55.497 1020.34 55.2985 1020.67 54.7241L1021.04 54.0943L1023.96 55.7842L1020.83 61.2168L1015.81 58.32L1016.17 57.6967C1016.51 57.1151 1016.3 56.379 1015.73 56.0474ZM1007.28 38.3419L1027.34 49.9284L1025.17 53.6927L1022.24 52.003L1022.61 51.3735C1022.94 50.7991 1022.74 50.0567 1022.17 49.7252C1021.59 49.3934 1020.85 49.5925 1020.52 50.1668L1020.4 50.3746L1020.16 50.7901L1018.07 49.5836L1018.43 48.9543C1018.76 48.3797 1018.56 47.6377 1017.99 47.3059C1017.41 46.9743 1016.67 47.173 1016.34 47.7476L1016.22 47.9554L1015.98 48.3709L1013.05 46.6808L1013.42 46.0513C1013.75 45.4769 1013.55 44.7348 1012.98 44.4032C1012.4 44.0716 1011.66 44.2702 1011.33 44.8446L1011.21 45.0528L1010.97 45.4684L1009.29 44.5016L1009.66 43.8721C1009.99 43.2977 1009.79 42.5556 1009.21 42.2239C1008.64 41.8923 1007.89 42.1094 1007.55 42.6838L1007.44 42.8916L1007.2 43.3071L1005.11 42.1004L1007.28 38.3419ZM1016.96 67.9073L996.895 56.3207L999.552 51.7191L1003.32 53.8925L1002.95 54.522L1002.83 54.7297C1002.56 55.1943 1002.72 55.7825 1003.19 56.0506C1003.22 56.0718 1003.26 56.0833 1003.3 56.0983C1003.33 56.1252 1003.36 56.1494 1003.39 56.1705C1003.97 56.5022 1004.71 56.3035 1005.04 55.7291L1005.41 55.0996L1008.33 56.7897L1007.97 57.4192L1007.85 57.6269C1007.58 58.0913 1007.74 58.6795 1008.2 58.9478C1008.24 58.969 1008.27 58.9807 1008.31 58.9954C1008.35 59.0226 1008.37 59.0466 1008.41 59.0677C1008.99 59.3992 1009.73 59.2007 1010.06 58.6263L1010.42 57.9968L1012.51 59.2035L1012.15 59.833L1012.03 60.041C1011.76 60.5054 1011.92 61.0935 1012.38 61.3617C1012.42 61.3828 1012.45 61.3946 1012.49 61.4094C1012.53 61.4365 1012.55 61.4605 1012.59 61.4818C1013.17 61.8134 1013.91 61.6147 1014.24 61.0404L1014.6 60.4109L1019.62 63.3074L1016.96 67.9083L1016.96 67.908L1016.96 67.9073Z" fill="black" fill-opacity="0.12"/>
</g>
<g clip-path="url(#clip27_994_13224)">
<path d="M1116.37 49.8641C1116.37 49.8569 1116.37 49.846 1116.38 49.8317C1116.42 49.6869 1116.45 49.5299 1116.44 49.3709C1116.43 49.33 1116.41 49.2923 1116.41 49.2517C1116.41 49.2109 1116.39 49.1658 1116.38 49.1277C1116.36 49.0715 1116.34 49.0224 1116.32 48.9697C1116.3 48.9428 1116.29 48.9163 1116.28 48.8898C1116.21 48.7752 1116.13 48.6708 1116.04 48.5804L1116.03 48.5765C1115.98 48.5294 1115.92 48.4964 1115.87 48.4635C1115.85 48.4552 1115.85 48.4511 1115.83 48.4429L1115.72 48.3772L1100.52 39.6013C1100.35 39.5066 1100.16 39.4506 1099.97 39.4396L1091.09 39.0385C1090.63 39.0151 1090.21 39.2481 1089.99 39.6401L1080.46 56.1502C1080.12 56.7277 1080.32 57.4692 1080.9 57.8023L1097.99 67.6678C1098.25 67.8203 1098.56 67.8683 1098.86 67.8015L1106.65 66.0022C1106.98 65.9262 1107.26 65.7183 1107.43 65.4336L1116.28 50.0983L1116.29 50.0913C1116.31 50.0118 1116.33 49.9393 1116.37 49.8641ZM1099.71 41.9192L1111.26 48.5841L1108.41 48.8151L1098.97 43.3641L1099.08 43.1789C1099.21 42.9509 1099.14 42.6514 1098.9 42.5156C1098.67 42.3797 1098.37 42.458 1098.24 42.6933L1098.13 42.8968L1095.81 41.5741C1095.81 41.5742 1099.5 41.9326 1099.71 41.9192ZM1084.27 56.4119C1084.27 56.1463 1084.05 55.9342 1083.78 55.9333L1083.36 55.9375L1091.59 41.686L1097.01 44.8424L1096.7 45.3697C1096.57 45.5977 1096.65 45.8972 1096.88 46.033C1097.12 46.1688 1097.41 46.0905 1097.54 45.8552L1097.84 45.335L1106.18 50.1965L1097.78 64.7545L1084.03 56.8184C1084.17 56.7383 1084.27 56.5853 1084.27 56.4119ZM1100.44 64.9504L1108.34 51.2694L1113.02 50.8758L1105.6 63.7235L1104.78 63.2277C1104.55 63.0962 1104.25 63.1772 1104.11 63.4125C1103.98 63.6335 1104.05 63.9212 1104.26 64.0587L1100.44 64.9504Z" fill="black" fill-opacity="0.12"/>
<path d="M1091.94 56.9344L1092.96 57.5268C1093.19 57.6584 1093.49 57.5843 1093.62 57.3566C1093.75 57.1283 1093.68 56.8296 1093.45 56.698L1092.42 56.1014C1092.19 55.9698 1091.89 56.0439 1091.75 56.2786C1091.63 56.4998 1091.71 56.8028 1091.94 56.9344Z" fill="black" fill-opacity="0.12"/>
<path d="M1095.69 48.099C1095.92 48.2306 1096.22 48.1565 1096.35 47.9213L1096.95 46.888C1097.08 46.66 1097 46.3605 1096.77 46.2247C1096.53 46.0889 1096.24 46.1672 1096.11 46.4024L1095.51 47.4357C1095.38 47.6637 1095.45 47.9632 1095.69 48.099Z" fill="black" fill-opacity="0.12"/>
<path d="M1103.74 62.6568L1102.71 62.0458C1102.49 61.9141 1102.18 61.9952 1102.05 62.2235C1101.92 62.4512 1101.99 62.7578 1102.22 62.8935L1103.27 63.4756C1103.49 63.6072 1103.79 63.5398 1103.92 63.312C1104.05 63.0843 1103.97 62.7885 1103.74 62.6568Z" fill="black" fill-opacity="0.12"/>
<path d="M1093.31 52.2176C1093.54 52.3493 1093.84 52.2749 1093.97 52.0402L1094.57 51.0069C1094.7 50.7789 1094.63 50.4794 1094.39 50.3436C1094.16 50.2078 1093.86 50.2861 1093.73 50.5213L1093.13 51.5546C1093 51.7826 1093.07 52.0818 1093.31 52.2176Z" fill="black" fill-opacity="0.12"/>
<path d="M1092.12 54.277C1092.35 54.4086 1092.65 54.3345 1092.78 54.0992L1093.38 53.0662C1093.51 52.8382 1093.44 52.5388 1093.2 52.4029C1092.97 52.2671 1092.68 52.3457 1092.54 52.5807L1091.94 53.6137C1091.81 53.8419 1091.89 54.1411 1092.12 54.277Z" fill="black" fill-opacity="0.12"/>
<path d="M1094.5 50.1583C1094.73 50.29 1095.03 50.2159 1095.16 49.9806L1095.76 48.9473C1095.89 48.7193 1095.82 48.4199 1095.58 48.284C1095.35 48.1482 1095.05 48.2265 1094.92 48.4618L1094.32 49.495C1094.19 49.7233 1094.26 50.0225 1094.5 50.1583Z" fill="black" fill-opacity="0.12"/>
<path d="M1098.11 60.509L1099.15 61.0986C1099.37 61.2304 1099.67 61.1631 1099.81 60.9278C1099.94 60.7001 1099.86 60.4075 1099.62 60.2718L1098.59 59.6685C1098.37 59.537 1098.06 59.618 1097.93 59.846C1097.81 60.0774 1097.88 60.3775 1098.11 60.509Z" fill="black" fill-opacity="0.12"/>
<path d="M1096.05 59.3125L1097.09 59.902C1097.32 60.0338 1097.62 59.9596 1097.75 59.7316C1097.88 59.5033 1097.8 59.2109 1097.57 59.0753L1096.54 58.4723C1096.31 58.3405 1096.01 58.4215 1095.88 58.6497C1095.74 58.8845 1095.83 59.1809 1096.05 59.3125Z" fill="black" fill-opacity="0.12"/>
<path d="M1094 58.1234L1095.03 58.72C1095.26 58.8516 1095.56 58.7775 1095.69 58.5498C1095.82 58.3215 1095.74 58.0294 1095.51 57.8935L1094.48 57.2899C1094.25 57.1583 1093.95 57.2324 1093.81 57.4676C1093.68 57.6954 1093.77 57.9918 1094 58.1234Z" fill="black" fill-opacity="0.12"/>
<path d="M1089.49 56.7772C1089.56 56.8184 1089.64 56.8382 1089.74 56.8431L1090.92 56.8336C1091.19 56.8348 1091.4 56.6149 1091.4 56.3496L1091.4 56.3389C1091.47 56.2953 1091.54 56.2407 1091.58 56.1622L1092.18 55.1289C1092.31 54.9009 1092.24 54.602 1092 54.4662C1091.77 54.3303 1091.48 54.4086 1091.34 54.6434L1090.74 55.6767C1090.71 55.7407 1090.69 55.8064 1090.68 55.8679L1089.71 55.8796C1089.45 55.8784 1089.24 56.0983 1089.23 56.3635C1089.25 56.5413 1089.35 56.6948 1089.49 56.7772Z" fill="black" fill-opacity="0.12"/>
<path d="M1084.73 56.8233C1084.8 56.8644 1084.89 56.8841 1084.98 56.8892L1086.16 56.879C1086.43 56.8807 1086.64 56.6608 1086.64 56.3957C1086.64 56.1301 1086.42 55.9181 1086.16 55.9171L1084.97 55.9273C1084.71 55.9254 1084.5 56.1455 1084.49 56.4108C1084.5 56.5842 1084.59 56.741 1084.73 56.8233Z" fill="black" fill-opacity="0.12"/>
<path d="M1087.11 56.8C1087.18 56.8411 1087.27 56.861 1087.36 56.8659L1088.54 56.8557C1088.81 56.8574 1089.02 56.6375 1089.02 56.3724C1089.02 56.1069 1088.8 55.8948 1088.54 55.8936L1087.35 55.9039C1087.09 55.9022 1086.87 56.1221 1086.87 56.3876C1086.88 56.5609 1086.97 56.7177 1087.11 56.8Z" fill="black" fill-opacity="0.12"/>
</g>
<g clip-path="url(#clip28_994_13224)">
<path d="M1241.24 17.2742C1241.02 16.4366 1240.15 15.9368 1239.31 16.1612L1233.45 17.7324L1217.21 8.35515C1216.45 7.91975 1215.49 8.17699 1215.06 8.93113C1214.62 9.68526 1214.88 10.6453 1215.63 11.0807L1229.15 18.8843L1223.42 20.4196L1213.54 14.7132C1212.78 14.2778 1211.82 14.5326 1211.39 15.2867C1210.95 16.0409 1211.21 17.0009 1211.96 17.4363L1219.12 21.5705L1213.39 23.1058L1209.87 21.0688C1209.11 20.6334 1208.15 20.8906 1207.72 21.6447C1207.28 22.3989 1207.54 23.3589 1208.29 23.7943L1209.09 24.2535L1206.12 25.0478C1205.29 25.2722 1204.79 26.1379 1205.01 26.9756C1205.12 27.3949 1205.4 27.7274 1205.75 27.9304C1206.1 28.132 1206.52 28.2003 1206.94 28.09L1212.94 26.484L1228.27 35.3362C1229.02 35.7716 1229.98 35.5144 1230.42 34.7602C1230.85 34.0061 1230.6 33.046 1229.84 32.6106L1217.24 25.3348L1222.97 23.7996L1231.95 28.9824C1232.7 29.4178 1233.66 29.1605 1234.1 28.4064C1234.53 27.6523 1234.27 26.6922 1233.52 26.2568L1227.27 22.6476L1233 21.1124L1235.61 22.6202C1236.36 23.0556 1237.32 22.7983 1237.76 22.0442C1238.17 21.324 1237.95 20.4225 1237.28 19.9579L1240.11 19.1995C1240.96 18.9786 1241.46 18.1105 1241.24 17.2742Z" fill="black" fill-opacity="0.15"/>
</g>
<g clip-path="url(#clip29_994_13224)">
<path d="M1256.66 46.9364C1257.82 47.607 1259.31 47.2083 1259.98 46.0468C1260.2 45.6661 1260.3 45.2491 1260.3 44.8389L1262.98 42.8372L1261.47 61.3374C1260.92 61.5166 1260.43 61.8826 1260.12 62.4209C1259.45 63.5824 1259.85 65.0703 1261.01 65.7409C1262.17 66.4115 1263.66 66.0128 1264.33 64.8513C1264.59 64.4027 1264.69 63.9079 1264.65 63.4288L1270.19 61.3127L1269.66 66.0243C1269.1 66.1985 1268.59 66.5721 1268.27 67.1249C1267.6 68.2864 1268 69.7743 1269.16 70.4449C1270.32 71.1155 1271.81 70.7168 1272.48 69.5553C1273.07 68.532 1272.83 67.2595 1271.97 66.5118L1272.55 61.3118C1273.18 61.1625 1273.75 60.7701 1274.1 60.1687C1274.77 59.0072 1274.37 57.5194 1273.21 56.8488C1272.04 56.1768 1270.56 56.5768 1269.89 57.7383C1269.65 58.1481 1269.55 58.5988 1269.57 59.039L1263.82 61.2406L1265.4 41.8835C1265.98 41.7152 1266.5 41.3338 1266.83 40.7664C1267.5 39.6049 1267.1 38.117 1265.94 37.4464C1264.78 36.7758 1263.29 37.1745 1262.62 38.336C1262.26 38.964 1262.21 39.6866 1262.43 40.3255L1259.15 42.7653C1259.13 42.7541 1259.11 42.7394 1259.09 42.7268C1257.93 42.0562 1256.44 42.4549 1255.77 43.6164C1255.1 44.7779 1255.5 46.2658 1256.66 46.9364Z" fill="black" fill-opacity="0.15"/>
</g>
<g clip-path="url(#clip30_994_13224)">
<path d="M1321.25 28.9819C1321.25 28.977 1321.26 28.9673 1321.26 28.9625L1321.26 28.9597C1321.45 28.6077 1321.5 28.1943 1321.4 27.808L1318.16 15.7165C1317.94 14.8942 1317.09 14.4014 1316.27 14.6217C1315.45 14.8421 1314.95 15.6956 1315.17 16.518L1316.39 21.0696L1306.78 15.5172L1311.33 14.2976C1312.15 14.0772 1312.64 13.2237 1312.42 12.4013C1312.2 11.579 1311.35 11.0862 1310.53 11.3065L1298.43 14.5496C1298.04 14.6531 1297.72 14.9069 1297.51 15.2505L1297.5 15.2477C1297.5 15.2574 1297.49 15.2622 1297.49 15.2695C1297.49 15.2744 1297.48 15.284 1297.48 15.2865L1297.48 15.2893C1297.29 15.6364 1297.24 16.0547 1297.34 16.441L1300.58 28.5276C1300.8 29.3499 1301.65 29.8427 1302.47 29.6224C1303.3 29.402 1303.79 28.5485 1303.57 27.7261L1302.35 23.1773L1311.97 28.7297L1307.42 29.9521C1306.6 30.1725 1306.11 31.026 1306.33 31.8484C1306.55 32.6707 1307.4 33.1635 1308.23 32.9432L1320.31 29.7046C1320.7 29.6011 1321.03 29.3424 1321.24 29.0037L1321.24 29.0065C1321.24 28.9964 1321.24 28.9916 1321.25 28.9819ZM1300.9 17.2091C1301.44 17.125 1302.94 16.8021 1303.15 16.7985L1317.09 24.8471L1317.84 26.9895L1317.87 27.0615L1317.93 27.2219L1315.46 27.6922L1301.59 19.6828C1301.57 19.6702 1301.53 19.6583 1301.51 19.6505L1300.64 17.2374C1300.64 17.2374 1300.71 17.2367 1300.82 17.2185L1300.9 17.2091Z" fill="black" fill-opacity="0.15"/>
</g>
<g clip-path="url(#clip31_994_13224)">
<path d="M1367.58 54.2277C1369.09 51.6162 1362.39 46.4421 1357.8 43.7961C1354.49 41.8851 1345.53 37.5445 1343.87 40.4083C1343.85 40.4423 1343.85 40.487 1343.83 40.521C1343.79 40.5653 1343.76 40.6023 1343.73 40.6532L1336.75 52.7509C1336.54 53.1146 1336.52 53.5501 1336.7 53.9274C1336.87 54.2963 1338.62 57.6354 1347.17 62.579L1347.17 62.5832L1347.23 62.6154L1347.24 62.6196C1355.84 67.5768 1359.27 67.1541 1359.63 67.0869C1360.01 67.024 1360.32 66.7958 1360.51 66.4733L1367.49 54.3829C1367.49 54.3757 1367.5 54.3684 1367.5 54.3611C1367.53 54.3126 1367.55 54.2714 1367.58 54.2277ZM1356.54 46.0021C1360.88 48.5067 1363.56 51.0133 1364.68 52.4169C1363.1 51.9795 1360.03 50.735 1355.36 48.0414C1350.73 45.3674 1348.08 43.2604 1346.91 42.0694C1348.68 42.368 1352.18 43.4863 1356.54 46.0021ZM1348.47 60.4066C1342.49 56.9542 1340.12 54.3812 1339.34 53.3581L1344.94 43.661C1346.52 45.4292 1349.57 47.6197 1354.1 50.2335C1359.19 53.1735 1362.31 54.4634 1364.25 54.9225L1358.68 64.5686C1357.5 64.4588 1354.36 63.8114 1348.47 60.4066Z" fill="black" fill-opacity="0.15"/>
<path d="M1360.12 59.1617C1360.08 59.1379 1360.05 59.1097 1360.01 59.0786C1359.61 58.6708 1359.18 58.2549 1358.74 57.8522C1358.54 57.6592 1358.52 57.3448 1358.72 57.1394C1358.91 56.934 1359.23 56.9232 1359.43 57.1144C1359.88 57.5315 1360.31 57.9516 1360.72 58.375C1360.92 58.5752 1360.92 58.8972 1360.72 59.0911C1360.57 59.2426 1360.31 59.2709 1360.12 59.1617ZM1343.52 49.0265C1343.31 48.9089 1343.21 48.6556 1343.29 48.4194C1343.38 48.1538 1343.66 48.0116 1343.94 48.1045C1344.46 48.285 1345.03 48.4838 1345.63 48.7205C1345.89 48.8165 1346.03 49.1168 1345.92 49.3741C1345.83 49.6355 1345.53 49.7693 1345.27 49.666C1344.67 49.4359 1344.12 49.2431 1343.6 49.0668C1343.58 49.0514 1343.55 49.0433 1343.52 49.0265ZM1357.5 56.729C1357.47 56.7122 1357.45 56.6968 1357.43 56.677C1356.98 56.2974 1356.52 55.9172 1356.06 55.5613C1355.84 55.3877 1355.8 55.0638 1355.97 54.8457C1356.14 54.6291 1356.46 54.5791 1356.69 54.7545C1357.15 55.1188 1357.62 55.4994 1358.08 55.8985C1358.3 56.0769 1358.33 56.3996 1358.15 56.6135C1357.98 56.8065 1357.71 56.8494 1357.5 56.729ZM1354.77 54.4653C1354.75 54.4499 1354.72 54.4331 1354.7 54.4205C1354.2 54.0811 1353.7 53.7538 1353.22 53.4474C1352.98 53.2987 1352.91 52.981 1353.06 52.7518C1353.21 52.5225 1353.52 52.4381 1353.76 52.594C1354.25 52.9099 1354.76 53.2389 1355.26 53.594C1355.5 53.7573 1355.55 54.0666 1355.39 54.3031C1355.26 54.4946 1354.99 54.5611 1354.77 54.4653ZM1346.86 50.2944C1346.64 50.1698 1346.54 49.9006 1346.64 49.6583C1346.76 49.3965 1347.05 49.2787 1347.31 49.3896C1347.84 49.6136 1348.39 49.856 1348.96 50.1169C1349.21 50.2365 1349.32 50.5315 1349.2 50.789C1349.08 51.0465 1348.79 51.1543 1348.53 51.0347C1347.98 50.7808 1347.44 50.5426 1346.91 50.3228C1346.89 50.314 1346.87 50.3028 1346.86 50.2944ZM1350.19 51.5745C1349.98 51.4353 1349.9 51.1557 1350.01 50.9242C1350.14 50.6709 1350.44 50.5674 1350.69 50.6942C1351.22 50.9501 1351.75 51.2206 1352.3 51.5154C1352.55 51.6496 1352.64 51.9549 1352.5 52.204C1352.37 52.4531 1352.06 52.5452 1351.81 52.4111C1351.28 52.119 1350.75 51.8517 1350.23 51.6011C1350.22 51.5941 1350.2 51.5815 1350.19 51.5745Z" fill="black" fill-opacity="0.15"/>
</g>
<g clip-path="url(#clip32_994_13224)">
<path d="M1383.3 26.8918C1382.48 26.4186 1381.43 26.6994 1380.96 27.5214C1380.48 28.341 1380.76 29.3915 1381.58 29.8647L1395.94 38.1527C1396.76 38.6259 1397.81 38.3464 1398.28 37.5244L1404 27.6212L1410.29 16.7311C1410.76 15.9115 1410.48 14.8611 1409.66 14.3865L1395.3 6.0985C1394.48 5.6253 1393.44 5.90611 1392.96 6.72815C1392.49 7.54775 1392.77 8.59819 1393.59 9.07139L1406.46 16.5026L1401.89 24.4246L1390.5 17.8502C1389.68 17.377 1388.63 17.6579 1388.16 18.4775C1387.68 19.2971 1387.96 20.3475 1388.78 20.8207L1400.17 27.3951L1396.17 34.3254L1383.3 26.8918Z" fill="black" fill-opacity="0.15"/>
</g>
<g clip-path="url(#clip33_994_13224)">
<path d="M1444.1 65.6918L1446.09 42.368C1446.13 41.9173 1445.9 41.486 1445.51 41.2606L1445.45 41.2242C1445.06 40.9988 1444.57 41.0185 1444.2 41.276L1425 54.6598C1424.82 54.7847 1424.68 54.9533 1424.59 55.1487C1424.39 55.6084 1422.89 59.7721 1431.56 64.8472C1431.63 64.9166 1431.71 64.9753 1431.79 65.0243C1440.67 70.1511 1443.58 66.6928 1443.88 66.2819C1444.01 66.1102 1444.09 65.9053 1444.1 65.6918ZM1433.14 63.1133C1433.07 63.0452 1433 62.9879 1432.91 62.9389C1427.13 59.6027 1426.68 57.0956 1426.71 56.3008L1427.32 55.877C1427.4 55.8493 1427.47 55.7996 1427.53 55.7338L1443.57 44.5572L1442.01 62.9065C1441.85 62.72 1441.57 62.6868 1441.37 62.8404C1441.17 62.9989 1441.13 63.293 1441.29 63.4944C1441.52 63.7854 1441.71 64.0704 1441.88 64.3542L1441.83 65.0294C1441.16 65.4522 1438.8 66.3305 1433.14 63.1133Z" fill="black" fill-opacity="0.15"/>
<path d="M1433.23 56.587C1432.75 56.3646 1432.27 56.1638 1431.8 55.9864C1431.55 55.8953 1431.29 56.0161 1431.2 56.2577C1431.12 56.4723 1431.2 56.7148 1431.4 56.8268C1431.42 56.8394 1431.44 56.8496 1431.47 56.8598C1431.92 57.0299 1432.38 57.2233 1432.85 57.4369C1433.08 57.5424 1433.36 57.4398 1433.46 57.208C1433.57 56.9684 1433.48 56.6881 1433.23 56.587Z" fill="black" fill-opacity="0.15"/>
<path d="M1430.31 55.4869C1429.78 55.3359 1429.26 55.2158 1428.77 55.1299C1428.52 55.0871 1428.28 55.2559 1428.23 55.5103C1428.2 55.7077 1428.29 55.8978 1428.46 55.993C1428.51 56.0196 1428.56 56.0389 1428.61 56.0499C1429.07 56.1301 1429.55 56.2406 1430.05 56.3821C1430.3 56.4534 1430.56 56.3083 1430.63 56.0617C1430.7 55.8151 1430.56 55.5581 1430.31 55.4869Z" fill="black" fill-opacity="0.15"/>
<path d="M1440.97 61.7381C1440.62 61.382 1440.23 61.0249 1439.81 60.6765C1439.62 60.5078 1439.32 60.5354 1439.16 60.7312C1438.99 60.9271 1439.02 61.222 1439.21 61.3868C1439.6 61.7164 1439.97 62.056 1440.31 62.3923C1440.34 62.4216 1440.37 62.4475 1440.41 62.4685C1440.59 62.5707 1440.82 62.5456 1440.97 62.3942C1441.15 62.2144 1441.15 61.9209 1440.97 61.7381Z" fill="black" fill-opacity="0.15"/>
<path d="M1438.59 59.713C1438.18 59.415 1437.75 59.1182 1437.31 58.8321C1437.1 58.6916 1436.8 58.7542 1436.66 58.9703C1436.52 59.1863 1436.58 59.4749 1436.8 59.6158C1437.23 59.8924 1437.65 60.1808 1438.04 60.4666C1438.05 60.4775 1438.07 60.4859 1438.08 60.4943C1438.29 60.6119 1438.55 60.5599 1438.69 60.364C1438.84 60.1559 1438.79 59.8671 1438.59 59.713Z" fill="black" fill-opacity="0.15"/>
<path d="M1436.08 57.8627L1435.93 57.7787C1435.51 57.5379 1435.09 57.3481 1434.7 57.1453C1434.47 57.0262 1434.17 57.1474 1434.05 57.3761C1433.94 57.5975 1434.07 57.7798 1434.28 57.9044C1434.29 57.9072 1434.3 57.9114 1434.3 57.9142C1434.67 58.1284 1435.06 58.3524 1435.47 58.5876L1435.61 58.6674C1435.61 58.6688 1435.61 58.6688 1435.61 58.6688C1435.83 58.7962 1436.11 58.7217 1436.24 58.5011C1436.37 58.2794 1436.3 57.9915 1436.08 57.8627Z" fill="black" fill-opacity="0.15"/>
</g>
<g clip-path="url(#clip34_994_13224)">
<path d="M1464.19 26.811C1464.1 27.5269 1464.44 28.2284 1465.07 28.5891L1484.67 39.9081C1485.53 40.4018 1486.62 40.1091 1487.11 39.2537L1489.8 34.6107C1490.29 33.7558 1490 32.6629 1489.14 32.1691C1488.29 31.6754 1487.19 31.968 1486.7 32.8232L1484.91 35.9185L1470.57 27.6406L1481.78 24.5972C1482.68 24.3533 1483.24 23.4617 1483.07 22.547L1480.64 9.37375L1495.34 17.8615L1494.74 18.8933C1494.25 19.7483 1494.54 20.841 1495.4 21.3349C1496.25 21.8287 1497.34 21.5358 1497.84 20.6809L1499.33 18.1013C1499.82 17.2463 1499.53 16.1534 1498.67 15.6597L1479.07 4.34042C1478.46 3.99182 1477.71 4.02635 1477.14 4.42888C1476.57 4.83141 1476.29 5.52832 1476.42 6.21355L1479.26 21.5795L1465.49 25.3166C1464.8 25.5057 1464.28 26.0951 1464.19 26.811Z" fill="black" fill-opacity="0.15"/>
</g>
<g clip-path="url(#clip35_994_13224)">
<path d="M1533.21 48.3276L1532.51 50.6266L1515.19 60.6243C1514.3 61.14 1513.99 62.2809 1514.5 63.1686C1515.02 64.0565 1516.16 64.3622 1517.05 63.8465L1531.16 55.6995L1529.69 61.1689C1529.42 62.1626 1530.01 63.1819 1531 63.4481C1532 63.7146 1533.02 63.1228 1533.29 62.1289L1537.21 47.5885C1537.34 47.1099 1537.25 46.5569 1536.99 46.1217C1536.75 45.6806 1536.34 45.3616 1535.85 45.232L1521.28 41.333C1520.29 41.0665 1519.26 41.6584 1519 42.6523C1518.73 43.6464 1519.32 44.6711 1520.32 44.9373L1525.8 46.4057L1511.68 54.5527C1510.79 55.0682 1510.49 56.2093 1511 57.1025C1511.52 57.9958 1512.66 58.3015 1513.55 57.7858L1530.85 47.7748L1533.21 48.3276Z" fill="black" fill-opacity="0.15"/>
</g>
<g clip-path="url(#clip36_994_13224)">
<path d="M1565.48 29.5982C1564.78 29.1982 1563.9 29.4354 1563.5 30.1282C1563.1 30.821 1563.34 31.707 1564.03 32.107L1573.64 37.6586C1574.34 38.0586 1575.22 37.8214 1575.62 37.1283C1576.02 36.4356 1575.79 35.55 1575.09 35.1499L1565.48 29.5982Z" fill="black" fill-opacity="0.15"/>
<path d="M1558.62 10.5856C1558.22 11.2785 1558.45 12.164 1559.15 12.5641L1562.49 14.4951L1560.56 17.84C1560.16 18.5327 1560.4 19.4185 1561.09 19.8185C1561.78 20.2185 1562.67 19.9813 1563.07 19.2883L1565 15.9434L1568.76 18.1159C1569.45 18.5159 1570.34 18.2786 1570.74 17.5858C1571.14 16.893 1570.9 16.0073 1570.21 15.6073L1566.45 13.4348L1568.86 9.25394C1569.26 8.56111 1569.02 7.67554 1568.33 7.27553C1567.64 6.87553 1566.75 7.11279 1566.35 7.80562L1563.94 11.9865L1560.59 10.0554C1559.9 9.65565 1559.02 9.89299 1558.62 10.5856Z" fill="black" fill-opacity="0.15"/>
<path d="M1583.84 18.9849C1583.63 18.2122 1582.84 17.7537 1582.07 17.9608L1553.28 25.6741C1552.51 25.8812 1552.05 26.6753 1552.26 27.4476C1552.36 27.834 1552.61 28.1422 1552.93 28.3274C1553.25 28.5124 1553.65 28.5756 1554.03 28.4717L1582.82 20.7592C1583.59 20.5524 1584.05 19.7575 1583.84 18.9849Z" fill="black" fill-opacity="0.15"/>
</g>
<g clip-path="url(#clip37_994_13224)">
<path d="M1666.14 22.6181C1666.82 23.0113 1667.69 22.7783 1668.08 22.0972C1668.48 21.4161 1668.24 20.5457 1667.56 20.1523L1665.36 18.8835L1669.1 17.0151C1669.81 16.6635 1670.09 15.8081 1669.74 15.105C1669.39 14.4016 1668.53 14.1165 1667.83 14.4678L1662.41 17.1771L1655.74 13.3239C1651.61 10.9396 1646.52 11.9907 1644.4 15.667L1643.74 16.809L1643.55 17.1289C1641.92 19.9535 1642.26 23.6607 1644.04 26.3623L1640.87 27.9459C1640.16 28.2977 1639.88 29.153 1640.23 29.8561C1640.36 30.1148 1640.56 30.3173 1640.79 30.4518C1641.19 30.683 1641.7 30.7151 1642.14 30.493L1646.08 28.5238C1646.29 28.6723 1646.5 28.8141 1646.72 28.9417L1658.55 35.7701C1659.23 36.1634 1660.1 35.9302 1660.49 35.2488C1660.88 34.5679 1660.65 33.6973 1659.97 33.304L1649.09 27.0208L1654.17 24.4775L1657.41 26.3465C1658.09 26.7397 1658.96 26.5067 1659.36 25.8254C1659.75 25.1444 1659.52 24.2737 1658.83 23.8804L1657.23 22.9516L1662.31 20.4088L1666.14 22.6181ZM1646.61 25.0746C1645.47 23.5246 1645.04 21.3368 1645.6 19.5269L1651.22 22.7715L1646.61 25.0746ZM1654.27 21.2457L1646.92 17.0029C1648.45 14.4981 1651.92 14.4119 1654.31 15.7898L1659.36 18.7029L1654.27 21.2457Z" fill="black" fill-opacity="0.15"/>
</g>
<g clip-path="url(#clip38_994_13224)">
<path d="M1729.43 16.3505L1730.43 16.9296L1731.32 26.8811C1731.36 27.3481 1731.63 27.7584 1732.03 27.9874C1732.1 28.0325 1732.19 28.0707 1732.28 28.1004C1732.81 28.2829 1733.4 28.1363 1733.78 27.7253L1744.14 16.6241L1754.77 22.7616C1755.45 23.1547 1756.32 22.9218 1756.72 22.2405C1757.11 21.5596 1756.88 20.6887 1756.19 20.2954L1744.58 13.592C1744.01 13.2607 1743.28 13.3694 1742.83 13.8536L1733.87 23.4516L1733.2 15.9398C1733.16 15.4785 1732.9 15.0655 1732.5 14.8335L1730.85 13.8844C1730.17 13.4912 1729.3 13.7244 1728.91 14.4056C1728.51 15.0866 1728.75 15.9573 1729.43 16.3505Z" fill="black" fill-opacity="0.15"/>
<path d="M1738.96 28.8405C1738.61 29.446 1738.84 30.1764 1739.48 30.5439C1739.91 30.7922 1740.4 30.7146 1740.89 30.5296L1743.92 29.2616L1744.33 32.5152C1744.42 33.0972 1744.62 33.513 1745.1 33.7886C1745.71 34.1383 1746.46 34.0023 1746.86 33.3179C1747.04 32.9995 1747.08 32.6392 1746.99 32.164L1746.28 28.4805L1749.74 27.2553C1750.07 27.1269 1750.36 26.9545 1750.56 26.62C1750.91 26.0145 1750.67 25.2837 1750.03 24.916C1749.6 24.6678 1749.11 24.7457 1748.62 24.9308L1745.8 26.1036L1745.44 23.0923C1745.35 22.5099 1745.14 22.0939 1744.67 21.8183C1744.06 21.4688 1743.3 21.6052 1742.91 22.2898C1742.73 22.6078 1742.69 22.9684 1742.77 23.4425L1743.44 26.8847L1739.77 28.2047C1739.43 28.3247 1739.15 28.5059 1738.96 28.8405Z" fill="black" fill-opacity="0.15"/>
</g>
<g clip-path="url(#clip39_994_13224)">
<path d="M1789.62 68.229L1788.44 65.4225C1788.18 64.8108 1787.48 64.5248 1786.87 64.7825C1786.45 64.958 1786.19 65.3423 1786.15 65.7623L1782.47 63.642C1787.05 62.2438 1793.03 57.0737 1800.31 48.2082C1800.73 47.6968 1800.66 46.9405 1800.14 46.5194C1799.63 46.0981 1798.87 46.1735 1798.45 46.6855C1787.82 59.6351 1782.4 61.6091 1780.11 61.6334C1780 61.6344 1779.89 61.6295 1779.79 61.621L1789.07 45.538C1789.18 45.7461 1789.34 45.9215 1789.54 46.0364C1789.75 46.1586 1790 46.2182 1790.26 46.1898C1790.92 46.1205 1791.4 45.5292 1791.33 44.8706L1791.01 41.886C1790.97 41.508 1790.76 41.1716 1790.43 40.9785C1790.11 40.8032 1789.7 40.7584 1789.35 40.906L1786.55 42.0883C1785.94 42.3458 1785.65 43.0495 1785.91 43.66C1786.09 44.1027 1786.52 44.3712 1786.96 44.3898L1777.7 60.4296C1774.92 57.3947 1777.69 44.8663 1780.73 36.4332C1780.95 35.8094 1780.63 35.1212 1780.01 34.897C1779.38 34.6728 1778.7 34.9955 1778.47 35.619C1778.39 35.8504 1776.41 41.3565 1775.15 47.3966C1774.09 52.5022 1773.86 56.3523 1774.48 59.0251L1768.36 55.4944C1767.79 55.163 1767.05 55.3597 1766.72 55.9336C1766.39 56.5076 1766.59 57.2415 1767.16 57.5729L1785.07 67.91C1784.59 68.1106 1784.28 68.5981 1784.34 69.136C1784.38 69.5336 1784.61 69.8642 1784.93 70.0497C1785.14 70.1722 1785.39 70.231 1785.66 70.2029L1788.64 69.8877C1789.02 69.848 1789.36 69.6315 1789.55 69.3051C1789.74 68.9775 1789.77 68.579 1789.62 68.229Z" fill="black" fill-opacity="0.15"/>
</g>
<g clip-path="url(#clip40_994_13224)">
<path d="M1628.6 48.4418L1606.44 35.6485C1605.86 35.3169 1605.12 35.5158 1604.79 36.0902L1593.2 56.1588C1592.87 56.7332 1593.07 57.4753 1593.64 57.807L1615.8 70.6003C1616.38 70.932 1617.12 70.7332 1617.45 70.1588L1629.04 50.0902C1629.37 49.5096 1629.18 48.777 1628.6 48.4418ZM1614.73 56.0474C1614.15 55.7155 1613.41 55.9144 1613.08 56.489L1612.96 56.6968L1612.72 57.1123L1610.63 55.9056L1610.99 55.2824C1611.32 54.7078 1611.12 53.9659 1610.55 53.634C1609.97 53.3024 1609.23 53.5011 1608.9 54.0757L1608.78 54.2834L1608.54 54.699L1605.61 53.0089L1605.97 52.3856C1606.3 51.811 1606.11 51.0689 1605.53 50.7373C1604.96 50.4056 1604.21 50.6043 1603.88 51.1789L1603.76 51.3867L1603.52 51.8022L1599.76 49.6289L1602.89 44.1965L1604.98 45.4032L1604.62 46.0327L1604.5 46.2404C1604.23 46.705 1604.39 47.2929 1604.86 47.5611C1604.89 47.5822 1604.93 47.5938 1604.97 47.6087C1605 47.6359 1605.03 47.6598 1605.06 47.681C1605.64 48.0126 1606.38 47.8139 1606.71 47.2396L1607.07 46.6101L1608.75 47.5768L1608.39 48.2063L1608.27 48.4141C1608 48.8787 1608.16 49.4666 1608.62 49.7347C1608.66 49.7559 1608.69 49.7675 1608.73 49.7824C1608.76 49.8096 1608.79 49.8335 1608.83 49.8547C1609.4 50.1863 1610.14 49.9876 1610.48 49.4132L1610.84 48.7837L1613.77 50.4737L1613.4 51.1032L1613.28 51.3109C1613.01 51.7756 1613.17 52.3636 1613.64 52.6317C1613.67 52.653 1613.71 52.6646 1613.75 52.6797C1613.78 52.7067 1613.81 52.7306 1613.85 52.7518C1614.42 53.0836 1615.16 52.8847 1615.49 52.3103L1615.86 51.6808L1617.95 52.8875L1617.58 53.517L1617.46 53.7248C1617.2 54.1894 1617.35 54.7772 1617.82 55.0454C1617.85 55.0665 1617.89 55.0783 1617.93 55.0931C1617.96 55.1204 1617.99 55.1442 1618.03 55.1655C1618.6 55.497 1619.34 55.2985 1619.67 54.7241L1620.04 54.0943L1622.96 55.7842L1619.83 61.2168L1614.81 58.32L1615.17 57.6967C1615.51 57.1151 1615.3 56.379 1614.73 56.0474ZM1606.28 38.3419L1626.34 49.9284L1624.17 53.6927L1621.24 52.003L1621.61 51.3735C1621.94 50.7991 1621.74 50.0567 1621.17 49.7252C1620.59 49.3934 1619.85 49.5925 1619.52 50.1668L1619.4 50.3746L1619.16 50.7901L1617.07 49.5836L1617.43 48.9543C1617.76 48.3797 1617.56 47.6377 1616.99 47.3059C1616.41 46.9743 1615.67 47.173 1615.34 47.7476L1615.22 47.9554L1614.98 48.3709L1612.05 46.6808L1612.42 46.0513C1612.75 45.4769 1612.55 44.7348 1611.98 44.4032C1611.4 44.0716 1610.66 44.2702 1610.33 44.8446L1610.21 45.0528L1609.97 45.4684L1608.29 44.5016L1608.66 43.8721C1608.99 43.2977 1608.79 42.5556 1608.21 42.2239C1607.64 41.8923 1606.89 42.1094 1606.55 42.6838L1606.44 42.8916L1606.2 43.3071L1604.11 42.1004L1606.28 38.3419ZM1615.96 67.9073L1595.89 56.3207L1598.55 51.7191L1602.32 53.8925L1601.95 54.522L1601.83 54.7297C1601.56 55.1943 1601.72 55.7825 1602.19 56.0506C1602.22 56.0718 1602.26 56.0833 1602.3 56.0983C1602.33 56.1252 1602.36 56.1494 1602.39 56.1705C1602.97 56.5022 1603.71 56.3035 1604.04 55.7291L1604.41 55.0996L1607.33 56.7897L1606.97 57.4192L1606.85 57.6269C1606.58 58.0913 1606.74 58.6795 1607.2 58.9478C1607.24 58.969 1607.27 58.9807 1607.31 58.9954C1607.35 59.0226 1607.37 59.0466 1607.41 59.0677C1607.99 59.3992 1608.73 59.2007 1609.06 58.6263L1609.42 57.9968L1611.51 59.2035L1611.15 59.833L1611.03 60.041C1610.76 60.5054 1610.92 61.0935 1611.38 61.3617C1611.42 61.3828 1611.45 61.3946 1611.49 61.4094C1611.53 61.4365 1611.55 61.4605 1611.59 61.4818C1612.17 61.8134 1612.91 61.6147 1613.24 61.0404L1613.6 60.4109L1618.62 63.3074L1615.96 67.9083L1615.96 67.908L1615.96 67.9073Z" fill="black" fill-opacity="0.15"/>
</g>
<g clip-path="url(#clip41_994_13224)">
<path d="M1715.37 49.8641C1715.37 49.8569 1715.37 49.846 1715.38 49.8317C1715.42 49.6869 1715.45 49.5299 1715.44 49.3709C1715.43 49.33 1715.41 49.2923 1715.41 49.2517C1715.41 49.2109 1715.39 49.1658 1715.38 49.1277C1715.36 49.0715 1715.34 49.0224 1715.32 48.9697C1715.3 48.9428 1715.29 48.9163 1715.28 48.8898C1715.21 48.7752 1715.13 48.6708 1715.04 48.5804L1715.03 48.5765C1714.98 48.5294 1714.92 48.4964 1714.87 48.4635C1714.85 48.4552 1714.85 48.4511 1714.83 48.4429L1714.72 48.3772L1699.52 39.6013C1699.35 39.5066 1699.16 39.4506 1698.97 39.4396L1690.09 39.0385C1689.63 39.0151 1689.21 39.2481 1688.99 39.6401L1679.46 56.1502C1679.12 56.7277 1679.32 57.4692 1679.9 57.8023L1696.99 67.6678C1697.25 67.8203 1697.56 67.8683 1697.86 67.8015L1705.65 66.0022C1705.98 65.9262 1706.26 65.7183 1706.43 65.4336L1715.28 50.0983L1715.29 50.0913C1715.31 50.0118 1715.33 49.9393 1715.37 49.8641ZM1698.71 41.9192L1710.26 48.5841L1707.41 48.8151L1697.97 43.3641L1698.08 43.1789C1698.21 42.9509 1698.14 42.6514 1697.9 42.5156C1697.67 42.3797 1697.37 42.458 1697.24 42.6933L1697.13 42.8968L1694.81 41.5741C1694.81 41.5742 1698.5 41.9326 1698.71 41.9192ZM1683.27 56.4119C1683.27 56.1463 1683.05 55.9342 1682.78 55.9333L1682.36 55.9375L1690.59 41.686L1696.01 44.8424L1695.7 45.3697C1695.57 45.5977 1695.65 45.8972 1695.88 46.033C1696.12 46.1688 1696.41 46.0905 1696.54 45.8552L1696.84 45.335L1705.18 50.1965L1696.78 64.7545L1683.03 56.8184C1683.17 56.7383 1683.27 56.5853 1683.27 56.4119ZM1699.44 64.9504L1707.34 51.2694L1712.02 50.8758L1704.6 63.7235L1703.78 63.2277C1703.55 63.0962 1703.25 63.1772 1703.11 63.4125C1702.98 63.6335 1703.05 63.9212 1703.26 64.0587L1699.44 64.9504Z" fill="black" fill-opacity="0.15"/>
<path d="M1690.94 56.9344L1691.96 57.5268C1692.19 57.6584 1692.49 57.5843 1692.62 57.3566C1692.75 57.1283 1692.68 56.8296 1692.45 56.698L1691.42 56.1014C1691.19 55.9698 1690.89 56.0439 1690.75 56.2786C1690.63 56.4998 1690.71 56.8028 1690.94 56.9344Z" fill="black" fill-opacity="0.15"/>
<path d="M1694.69 48.099C1694.92 48.2306 1695.21 48.1565 1695.35 47.9213L1695.95 46.888C1696.08 46.66 1696 46.3605 1695.77 46.2247C1695.53 46.0889 1695.24 46.1672 1695.11 46.4024L1694.51 47.4357C1694.38 47.6637 1694.45 47.9632 1694.69 48.099Z" fill="black" fill-opacity="0.15"/>
<path d="M1702.74 62.6568L1701.71 62.0458C1701.49 61.9141 1701.18 61.9952 1701.05 62.2235C1700.92 62.4512 1700.99 62.7578 1701.22 62.8935L1702.27 63.4756C1702.49 63.6072 1702.79 63.5398 1702.92 63.312C1703.05 63.0843 1702.97 62.7885 1702.74 62.6568Z" fill="black" fill-opacity="0.15"/>
<path d="M1692.31 52.2176C1692.54 52.3493 1692.84 52.2749 1692.97 52.0402L1693.57 51.0069C1693.7 50.7789 1693.63 50.4794 1693.39 50.3436C1693.16 50.2078 1692.86 50.2861 1692.73 50.5213L1692.13 51.5546C1692 51.7826 1692.07 52.0818 1692.31 52.2176Z" fill="black" fill-opacity="0.15"/>
<path d="M1691.12 54.277C1691.35 54.4086 1691.65 54.3345 1691.78 54.0992L1692.38 53.0662C1692.51 52.8382 1692.44 52.5388 1692.2 52.4029C1691.97 52.2671 1691.68 52.3457 1691.54 52.5807L1690.94 53.6137C1690.81 53.8419 1690.89 54.1411 1691.12 54.277Z" fill="black" fill-opacity="0.15"/>
<path d="M1693.5 50.1583C1693.73 50.29 1694.03 50.2159 1694.16 49.9806L1694.76 48.9473C1694.89 48.7193 1694.82 48.4199 1694.58 48.284C1694.35 48.1482 1694.05 48.2265 1693.92 48.4618L1693.32 49.495C1693.19 49.7233 1693.26 50.0225 1693.5 50.1583Z" fill="black" fill-opacity="0.15"/>
<path d="M1697.11 60.509L1698.15 61.0986C1698.37 61.2304 1698.67 61.1631 1698.81 60.9278C1698.94 60.7001 1698.86 60.4075 1698.62 60.2718L1697.59 59.6685C1697.37 59.537 1697.06 59.618 1696.93 59.846C1696.81 60.0774 1696.88 60.3775 1697.11 60.509Z" fill="black" fill-opacity="0.15"/>
<path d="M1695.05 59.3125L1696.09 59.902C1696.32 60.0338 1696.62 59.9596 1696.75 59.7316C1696.88 59.5033 1696.8 59.2109 1696.57 59.0753L1695.54 58.4723C1695.31 58.3405 1695.01 58.4215 1694.88 58.6497C1694.74 58.8845 1694.83 59.1809 1695.05 59.3125Z" fill="black" fill-opacity="0.15"/>
<path d="M1693 58.1234L1694.03 58.72C1694.26 58.8516 1694.56 58.7775 1694.69 58.5498C1694.82 58.3215 1694.74 58.0294 1694.51 57.8935L1693.48 57.2899C1693.25 57.1583 1692.95 57.2324 1692.81 57.4676C1692.68 57.6954 1692.77 57.9918 1693 58.1234Z" fill="black" fill-opacity="0.15"/>
<path d="M1688.49 56.7772C1688.56 56.8184 1688.64 56.8382 1688.74 56.8431L1689.92 56.8336C1690.19 56.8348 1690.4 56.6149 1690.4 56.3496L1690.4 56.3389C1690.47 56.2953 1690.54 56.2407 1690.58 56.1622L1691.18 55.1289C1691.31 54.9009 1691.24 54.602 1691 54.4662C1690.77 54.3303 1690.48 54.4086 1690.34 54.6434L1689.74 55.6767C1689.71 55.7407 1689.69 55.8064 1689.68 55.8679L1688.71 55.8796C1688.45 55.8784 1688.24 56.0983 1688.23 56.3635C1688.25 56.5413 1688.35 56.6948 1688.49 56.7772Z" fill="black" fill-opacity="0.15"/>
<path d="M1683.73 56.8233C1683.8 56.8644 1683.89 56.8841 1683.98 56.8892L1685.16 56.879C1685.43 56.8807 1685.64 56.6608 1685.64 56.3957C1685.64 56.1301 1685.42 55.9181 1685.16 55.9171L1683.97 55.9273C1683.71 55.9254 1683.5 56.1455 1683.49 56.4108C1683.5 56.5842 1683.59 56.741 1683.73 56.8233Z" fill="black" fill-opacity="0.15"/>
<path d="M1686.11 56.8C1686.18 56.8411 1686.27 56.861 1686.36 56.8659L1687.54 56.8557C1687.81 56.8574 1688.02 56.6375 1688.02 56.3724C1688.02 56.1069 1687.8 55.8948 1687.54 55.8936L1686.35 55.9039C1686.09 55.9022 1685.87 56.1221 1685.87 56.3876C1685.88 56.5609 1685.97 56.7177 1686.11 56.8Z" fill="black" fill-opacity="0.15"/>
</g>
</g>
<defs>
<filter id="filter0_d_994_13224" x="0" y="0" width="1809" height="82" filterUnits="userSpaceOnUse" color-interpolation-filters="sRGB">
<feFlood flood-opacity="0" result="BackgroundImageFix"/>
<feColorMatrix in="SourceAlpha" type="matrix" values="0 0 0 0 0 0 0 0 0 0 0 0 0 0 0 0 0 0 127 0" result="hardAlpha"/>
<feOffset dy="3"/>
<feGaussianBlur stdDeviation="3"/>
<feComposite in2="hardAlpha" operator="out"/>
<feColorMatrix type="matrix" values="0 0 0 0 0 0 0 0 0 0 0 0 0 0 0 0 0 0 0.25 0"/>
<feBlend mode="normal" in2="BackgroundImageFix" result="effect1_dropShadow_994_13224"/>
<feBlend mode="normal" in="SourceGraphic" in2="effect1_dropShadow_994_13224" result="shape"/>
</filter>
<linearGradient id="paint0_linear_994_13224" x1="1797" y1="34.9999" x2="1.26778e-05" y2="35.0006" gradientUnits="userSpaceOnUse">
<stop stop-color="#2378C3"/>
<stop offset="1" stop-color="#2C608A"/>
</linearGradient>
<clipPath id="clip0_994_13224">
<rect width="28" height="28" fill="white" transform="translate(20 3) rotate(30)"/>
</clipPath>
<clipPath id="clip1_994_13224">
<rect width="28" height="28" fill="white" transform="translate(63 34) rotate(30)"/>
</clipPath>
<clipPath id="clip2_994_13224">
<rect width="28" height="28" fill="white" transform="translate(106.249 3) rotate(30)"/>
</clipPath>
<clipPath id="clip3_994_13224">
<rect width="28" height="28" fill="white" transform="translate(149.249 34) rotate(30)"/>
</clipPath>
<clipPath id="clip4_994_13224">
<rect width="28" height="28" fill="white" transform="translate(192.498 3) rotate(30)"/>
</clipPath>
<clipPath id="clip5_994_13224">
<rect width="28" height="28" fill="white" transform="translate(235.498 34) rotate(30)"/>
</clipPath>
<clipPath id="clip6_994_13224">
<rect width="28.0002" height="28" fill="white" transform="translate(278.746 3) rotate(30)"/>
</clipPath>
<clipPath id="clip7_994_13224">
<rect width="28" height="28" fill="white" transform="translate(307.746 48) rotate(-30)"/>
</clipPath>
<clipPath id="clip8_994_13224">
<rect width="28" height="28" fill="white" transform="translate(364.995 3) rotate(30)"/>
</clipPath>
<clipPath id="clip9_994_13224">
<rect width="28" height="28" fill="white" transform="translate(451.244 3) rotate(30)"/>
</clipPath>
<clipPath id="clip10_994_13224">
<rect width="28" height="28" fill="white" transform="translate(537.493 3) rotate(30)"/>
</clipPath>
<clipPath id="clip11_994_13224">
<rect width="28" height="28" fill="white" transform="translate(580.492 34) rotate(30)"/>
</clipPath>
<clipPath id="clip12_994_13224">
<rect width="28" height="28" fill="white" transform="translate(407.995 34) rotate(30)"/>
</clipPath>
<clipPath id="clip13_994_13224">
<rect width="28" height="28" fill="white" transform="translate(494.244 34) rotate(30)"/>
</clipPath>
<clipPath id="clip14_994_13224">
<rect width="28" height="28" fill="white" transform="translate(619 3) rotate(30)"/>
</clipPath>
<clipPath id="clip15_994_13224">
<rect width="28" height="28" fill="white" transform="translate(662 34) rotate(30)"/>
</clipPath>
<clipPath id="clip16_994_13224">
<rect width="28" height="28" fill="white" transform="translate(705.249 3) rotate(30)"/>
</clipPath>
<clipPath id="clip17_994_13224">
<rect width="28" height="28" fill="white" transform="translate(748.249 34) rotate(30)"/>
</clipPath>
<clipPath id="clip18_994_13224">
<rect width="28" height="28" fill="white" transform="translate(791.498 3) rotate(30)"/>
</clipPath>
<clipPath id="clip19_994_13224">
<rect width="28" height="28" fill="white" transform="translate(834.498 34) rotate(30)"/>
</clipPath>
<clipPath id="clip20_994_13224">
<rect width="28.0002" height="28" fill="white" transform="translate(877.746 3) rotate(30)"/>
</clipPath>
<clipPath id="clip21_994_13224">
<rect width="28" height="28" fill="white" transform="translate(906.746 48) rotate(-30)"/>
</clipPath>
<clipPath id="clip22_994_13224">
<rect width="28" height="28" fill="white" transform="translate(963.995 3) rotate(30)"/>
</clipPath>
<clipPath id="clip23_994_13224">
<rect width="28" height="28" fill="white" transform="translate(1050.24 3) rotate(30)"/>
</clipPath>
<clipPath id="clip24_994_13224">
<rect width="28" height="28" fill="white" transform="translate(1136.49 3) rotate(30)"/>
</clipPath>
<clipPath id="clip25_994_13224">
<rect width="28" height="28" fill="white" transform="translate(1179.49 34) rotate(30)"/>
</clipPath>
<clipPath id="clip26_994_13224">
<rect width="28" height="28" fill="white" transform="translate(1007 34) rotate(30)"/>
</clipPath>
<clipPath id="clip27_994_13224">
<rect width="28" height="28" fill="white" transform="translate(1093.24 34) rotate(30)"/>
</clipPath>
<clipPath id="clip28_994_13224">
<rect width="28" height="28" fill="white" transform="translate(1218 3) rotate(30)"/>
</clipPath>
<clipPath id="clip29_994_13224">
<rect width="28" height="28" fill="white" transform="translate(1261 34) rotate(30)"/>
</clipPath>
<clipPath id="clip30_994_13224">
<rect width="28" height="28" fill="white" transform="translate(1304.25 3) rotate(30)"/>
</clipPath>
<clipPath id="clip31_994_13224">
<rect width="28" height="28" fill="white" transform="translate(1347.25 34) rotate(30)"/>
</clipPath>
<clipPath id="clip32_994_13224">
<rect width="28" height="28" fill="white" transform="translate(1390.5 3) rotate(30)"/>
</clipPath>
<clipPath id="clip33_994_13224">
<rect width="28" height="28" fill="white" transform="translate(1433.5 34) rotate(30)"/>
</clipPath>
<clipPath id="clip34_994_13224">
<rect width="28.0002" height="28" fill="white" transform="translate(1476.75 3) rotate(30)"/>
</clipPath>
<clipPath id="clip35_994_13224">
<rect width="28" height="28" fill="white" transform="translate(1505.75 48) rotate(-30)"/>
</clipPath>
<clipPath id="clip36_994_13224">
<rect width="28" height="28" fill="white" transform="translate(1563 3) rotate(30)"/>
</clipPath>
<clipPath id="clip37_994_13224">
<rect width="28" height="28" fill="white" transform="translate(1649.24 3) rotate(30)"/>
</clipPath>
<clipPath id="clip38_994_13224">
<rect width="28" height="28" fill="white" transform="translate(1735.49 3) rotate(30)"/>
</clipPath>
<clipPath id="clip39_994_13224">
<rect width="28" height="28" fill="white" transform="translate(1778.49 34) rotate(30)"/>
</clipPath>
<clipPath id="clip40_994_13224">
<rect width="28" height="28" fill="white" transform="translate(1606 34) rotate(30)"/>
</clipPath>
<clipPath id="clip41_994_13224">
<rect width="28" height="28" fill="white" transform="translate(1692.24 34) rotate(30)"/>
</clipPath>
</defs>
</svg>
