<svg width="1797" height="70" viewBox="0 0 1797 70" fill="none" xmlns="http://www.w3.org/2000/svg">
<rect width="1797" height="70" fill="url(#paint0_linear_994_13224)"/>
<g clip-path="url(#clip0_994_13224)">
<path d="M24.0143 6.57764C23.8145 5.83179 23.0506 5.39079 22.3072 5.59204C12.2822 8.27823 6.30982 18.6227 8.99601 28.6477C9.09542 29.0187 9.33721 29.3167 9.64517 29.4945C9.95312 29.6723 10.3321 29.7327 10.7031 29.6333C11.449 29.4335 11.89 28.6696 11.6887 27.9262C9.40018 19.3853 14.4878 10.5733 23.0287 8.28475C23.7732 8.08732 24.2156 7.32106 24.0143 6.57764Z" fill="black" fill-opacity="0.12"/>
<path d="M14.2338 31.6717C14.3332 32.0427 14.575 32.3407 14.883 32.5185C15.1909 32.6963 15.5699 32.7567 15.9409 32.6573C25.9659 29.9711 31.9383 19.6266 29.2521 9.60163C29.0547 8.85718 28.2884 8.41478 27.545 8.61603C26.8005 8.81345 26.3581 9.57971 26.5594 10.3231C28.8479 18.8641 23.7617 27.6736 15.2194 29.9646C14.4749 30.162 14.0325 30.9283 14.2338 31.6717Z" fill="black" fill-opacity="0.12"/>
</g>
<g clip-path="url(#clip1_994_13224)">
<path d="M62.4714 42.0866L76.1477 49.9826C76.9357 50.4376 77.9417 50.168 78.3967 49.38C78.8517 48.5919 78.5821 47.5859 77.7941 47.1309L64.1178 39.2349C59.3408 36.4769 53.4597 37.692 51.0041 41.9452L50.2425 43.2644L50.0283 43.6354C47.4117 48.1674 49.1561 54.6774 53.6906 57.2954L67.3669 65.1914C68.1549 65.6464 69.1609 65.3768 69.6159 64.5888C70.0709 63.8007 69.8013 62.7947 69.0133 62.3397L55.337 54.4437C52.7593 52.9555 51.5116 49.2703 52.3947 46.408L66.054 54.2942C66.842 54.7492 67.848 54.4796 68.303 53.6916C68.758 52.9035 68.4884 51.8975 67.7004 51.4425L53.9247 43.4891C55.6918 40.5908 59.7095 40.492 62.4714 42.0866Z" fill="black" fill-opacity="0.12"/>
</g>
<g clip-path="url(#clip2_994_13224)">
<path d="M111.988 7.10099C107.265 4.37379 103.041 4.07888 101.711 6.38251C101.647 6.49405 101.597 6.614 101.547 6.73394C101.486 6.79549 101.431 6.86748 101.383 6.94993L91.8382 23.4827C91.687 23.7446 91.6481 24.0584 91.7294 24.3543C91.8224 24.686 92.8002 27.7077 98.4816 30.9879L98.5447 31.0243C104.226 34.3045 107.329 33.639 107.666 33.5551C107.961 33.48 108.214 33.2894 108.366 33.0251L117.91 16.4948C117.949 16.4269 117.983 16.3562 118.005 16.2847C118.076 16.1961 118.137 16.1019 118.193 16.0049C119.694 13.4155 116.113 9.48239 111.988 7.10099ZM110.851 9.06999C115.105 11.5256 116.566 14.2803 116.229 14.8647C115.907 15.4224 112.922 15.4515 108.606 12.9595C104.578 10.6341 103.274 8.22252 103.679 7.52173C104.083 6.82095 106.821 6.74319 110.851 9.06999ZM106.688 31.3964C105.788 31.4265 103.452 31.2323 99.6863 29.0581L99.6233 29.0217C95.8914 26.8671 94.5297 24.9138 94.1005 24.1228L94.1733 23.9967C94.247 23.981 94.3206 23.9654 94.402 23.9477C94.6481 23.9022 94.8103 23.6661 94.76 23.4172C94.7402 23.3282 94.6919 23.2551 94.6353 23.1965L102.141 10.1967C103.115 11.7969 104.958 13.4757 107.475 14.9289C109.861 16.3065 112.589 17.3383 114.75 17.4378L107.356 30.2436C107.237 29.9805 107.1 29.7139 106.945 29.4499C106.817 29.234 106.541 29.1647 106.325 29.2923C106.109 29.4198 106.039 29.6966 106.167 29.9125C106.431 30.3624 106.64 30.8127 106.77 31.2596L106.688 31.3964Z" fill="black" fill-opacity="0.12"/>
<path d="M100.675 24.2715C100.17 24.0254 99.659 23.8078 99.1653 23.6327C98.9295 23.5483 98.6712 23.6707 98.582 23.9037C98.5067 24.1125 98.5932 24.3435 98.7824 24.4527C98.8066 24.4667 98.826 24.4779 98.8531 24.487C99.317 24.6579 99.7992 24.8587 100.28 25.0907C100.506 25.2022 100.775 25.1054 100.887 24.8788C100.993 24.6494 100.895 24.3725 100.675 24.2715Z" fill="black" fill-opacity="0.12"/>
<path d="M97.5777 23.1621C97.0108 23.0353 96.4509 22.9578 95.9203 22.9359C95.6675 22.9258 95.4604 23.1166 95.4454 23.3666C95.4349 23.5416 95.5307 23.7003 95.6714 23.7815C95.7296 23.8151 95.801 23.837 95.876 23.8415C96.3538 23.8652 96.8588 23.9369 97.3765 24.0482C97.6214 24.1056 97.8618 23.9469 97.9191 23.702C97.9813 23.4598 97.8254 23.2146 97.5777 23.1621Z" fill="black" fill-opacity="0.12"/>
<path d="M105.957 28.0972C105.61 27.7025 105.215 27.3062 104.786 26.9292C104.597 26.7623 104.313 26.7854 104.146 26.9736C103.979 27.1617 104.002 27.4466 104.19 27.6135C104.591 27.9612 104.958 28.3282 105.277 28.6936C105.312 28.7333 105.353 28.7634 105.392 28.7858C105.557 28.881 105.766 28.8659 105.919 28.7346C106.103 28.5726 106.121 28.2851 105.957 28.0972Z" fill="black" fill-opacity="0.12"/>
<path d="M103.582 25.8335C103.156 25.5294 102.677 25.2335 102.171 24.9673C101.947 24.851 101.674 24.9324 101.558 25.1563C101.441 25.3801 101.523 25.6534 101.747 25.7697C102.216 26.0212 102.659 26.2899 103.051 26.5743C103.091 26.6044 103.138 26.6247 103.187 26.6402C103.37 26.6938 103.571 26.6357 103.687 26.4695C103.834 26.2639 103.789 25.9789 103.582 25.8335Z" fill="black" fill-opacity="0.12"/>
</g>
<g clip-path="url(#clip3_994_13224)">
<path d="M163.501 49.5859C163.846 49.387 164.128 49.1167 164.332 48.7626C166.133 45.6442 159.459 40.6825 155.233 38.2423C151.006 35.8021 143.373 32.5038 141.572 35.6222C141.322 36.0563 141.241 36.5269 141.289 37.0202L140.655 60.8544C140.641 61.3152 140.926 61.6673 141.326 61.8983C141.329 61.8997 141.331 61.9011 141.334 61.9025C141.729 62.1307 142.172 62.2087 142.565 61.9764L163.48 49.5997C163.488 49.5976 163.492 49.5903 163.501 49.5859ZM153.969 40.432C159.529 43.6422 161.881 46.562 162.091 47.4652C161.204 47.7356 157.497 47.1568 151.939 43.948C146.379 40.7378 144.026 37.818 143.814 36.9134C144.701 36.643 148.409 37.2218 153.969 40.432ZM143.201 58.7066L143.692 40.9617C145.674 42.9599 148.496 44.8829 150.673 46.1401C152.829 47.3847 155.867 48.8479 158.567 49.5757L143.201 58.7066Z" fill="black" fill-opacity="0.12"/>
</g>
<g clip-path="url(#clip4_994_13224)">
<path d="M178.61 27.4547C180.552 28.5761 182.584 27.4373 183.479 26.5866C183.494 26.5724 183.507 26.5607 183.522 26.5465C185.916 24.0295 189.719 20.0403 192.501 17.1489L195.483 18.8709C196.043 19.1943 196.761 19.0041 197.086 18.4415C197.409 17.8814 197.219 17.1637 196.657 16.8389L194.178 15.4081C195.058 14.5 195.691 13.8568 195.916 13.6408L196.168 13.4012C197.103 12.509 199.294 10.4176 200.433 11.0756C201.491 11.686 200.709 13.4041 200.67 13.4883C200.394 14.0726 200.637 14.7721 201.224 15.0494C201.809 15.3292 202.507 15.0826 202.787 14.4972C203.407 13.206 203.956 10.4001 201.607 9.04353C198.944 7.50633 195.975 10.3413 194.549 11.7033L194.307 11.9322C194.022 12.2011 193.188 13.0517 192.083 14.1985L188.531 12.1475C187.971 11.8241 187.253 12.0143 186.928 12.5769C186.605 13.137 186.795 13.8547 187.358 14.1795L190.408 15.9407C186.924 19.5677 182.354 24.3689 181.852 24.897C181.704 25.0249 180.634 25.914 179.783 25.4226C178.484 24.6722 178.973 22.5201 178.977 22.5066C179.133 21.8787 178.751 21.2411 178.119 21.0865C177.491 20.9309 176.855 21.3167 176.699 21.9446C176.347 23.3774 176.35 26.1499 178.61 27.4547Z" fill="black" fill-opacity="0.12"/>
<path d="M195.183 33.5314C195.782 33.8772 196.529 33.7427 196.919 33.0661C197.101 32.7509 197.139 32.3944 197.053 31.9276L196.342 28.2871L199.769 27.0778C200.094 26.9518 200.38 26.7808 200.572 26.4486C200.918 25.8497 200.685 25.1269 200.055 24.7629C199.63 24.5179 199.147 24.5943 198.663 24.7772L195.876 25.9359L195.518 22.9614C195.429 22.3866 195.227 21.9755 194.754 21.7025C194.155 21.3567 193.408 21.4913 193.016 22.1703C192.834 22.4855 192.796 22.842 192.882 23.3088L193.54 26.7115L189.913 28.0154C189.573 28.133 189.302 28.3124 189.11 28.6446C188.764 29.2436 188.998 29.9639 189.629 30.3279C190.053 30.5729 190.539 30.4979 191.021 30.3136L194.01 29.0617L194.42 32.2764C194.508 32.8474 194.71 33.2584 195.183 33.5314Z" fill="black" fill-opacity="0.12"/>
</g>
<g clip-path="url(#clip5_994_13224)">
<path d="M236.515 61.282L238.784 49.0744C239.052 49.0315 239.266 48.8386 239.362 48.6901L242.233 43.7167C242.298 43.6051 242.257 43.4685 242.15 43.4069L240.761 42.6047L242.241 40.0416C242.766 39.1322 242.21 38.6724 242.151 38.6287L240.81 37.8545C240.524 37.7344 239.876 37.6968 239.452 38.4316C239.133 38.9844 238.359 40.3254 237.972 40.9947L236.575 40.1883C236.464 40.1239 236.327 40.1646 236.266 40.2713L236.152 40.4677L233.393 45.2471C233.384 45.2617 233.373 45.2811 233.372 45.2998C233.371 45.3186 233.275 45.664 233.405 45.9817L223.99 54.0798C223.963 54.1096 223.316 54.8096 223.341 56.043L223.267 57.2867L222.564 58.0837C222.204 58.4999 222.18 58.57 222.194 58.6913C222.2 58.7594 222.246 58.8249 222.309 58.8613C222.484 58.9621 222.636 58.8269 222.878 58.6044L223.269 58.2515C223.294 58.2756 223.309 58.2941 223.346 58.3151C223.427 58.3526 223.526 58.3447 223.593 58.2898L235.12 48.8921L235.425 49.0685L235.459 49.0881L233.088 63.752C233.069 63.845 233.112 63.9341 233.189 63.9789C233.248 64.0226 233.338 64.0292 233.401 63.9979L233.284 64.6382C233.274 64.7065 233.287 64.7788 233.334 64.8256C233.345 64.8412 233.462 64.9737 233.629 65.0703C233.915 65.2355 234.203 65.2077 234.416 64.9846C234.444 64.9524 234.468 64.9112 234.473 64.8688L234.851 63.0375L235.123 62.8581C236.229 62.2646 236.497 61.3462 236.515 61.282Z" fill="black" fill-opacity="0.12"/>
</g>
<g clip-path="url(#clip6_994_13224)">
<path d="M263.515 22.647L272.96 28.1001C272.596 28.4006 272.203 28.6944 271.786 28.9867C271.106 29.4578 270.936 30.3909 271.406 31.0664C271.537 31.2549 271.7 31.4039 271.891 31.5145C272.376 31.7945 273.004 31.7883 273.493 31.4501C274.318 30.8786 275.057 30.2933 275.708 29.6863L281.998 33.3179C282.716 33.7323 283.629 33.4836 284.04 32.7707C284.452 32.0577 284.205 31.1422 283.492 30.7306L277.708 27.3916C278.752 25.8473 279.293 24.2163 279.306 22.5073C279.318 21.2272 279.023 20.0353 278.568 18.9581L293.455 15.2214C294.253 15.0034 294.719 14.1796 294.501 13.3812C294.283 12.5829 293.459 12.1169 292.661 12.335L277.014 16.2793C275.53 14.2973 273.848 13.0774 273.722 12.9882C273.047 12.5112 272.122 12.6626 271.638 13.3335C271.153 14.0044 271.308 14.9408 271.98 15.4227C271.997 15.4325 272.888 16.0894 273.851 17.1495L263.864 19.9094C263.284 20.069 262.855 20.5652 262.771 21.1635C262.702 21.7602 262.994 22.346 263.515 22.647ZM275.66 19.762C276.056 20.5986 276.321 21.524 276.31 22.4943C276.301 23.6466 275.893 24.7787 275.106 25.8793L268.11 21.8402L275.66 19.762Z" fill="black" fill-opacity="0.12"/>
</g>
<g clip-path="url(#clip7_994_13224)">
<path d="M327.729 62.0036C334.281 58.2208 336.534 49.8138 332.751 43.2618C328.968 36.7098 320.565 34.4644 314.013 38.2472C307.461 42.03 305.209 50.437 308.987 56.9818C312.766 63.5265 321.177 65.7864 327.729 62.0036ZM315.174 40.2574C320.225 37.3412 326.598 38.7475 329.993 43.3057C329.994 43.3244 330.603 44.2011 330.732 44.4241C330.741 44.4387 330.752 44.4581 330.76 44.4726C329.605 46.1351 326.721 49.8307 322.209 52.4361C317.689 55.0457 313.035 55.6926 311.036 55.8602C311.028 55.8457 311.021 55.8336 311.012 55.819C310.884 55.5959 310.428 54.6109 310.401 54.5975C308.153 49.3772 310.13 43.1694 315.174 40.2574ZM322.684 53.2644C327.048 50.7444 329.906 47.3163 331.263 45.4435C333.643 50.7098 331.683 57.0471 326.571 59.9983C321.457 62.9509 314.991 61.4786 311.621 56.7835C313.905 56.5449 318.312 55.7886 322.684 53.2644Z" fill="black" fill-opacity="0.12"/>
<path d="M326.884 44.3281C327.478 44.1983 328.088 44.089 328.687 43.9953C328.748 43.9892 328.801 43.9684 328.856 43.9362C329.024 43.8396 329.123 43.653 329.09 43.4556C329.054 43.198 328.806 43.0147 328.549 43.0502C327.933 43.1436 327.306 43.2565 326.685 43.3892C326.428 43.4434 326.267 43.6953 326.321 43.9517C326.376 44.2206 326.628 44.3824 326.884 44.3281Z" fill="black" fill-opacity="0.12"/>
<path d="M320.009 46.7959C320.539 46.5196 321.093 46.2542 321.657 46.0034C321.671 45.995 321.686 45.9866 321.705 45.9754C321.914 45.855 322 45.6014 321.907 45.3736C321.805 45.1352 321.516 45.0208 321.282 45.1302C320.7 45.3821 320.126 45.6587 319.575 45.9477C319.336 46.0661 319.252 46.3572 319.378 46.5918C319.496 46.8243 319.779 46.9126 320.009 46.7959Z" fill="black" fill-opacity="0.12"/>
<path d="M323.365 45.3283C323.938 45.1271 324.519 44.9405 325.108 44.7684C325.146 44.756 325.187 44.7423 325.221 44.7227C325.403 44.6177 325.497 44.395 325.436 44.1779C325.363 43.9226 325.101 43.7765 324.846 43.8495C324.238 44.0227 323.631 44.2147 323.044 44.4243C322.797 44.5119 322.665 44.782 322.75 45.0303C322.837 45.2873 323.115 45.4149 323.365 45.3283Z" fill="black" fill-opacity="0.12"/>
<path d="M316.88 48.7622C316.895 48.7538 316.909 48.7454 316.929 48.7342C317.416 48.3687 317.923 48.0209 318.427 47.7009C318.653 47.5606 318.719 47.2707 318.578 47.0445C318.438 46.8183 318.144 46.7457 317.922 46.8932C317.396 47.2258 316.87 47.5849 316.36 47.9629C316.154 48.1208 316.103 48.4187 316.259 48.6264C316.402 48.8348 316.672 48.8826 316.88 48.7622Z" fill="black" fill-opacity="0.12"/>
<path d="M314.044 51.1752C314.078 51.1556 314.11 51.1273 314.14 51.1004C314.58 50.6689 315.032 50.2591 315.497 49.8712C315.696 49.7012 315.718 49.3975 315.545 49.1996C315.375 49.0004 315.075 48.967 314.874 49.1509C314.399 49.5545 313.929 49.9841 313.475 50.4241C313.284 50.6086 313.279 50.9087 313.464 51.0996C313.615 51.2549 313.855 51.2844 314.044 51.1752Z" fill="black" fill-opacity="0.12"/>
<path d="M311.548 53.929C311.596 53.901 311.648 53.8615 311.684 53.8117C312.06 53.3325 312.461 52.8681 312.871 52.4182C313.046 52.2233 313.032 51.9243 312.839 51.7477C312.633 51.5694 312.334 51.5836 312.159 51.7785C311.731 52.2483 311.324 52.7356 310.933 53.2232C310.774 53.4285 310.803 53.7253 311.014 53.8945C311.168 54.0158 311.378 54.027 311.548 53.929Z" fill="black" fill-opacity="0.12"/>
</g>
<g clip-path="url(#clip8_994_13224)">
<path d="M351.606 18.1235C351.539 18.7893 351.879 19.4031 352.423 19.7167C352.619 19.8301 352.844 19.9051 353.082 19.9294L375.012 22.1088C375.676 22.1749 376.311 21.8367 376.629 21.2512C376.946 20.6643 376.878 19.9464 376.459 19.4295L362.921 2.71548C362.345 2.00477 361.307 1.89735 360.601 2.47211C359.891 3.04547 359.782 4.08515 360.357 4.79204L371.406 18.4325L353.411 16.6437C352.503 16.5528 351.697 17.2157 351.606 18.1235Z" fill="black" fill-opacity="0.12"/>
<path d="M373.209 26.8842C373.302 25.9778 372.641 25.1691 371.735 25.0758L349.378 22.8119C348.47 22.721 347.663 23.3801 347.57 24.2865C347.502 24.9523 347.842 25.5685 348.387 25.8835C348.584 25.9969 348.806 26.0705 349.044 26.0948L371.399 28.3612C372.307 28.452 373.118 27.792 373.209 26.8842Z" fill="black" fill-opacity="0.12"/>
</g>
<g clip-path="url(#clip9_994_13224)">
<path d="M455.479 37.3095C455.841 37.1305 456.088 36.7816 456.138 36.3806L459.486 9.38007C459.546 8.90072 459.311 8.42873 458.894 8.18793L448.904 2.41993L448.879 2.40593C448.841 2.38353 448.8 2.36981 448.76 2.34983C448.734 2.33826 448.71 2.32426 448.683 2.31511C448.613 2.29083 448.538 2.27001 448.46 2.25785C448.458 2.25645 448.456 2.25505 448.452 2.25608C448.434 2.25253 448.417 2.25523 448.402 2.25308C448.345 2.24588 448.288 2.2425 448.232 2.24537C448.201 2.24732 448.17 2.2517 448.142 2.25505C448.098 2.25867 448.055 2.26612 448.01 2.27599C447.98 2.28419 447.949 2.29239 447.917 2.30301C447.877 2.31569 447.836 2.33079 447.798 2.34729C447.768 2.35931 447.741 2.37273 447.713 2.38858C447.675 2.40891 447.64 2.43063 447.603 2.45478C447.577 2.47203 447.55 2.4917 447.526 2.51035C447.494 2.5373 447.462 2.56424 447.433 2.59259C447.409 2.61749 447.385 2.64239 447.359 2.66971C447.35 2.68044 447.34 2.68734 447.331 2.70189L435.214 17.9601C434.88 18.3816 434.865 18.974 435.179 19.4106L443.323 30.7893C443.343 30.8169 443.369 30.8385 443.393 30.865C443.411 30.8887 443.432 30.9138 443.454 30.9327C443.525 31.0059 443.604 31.0709 443.693 31.1227C443.696 31.1241 443.698 31.1255 443.701 31.1269C443.701 31.1269 443.703 31.1283 443.706 31.1297L454.343 37.2715C454.69 37.4779 455.118 37.4923 455.479 37.3095ZM437.663 18.7468L446.418 7.72256L443.548 26.968L437.663 18.7468ZM445.612 29.4565L449.204 5.37715L456.995 9.87535L453.968 34.2809L445.612 29.4565Z" fill="black" fill-opacity="0.12"/>
</g>
<g clip-path="url(#clip10_994_13224)">
<path d="M519.459 24.2426L521.918 25.6622C522.597 26.0542 523.465 25.8216 523.857 25.1426C524.249 24.4636 524.016 23.5954 523.337 23.2034L522.108 22.4936L532.28 4.87451L533.51 5.58431C534.189 5.97631 535.057 5.74366 535.449 5.0647C535.841 4.38574 535.608 3.51749 534.929 3.12549L532.47 1.70589C531.792 1.31389 530.923 1.54654 530.531 2.2255L518.939 22.3034C518.547 22.9824 518.78 23.8506 519.459 24.2426Z" fill="black" fill-opacity="0.12"/>
<path d="M542.703 36.0235L554.295 15.9456C554.687 15.2666 554.454 14.3984 553.775 14.0064L551.317 12.5868C550.638 12.1948 549.769 12.4274 549.377 13.1064C548.985 13.7853 549.218 14.6536 549.897 15.0456L551.126 15.7554L540.954 33.3744L539.725 32.6646C539.046 32.2726 538.177 32.5053 537.785 33.1843C537.393 33.8632 537.626 34.7315 538.305 35.1235L540.764 36.5431C541.443 36.9351 542.311 36.7024 542.703 36.0235Z" fill="black" fill-opacity="0.12"/>
<path d="M525.552 22.0894C525.653 22.4681 525.898 22.7713 526.211 22.9519C526.526 23.1339 526.909 23.1933 527.288 23.0918L535.64 20.8559L537.877 29.2056C537.979 29.5843 538.224 29.8875 538.537 30.0681C538.852 30.2501 539.235 30.3095 539.614 30.208C540.371 30.0051 540.82 29.2267 540.617 28.4694L538.38 20.1197L546.298 17.9982C547.055 17.7953 547.504 17.0169 547.301 16.2596C547.098 15.5023 546.32 15.0529 545.563 15.2558L537.645 17.3773L535.524 9.45979C535.321 8.70247 534.542 8.25307 533.785 8.45599C533.028 8.65892 532.578 9.4373 532.781 10.1946L534.903 18.1121L526.556 20.3508C525.798 20.5537 525.349 21.3321 525.552 22.0894Z" fill="black" fill-opacity="0.12"/>
</g>
<g clip-path="url(#clip11_994_13224)">
<path d="M584.122 43.6923L583.888 43.9191C582.727 45.0111 572.467 55.7932 571.64 56.6668C571.496 56.7873 570.563 57.5455 569.879 57.1507C568.747 56.4969 569.194 54.5467 569.198 54.5394C569.383 53.7991 568.929 53.0518 568.188 52.8669C567.448 52.6819 566.701 53.1363 566.516 53.8767C566.153 55.3452 566.164 58.1997 568.504 59.5507C570.531 60.7211 572.642 59.5445 573.562 58.6626C573.582 58.645 573.6 58.6298 573.609 58.6152C577.425 54.6042 584.882 46.7888 585.78 45.9394L586.03 45.7023C586.76 45.0047 588.979 42.8849 589.952 43.4463C590.805 43.9391 590.108 45.4829 590.087 45.5193C589.763 46.2086 590.045 47.0247 590.739 47.3573C591.424 47.6882 592.254 47.3943 592.585 46.7092C593.224 45.3714 593.785 42.4621 591.334 41.0467C588.567 39.4493 585.568 42.3189 584.122 43.6923Z" fill="black" fill-opacity="0.12"/>
</g>
<g clip-path="url(#clip12_994_13224)">
<path d="M400.532 41.4524C402.215 42.424 404.376 41.845 405.348 40.1621C406.319 38.4792 405.74 36.3182 404.057 35.3466C402.374 34.375 400.213 34.954 399.242 36.6369C398.269 38.3222 398.849 40.4808 400.532 41.4524Z" fill="black" fill-opacity="0.12"/>
<path d="M406.656 53.8398C404.973 52.8682 402.812 53.4472 401.841 55.1301C400.869 56.8129 401.448 58.974 403.131 59.9456C404.814 60.9172 406.975 60.3381 407.946 58.6553C408.918 56.9724 408.339 54.8114 406.656 53.8398Z" fill="black" fill-opacity="0.12"/>
<path d="M389.104 55.1261C389.231 55.3771 389.421 55.5741 389.646 55.7043C390.034 55.9283 390.524 55.959 390.955 55.7452L417.081 42.6815C417.763 42.3411 418.038 41.5108 417.698 40.8293C417.358 40.1478 416.527 39.8722 415.846 40.2126L389.723 53.2753C389.042 53.6157 388.763 54.4446 389.104 55.1261Z" fill="black" fill-opacity="0.12"/>
<path d="M409.406 59.4982C408.435 61.1811 409.014 63.3421 410.696 64.3137C412.382 65.2867 414.54 64.7063 415.512 63.0234C416.484 61.3406 415.905 59.1795 414.222 58.2079C412.539 57.2363 410.378 57.8154 409.406 59.4982Z" fill="black" fill-opacity="0.12"/>
</g>
<g clip-path="url(#clip13_994_13224)">
<path d="M499.389 42.2878L500.665 40.0788C501.044 39.4216 500.82 38.584 500.162 38.2046C499.505 37.8252 498.668 38.0496 498.288 38.7068L497 40.9376C492.75 39.334 487.729 41.1426 485.269 45.4031C482.809 49.6636 483.753 54.9162 487.267 57.7953L485.94 60.0941C485.561 60.7513 485.785 61.5889 486.442 61.9683C487.1 62.3477 487.937 62.1233 488.317 61.4661L489.633 59.1867C493.911 60.8874 499.02 59.0841 501.506 54.7775C503.994 50.4685 503 45.1452 499.389 42.2878ZM487.645 46.7751C489.341 43.8386 492.683 42.49 495.604 43.3552L488.662 55.3802C486.453 53.2806 485.95 49.7116 487.645 46.7751ZM491.02 56.7837L498 44.6933C500.307 46.7749 500.857 50.4195 499.132 53.4069C497.405 56.3929 493.976 57.7401 491.02 56.7837Z" fill="black" fill-opacity="0.12"/>
</g>
<g clip-path="url(#clip14_994_13224)">
<path d="M628.751 15.6066C629.053 15.0834 628.874 14.4145 628.351 14.1125L617.351 7.76172C616.828 7.45968 616.159 7.63891 615.857 8.16206L613.645 11.9936C613.343 12.5167 613.522 13.1857 614.045 13.4877L625.045 19.8384C625.568 20.1405 626.237 19.9612 626.539 19.4381L628.751 15.6066ZM625.192 17.3971L616.086 12.1401L617.205 10.203L626.31 15.46L625.192 17.3971Z" fill="black" fill-opacity="0.12"/>
<path d="M613.96 15.5919L613.204 15.1555C612.681 14.8535 612.012 15.0327 611.71 15.5559C611.408 16.079 611.587 16.7479 612.111 17.0499L612.866 17.4863C613.39 17.7883 614.058 17.6091 614.36 17.086C614.663 16.5628 614.483 15.8939 613.96 15.5919Z" fill="black" fill-opacity="0.12"/>
<path d="M611.899 19.1614L611.143 18.7251C610.62 18.4231 609.951 18.6023 609.649 19.1254C609.347 19.6486 609.527 20.3175 610.05 20.6195L610.805 21.0559C611.329 21.3579 611.998 21.1787 612.3 20.6555C612.602 20.1324 612.422 19.4635 611.899 19.1614Z" fill="black" fill-opacity="0.12"/>
<path d="M609.838 22.731L609.083 22.2947C608.559 21.9926 607.89 22.1719 607.588 22.695C607.286 23.2182 607.466 23.8871 607.989 24.1891L608.745 24.6255C609.268 24.9275 609.937 24.7483 610.239 24.2251C610.541 23.702 610.361 23.0331 609.838 22.731Z" fill="black" fill-opacity="0.12"/>
<path d="M618.991 18.4964L618.235 18.0601C617.712 17.758 617.043 17.9372 616.741 18.4604C616.439 18.9835 616.618 19.6524 617.141 19.9545L617.897 20.3908C618.42 20.6928 619.089 20.5136 619.391 19.9905C619.693 19.4673 619.514 18.7984 618.991 18.4964Z" fill="black" fill-opacity="0.12"/>
<path d="M616.93 22.066L616.174 21.6296C615.651 21.3276 614.982 21.5068 614.68 22.03C614.378 22.5531 614.557 23.222 615.081 23.5241L615.836 23.9604C616.359 24.2624 617.028 24.0832 617.33 23.5601C617.632 23.0369 617.453 22.368 616.93 22.066Z" fill="black" fill-opacity="0.12"/>
<path d="M614.869 25.6355L614.113 25.1992C613.59 24.8972 612.921 25.0764 612.619 25.5996C612.317 26.1227 612.496 26.7916 613.02 27.0936L613.775 27.53C614.298 27.832 614.967 27.6528 615.269 27.1296C615.571 26.6065 615.392 25.9376 614.869 25.6355Z" fill="black" fill-opacity="0.12"/>
<path d="M624.422 22.8948C624.724 22.3716 624.545 21.7027 624.022 21.4007L623.266 20.9644C622.743 20.6623 622.074 20.8415 621.772 21.3647C621.47 21.8878 621.649 22.5567 622.172 22.8588L622.928 23.2951C623.451 23.5972 624.12 23.4179 624.422 22.8948Z" fill="black" fill-opacity="0.12"/>
<path d="M620.008 25.2922L618.028 28.7223C617.726 29.2454 617.905 29.9143 618.428 30.2164C618.951 30.5184 619.62 30.3392 619.922 29.816L621.903 26.3859C622.205 25.8628 622.025 25.1939 621.502 24.8918C620.979 24.5898 620.31 24.769 620.008 25.2922Z" fill="black" fill-opacity="0.12"/>
<path d="M624.951 29.1899C625.474 29.492 626.143 29.3127 626.445 28.7896L633.362 16.8081C634.568 14.7189 633.85 12.0379 631.761 10.8317L618.488 3.16846C616.399 1.96227 613.718 2.68064 612.511 4.76982L602.886 21.4408C601.68 23.53 602.399 26.211 604.488 27.4172L617.761 35.0804C619.85 36.2866 622.531 35.5682 623.738 33.4783C624.04 32.9552 623.86 32.2866 623.337 31.9846C622.814 31.6825 622.145 31.8622 621.843 32.3853C621.24 33.4299 619.899 33.7891 618.855 33.186L605.581 25.5227C604.537 24.9196 604.178 23.5791 604.781 22.5346L614.406 5.86357C615.009 4.81898 616.349 4.45979 617.394 5.06289L630.667 12.7261C631.712 13.3292 632.071 14.6697 631.468 15.7143L624.55 27.6958C624.248 28.219 624.427 28.8879 624.951 29.1899V29.1899Z" fill="black" fill-opacity="0.12"/>
</g>
<g clip-path="url(#clip15_994_13224)">
<path d="M654.943 61.0445C660.766 64.4065 667.707 66.7221 669.477 63.6568C669.572 63.4928 669.835 63.0364 669.839 63.0296L676.596 51.3259C676.613 51.2974 676.872 50.8483 676.975 50.6702C678.745 47.6052 673.314 42.6736 667.491 39.3116C659.054 34.4506 653.94 34.5675 652.697 36.7202C652.599 36.8913 652.371 37.3019 652.355 37.3301L645.841 48.6134C645.837 48.6204 645.43 49.3077 645.245 49.6286C643.356 52.9001 649.954 58.1638 654.943 61.0445ZM653.266 40.5744C654.617 42.7609 657.498 45.4413 662.338 48.2356C666.052 50.3797 670.28 52.0607 673.306 52.2014L669.01 59.6425C667.367 57.0886 663.805 54.2709 660.092 52.1268C656.841 50.2502 652.273 48.2873 648.961 48.0478C648.958 48.037 653.266 40.5744 653.266 40.5744ZM656.125 58.9984C649.325 55.0724 646.798 51.2185 647.156 50.5988C647.514 49.9786 652.115 50.2399 658.915 54.1658C665.437 57.9315 667.966 61.6822 667.562 62.3807C667.159 63.0791 662.646 62.7638 656.125 58.9984ZM666.31 41.3573C672.832 45.1229 675.361 48.8734 674.958 49.5718C674.554 50.2703 670.042 49.9552 663.52 46.1898C656.812 42.3173 654.328 38.4881 654.686 37.8681C655.044 37.2482 659.595 37.4806 666.31 41.3573Z" fill="black" fill-opacity="0.12"/>
</g>
<g clip-path="url(#clip16_994_13224)">
<path d="M706.994 30.1394C705.093 25.4306 713.971 15.7006 713.971 15.7006C713.971 15.7006 717.763 17.89 718.205 18.1451C718.647 18.4002 720.54 19.1226 721.737 17.0481C723.211 14.4962 721.003 13.4307 721.003 13.4307C721.003 13.4307 709.398 6.73073 705.414 4.43032C702.855 2.95293 698.854 4.5493 696.318 5.87939C694.967 6.59108 695.185 7.13514 696.701 7.30741C702.024 7.89989 702.834 9.26121 702.834 9.26121C702.306 10.8668 698.674 17.3898 696.11 19.3119C693.618 21.0764 689.822 22.943 691.783 26.4605C693.356 29.1361 697.38 27.8287 699.812 23.0554C701.114 20.5374 706.23 11.2312 706.23 11.2312L710.137 13.4866C709.188 14.8491 704.303 21.78 702.492 26.5134C699.035 34.164 707.708 37.2991 711.542 34.0486C712.56 33.125 712.977 32.2059 713.085 31.3934C713.289 29.8865 712.492 29.341 712.256 29.9646C712.103 30.3611 711.862 30.6968 711.619 30.9849C710.876 31.8768 707.955 32.2617 706.994 30.1394Z" fill="black" fill-opacity="0.12"/>
</g>
<g clip-path="url(#clip17_994_13224)">
<path d="M757.355 48.0355C753.914 46.0493 750.014 47.5476 746.572 48.8701C743.632 49.9997 740.856 51.0664 738.882 49.9269C736.83 48.7425 736.788 45.9068 737.661 44.3953C738.47 42.9939 741.028 41.755 743.193 43.0053C745.295 44.2185 745.418 46.5324 745.424 46.6505C745.446 47.3979 746.069 47.9886 746.817 47.9706C747.57 47.9529 748.165 47.3287 748.147 46.5765C748.143 46.4171 748.014 42.6432 744.555 40.646C741.074 38.6364 736.884 40.2914 735.301 43.0332C733.668 45.8615 734.178 50.3572 737.519 52.2864C740.618 54.0757 744.142 52.7223 747.549 51.4131C750.701 50.2027 753.678 49.0589 755.992 50.3951C757.369 51.19 758.004 52.1795 757.934 53.4185C757.872 54.4934 757.327 55.4357 757.138 55.7621C757.03 55.9493 756.389 56.8313 755.443 57.4125C754.364 58.0743 753.364 58.0946 752.292 57.4758C750.134 56.2299 749.778 54.1541 749.644 53.3722C749.609 53.1688 749.584 53.0224 749.529 52.8651C749.279 52.1564 748.501 51.783 747.791 52.033C747.107 52.2741 746.736 53.0065 746.935 53.694C746.942 53.7305 746.95 53.7771 746.959 53.8317C747.134 54.8507 747.664 57.9495 750.93 59.8347C754.898 62.126 758.416 58.9973 759.507 57.1079C760.202 55.9047 760.588 54.716 760.653 53.5738C760.745 51.9697 760.248 49.7059 757.355 48.0355Z" fill="black" fill-opacity="0.12"/>
</g>
<g clip-path="url(#clip18_994_13224)">
<path d="M790.601 19.894L790.373 19.0456L789.96 23.0839L794.641 21.8297L790.653 16.304L790.524 17.5635L791.112 19.7566C791.15 19.8987 791.067 20.0435 790.925 20.0811C790.784 20.1191 790.638 20.0349 790.601 19.894Z" fill="black" fill-opacity="0.12"/>
<path d="M794.93 13.5205L795.033 13.9095L797.735 17.8469L796.465 13.1087L794.93 13.5205Z" fill="black" fill-opacity="0.12"/>
<path d="M798.757 15.5138L798.002 12.6981L796.978 12.9726L798.281 17.8367C798.319 17.9784 798.235 18.1235 798.094 18.1614C798.042 18.1753 797.992 18.1684 797.945 18.1528L799.563 20.5116L805.18 19.0065C805.745 18.8551 806.081 18.2735 805.929 17.7079L804.42 12.0755C804.269 11.5103 803.687 11.1745 803.121 11.3258L800.561 12.0119L801.864 16.8761C801.902 17.0179 801.819 17.1627 801.677 17.2006C801.535 17.2385 801.39 17.1549 801.352 17.0132L800.049 12.1492L798.513 12.5608L799.267 15.3765C799.305 15.5182 799.222 15.6631 799.08 15.7011C798.94 15.7388 798.794 15.6549 798.757 15.5138Z" fill="black" fill-opacity="0.12"/>
<path d="M785.201 16.1273L784.176 16.4019L784.931 19.2174C784.969 19.3591 784.885 19.504 784.744 19.5419C784.602 19.5803 784.457 19.4965 784.419 19.3545L783.664 16.5389L782.128 16.9506L783.431 21.8146C783.469 21.9566 783.386 22.1011 783.244 22.1393C783.102 22.1774 782.957 22.0937 782.919 21.9518L781.616 17.088L780.592 17.3625L781.346 20.1781C781.384 20.3198 781.301 20.4646 781.159 20.5026C781.017 20.5409 780.872 20.4572 780.834 20.3151L780.08 17.4996L778.544 17.9112L779.847 22.7753C779.885 22.917 779.801 23.0619 779.66 23.0999C779.518 23.1382 779.373 23.0544 779.335 22.9124L778.032 18.0483L774.961 18.8714C774.395 19.0229 774.059 19.6046 774.211 20.1701L775.72 25.8024C775.871 26.3679 776.453 26.7036 777.019 26.5521L784.998 24.4136L785.529 17.3523L785.201 16.1273Z" fill="black" fill-opacity="0.12"/>
<path d="M800.49 26.0864L800.586 25.6164C800.936 24.39 800.464 23.546 800.464 23.546L798.565 20.7783L795.656 16.5389L794.89 15.421L793.794 13.8245L792.701 12.231C793.014 12.0286 792.935 11.586 792.935 11.586L791.317 5.54855L789.385 6.06624C789.385 6.06624 788.73 3.6207 788.487 2.71571C788.37 2.27945 788.17 2.0681 787.994 1.96658C787.805 1.85726 787.643 1.87454 787.643 1.87454L787.013 2.0428L786.53 2.17255L786.046 2.30175C786.046 2.30175 785.346 2.5868 785.589 3.49209C785.832 4.39791 786.487 6.84263 786.487 6.84263L784.555 7.36066L786.172 13.3981C786.172 13.3981 786.295 13.6161 786.508 13.739C786.584 13.7831 786.673 13.815 786.771 13.82L786.626 15.7456L786.411 18.5987L786.291 20.1975L785.994 24.1462L785.743 27.4897C785.743 27.4897 785.774 28.4519 786.691 29.3389L787.066 29.7589C787.066 29.7589 787.232 30.46 787.436 31.3246C787.55 31.8104 787.661 32.0913 787.742 32.138C787.805 32.1744 787.85 32.0683 787.864 31.8056L787.924 30.7208L788.171 30.9967L788.953 23.3539L789.665 16.4024L789.816 14.9205L789.82 14.8896L789.834 14.7463L790.378 14.6007L790.585 14.5451L790.67 14.6618L790.948 15.048L791.821 16.2575L795.647 21.5594L800.142 27.789L800.251 27.256L800.979 28.3251C800.979 28.3251 801.673 28.3819 801.665 27.8662L800.49 26.0864Z" fill="black" fill-opacity="0.12"/>
</g>
<g clip-path="url(#clip19_994_13224)">
<path d="M842.392 62.0955L832.497 36.0394C832.339 35.6218 831.958 35.3369 831.514 35.3006C831.07 35.2645 830.649 35.4859 830.427 35.8707L821.696 50.9939C821.382 51.5376 821.543 52.2744 822.093 52.5919L840.702 63.5556L840.708 63.559C841.129 63.8023 841.675 63.7178 842.041 63.4084C842.408 63.0986 842.561 62.5513 842.392 62.0955ZM824.256 51.1602L831.206 39.1227L839.083 59.8676L824.256 51.1602Z" fill="black" fill-opacity="0.12"/>
<path d="M822.486 41.4126C822.602 41.2109 822.859 41.1473 823.055 41.2602C823.25 41.3731 823.32 41.6335 823.207 41.829L822.653 42.7881C822.968 42.6523 823.315 42.616 823.687 42.8312C824.286 43.1769 824.583 43.9756 824.093 44.8246L824.085 44.837C823.592 45.6926 822.768 45.8358 822.156 45.4829C821.772 45.2607 821.636 44.9458 821.584 44.6393L821.581 44.6455C821.468 44.841 821.208 44.9106 821.012 44.7977C820.81 44.6815 820.747 44.4249 820.86 44.2294L822.486 41.4126ZM823.364 44.421L823.368 44.415C823.611 43.9935 823.49 43.5407 823.154 43.3466C822.818 43.1526 822.368 43.2679 822.121 43.6954L822.114 43.7078C821.871 44.1293 821.986 44.5788 822.328 44.7764C822.668 44.9639 823.114 44.8547 823.364 44.421Z" fill="black" fill-opacity="0.12"/>
<path d="M840.138 46.5691C840.254 46.3674 840.51 46.3035 840.706 46.4167C840.902 46.5294 840.971 46.7895 840.858 46.9852L840.308 47.9384C840.597 47.8197 840.923 47.7476 841.296 47.9628C841.846 48.2806 841.956 48.8243 841.617 49.4109L840.855 50.7306C840.738 50.9324 840.482 50.9962 840.286 50.8832C840.091 50.7701 840.021 50.5099 840.134 50.3144L840.766 49.2206C840.963 48.8784 840.901 48.606 840.625 48.4472C840.351 48.2886 840.071 48.3635 839.874 48.7057L839.242 49.7995C839.126 50.0012 838.869 50.0649 838.674 49.952C838.478 49.8391 838.408 49.5787 838.521 49.3832L840.144 46.5727L840.138 46.5691Z" fill="black" fill-opacity="0.12"/>
<path d="M827.695 59.3861L827.698 59.3801C828.019 58.824 828.593 58.8043 829.204 59.1571C829.46 59.3053 829.625 59.4574 829.767 59.6212L829.792 59.5788C829.965 59.2793 829.88 59.0024 829.513 58.7905C829.312 58.6742 829.135 58.6129 828.97 58.5745C828.92 58.5621 828.886 58.5505 828.855 58.5329C828.69 58.4377 828.63 58.2316 828.725 58.0667C828.799 57.9383 828.942 57.8745 829.083 57.8983C829.359 57.9434 829.637 58.0394 829.979 58.237C830.376 58.4662 830.604 58.7362 830.675 59.0215C830.755 59.3207 830.678 59.6507 830.477 59.9993L829.803 61.1664C829.69 61.3619 829.443 61.4227 829.248 61.31C829.04 61.1898 828.984 60.9622 829.073 60.8091L829.076 60.8033C828.786 60.8966 828.468 60.8841 828.113 60.6793C827.64 60.3977 827.405 59.8871 827.695 59.3861ZM829.456 60.1748L829.53 60.0466C829.439 59.9209 829.299 59.7828 829.121 59.6805C828.81 59.5006 828.55 59.5138 828.416 59.746L828.408 59.7582C828.296 59.9538 828.394 60.1649 828.626 60.2991C828.969 60.4963 829.304 60.4376 829.456 60.1748Z" fill="black" fill-opacity="0.12"/>
</g>
<g clip-path="url(#clip20_994_13224)">
<path d="M859.189 23.811C859.096 24.5269 859.443 25.2284 860.068 25.5891L879.673 36.9081C880.528 37.4018 881.621 37.1091 882.115 36.2537L884.796 31.6107C885.289 30.7558 884.997 29.6629 884.141 29.1691C883.286 28.6754 882.193 28.968 881.7 29.8232L879.912 32.9185L865.575 24.6406L876.785 21.5972C877.682 21.3533 878.243 20.4617 878.074 19.547L875.637 6.37375L890.338 14.8615L889.742 15.8933C889.249 16.7483 889.542 17.841 890.397 18.3349C891.252 18.8287 892.345 18.5358 892.839 17.6809L894.328 15.1013C894.821 14.2463 894.529 13.1534 893.674 12.6597L874.068 1.34042C873.464 0.991816 872.713 1.02635 872.143 1.42888C871.574 1.83141 871.29 2.52832 871.417 3.21355L874.26 18.5795L860.494 22.3166C859.797 22.5057 859.283 23.0951 859.189 23.811Z" fill="black" fill-opacity="0.12"/>
</g>
<g clip-path="url(#clip21_994_13224)">
<path d="M928.211 45.3276L927.507 47.6266L910.19 57.6243C909.297 58.14 908.991 59.2809 909.504 60.1686C910.017 61.0565 911.157 61.3622 912.051 60.8465L926.162 52.6995L924.687 58.1689C924.42 59.1626 925.009 60.182 926.003 60.4481C926.997 60.7146 928.022 60.1228 928.288 59.1289L932.212 44.5885C932.345 44.1099 932.252 43.5569 931.993 43.1217C931.745 42.6806 931.335 42.3616 930.851 42.232L916.281 38.333C915.287 38.0665 914.262 38.6584 913.996 39.6523C913.73 40.6464 914.321 41.6711 915.315 41.9373L920.796 43.4057L906.685 51.5527C905.792 52.0682 905.486 53.2093 906.002 54.1025C906.517 54.9958 907.658 55.3015 908.552 54.7858L925.853 44.7748L928.211 45.3276Z" fill="black" fill-opacity="0.12"/>
</g>
<g clip-path="url(#clip22_994_13224)">
<path d="M960.477 26.5982C959.784 26.1982 958.899 26.4354 958.499 27.1282C958.099 27.821 958.336 28.707 959.029 29.107L968.644 34.6586C969.337 35.0586 970.223 34.8214 970.623 34.1283C971.023 33.4356 970.786 32.55 970.093 32.1499L960.477 26.5982Z" fill="black" fill-opacity="0.12"/>
<path d="M953.616 7.58565C953.216 8.27848 953.453 9.16405 954.146 9.56406L957.491 11.4951L955.56 14.84C955.16 15.5327 955.397 16.4185 956.09 16.8185C956.782 17.2185 957.668 16.9813 958.068 16.2883L959.999 12.9434L963.762 15.1159C964.455 15.5159 965.34 15.2786 965.74 14.5858C966.14 13.893 965.903 13.0073 965.21 12.6073L961.447 10.4348L963.861 6.25394C964.261 5.56111 964.024 4.67554 963.331 4.27553C962.638 3.87553 961.753 4.11279 961.353 4.80562L958.939 8.98645L955.594 7.05539C954.901 6.65565 954.016 6.89299 953.616 7.58565Z" fill="black" fill-opacity="0.12"/>
<path d="M978.841 15.9849C978.634 15.2122 977.84 14.7537 977.067 14.9608L948.283 22.6741C947.51 22.8812 947.052 23.6753 947.259 24.4476C947.362 24.834 947.612 25.1422 947.933 25.3274C948.254 25.5124 948.646 25.5756 949.033 25.4717L977.816 17.7592C978.589 17.5524 979.048 16.7575 978.841 15.9849Z" fill="black" fill-opacity="0.12"/>
</g>
<g clip-path="url(#clip23_994_13224)">
<path d="M1061.14 19.6181C1061.82 20.0113 1062.69 19.7783 1063.08 19.0972C1063.48 18.4161 1063.24 17.5457 1062.56 17.1523L1060.36 15.8835L1064.1 14.0151C1064.81 13.6635 1065.09 12.8081 1064.74 12.105C1064.39 11.4016 1063.53 11.1165 1062.83 11.4678L1057.41 14.1771L1050.74 10.3239C1046.61 7.93964 1041.52 8.99072 1039.4 12.667L1038.74 13.809L1038.55 14.1289C1036.92 16.9535 1037.26 20.6607 1039.04 23.3623L1035.87 24.9459C1035.16 25.2977 1034.88 26.153 1035.23 26.8561C1035.36 27.1148 1035.56 27.3173 1035.79 27.4518C1036.19 27.683 1036.7 27.7151 1037.14 27.493L1041.08 25.5238C1041.29 25.6723 1041.5 25.8141 1041.72 25.9417L1053.55 32.7701C1054.23 33.1634 1055.1 32.9302 1055.49 32.2488C1055.88 31.5679 1055.65 30.6973 1054.97 30.304L1044.09 24.0208L1049.17 21.4775L1052.41 23.3465C1053.09 23.7397 1053.96 23.5067 1054.36 22.8254C1054.75 22.1444 1054.52 21.2737 1053.83 20.8804L1052.23 19.9516L1057.31 17.4088L1061.14 19.6181ZM1041.61 22.0746C1040.47 20.5246 1040.04 18.3368 1040.6 16.5269L1046.22 19.7715L1041.61 22.0746ZM1049.27 18.2457L1041.92 14.0029C1043.45 11.4981 1046.92 11.4119 1049.31 12.7898L1054.36 15.7029L1049.27 18.2457Z" fill="black" fill-opacity="0.12"/>
</g>
<g clip-path="url(#clip24_994_13224)">
<path d="M1124.43 13.3505L1125.43 13.9296L1126.32 23.8811C1126.36 24.3481 1126.63 24.7584 1127.03 24.9874C1127.1 25.0325 1127.19 25.0707 1127.28 25.1004C1127.81 25.2829 1128.4 25.1363 1128.78 24.7253L1139.14 13.6241L1149.77 19.7616C1150.45 20.1547 1151.32 19.9218 1151.72 19.2405C1152.11 18.5596 1151.88 17.6887 1151.19 17.2954L1139.58 10.592C1139.01 10.2607 1138.28 10.3694 1137.83 10.8536L1128.87 20.4516L1128.2 12.9398C1128.16 12.4785 1127.9 12.0655 1127.5 11.8335L1125.85 10.8844C1125.17 10.4912 1124.3 10.7244 1123.91 11.4056C1123.51 12.0866 1123.75 12.9573 1124.43 13.3505Z" fill="black" fill-opacity="0.12"/>
<path d="M1133.96 25.8405C1133.61 26.446 1133.84 27.1764 1134.48 27.5439C1134.91 27.7922 1135.4 27.7146 1135.89 27.5296L1138.92 26.2616L1139.33 29.5152C1139.42 30.0972 1139.62 30.513 1140.1 30.7886C1140.71 31.1383 1141.46 31.0023 1141.86 30.3179C1142.04 29.9995 1142.08 29.6392 1141.99 29.164L1141.28 25.4805L1144.74 24.2553C1145.07 24.1269 1145.36 23.9545 1145.56 23.62C1145.91 23.0145 1145.67 22.2837 1145.03 21.916C1144.6 21.6678 1144.11 21.7457 1143.62 21.9308L1140.8 23.1036L1140.44 20.0923C1140.35 19.5099 1140.14 19.0939 1139.67 18.8183C1139.06 18.4688 1138.3 18.6052 1137.91 19.2898C1137.73 19.6078 1137.69 19.9684 1137.77 20.4425L1138.44 23.8847L1134.77 25.2047C1134.43 25.3247 1134.15 25.5059 1133.96 25.8405Z" fill="black" fill-opacity="0.12"/>
</g>
<g clip-path="url(#clip25_994_13224)">
<path d="M1184.62 65.229L1183.44 62.4225C1183.18 61.8108 1182.48 61.5248 1181.87 61.7825C1181.45 61.958 1181.19 62.3423 1181.15 62.7623L1177.47 60.642C1182.05 59.2438 1188.03 54.0737 1195.31 45.2082C1195.73 44.6968 1195.66 43.9405 1195.14 43.5194C1194.63 43.0981 1193.87 43.1735 1193.45 43.6855C1182.82 56.6351 1177.4 58.6091 1175.11 58.6334C1175 58.6344 1174.89 58.6295 1174.79 58.621L1184.07 42.538C1184.18 42.7461 1184.34 42.9215 1184.54 43.0364C1184.75 43.1586 1185 43.2182 1185.26 43.1898C1185.92 43.1205 1186.4 42.5292 1186.33 41.8706L1186.01 38.886C1185.97 38.508 1185.76 38.1716 1185.43 37.9785C1185.11 37.8032 1184.7 37.7584 1184.35 37.906L1181.55 39.0883C1180.94 39.3458 1180.65 40.0495 1180.91 40.66C1181.09 41.1027 1181.52 41.3712 1181.96 41.3898L1172.7 57.4296C1169.92 54.3947 1172.69 41.8663 1175.73 33.4332C1175.95 32.8094 1175.63 32.1212 1175.01 31.897C1174.38 31.6728 1173.7 31.9955 1173.47 32.619C1173.39 32.8504 1171.41 38.3565 1170.15 44.3966C1169.09 49.5022 1168.86 53.3523 1169.48 56.0251L1163.36 52.4944C1162.79 52.163 1162.05 52.3597 1161.72 52.9336C1161.39 53.5076 1161.59 54.2415 1162.16 54.5729L1180.07 64.91C1179.59 65.1106 1179.28 65.5981 1179.34 66.136C1179.38 66.5336 1179.61 66.8642 1179.93 67.0497C1180.14 67.1722 1180.39 67.231 1180.66 67.2029L1183.64 66.8877C1184.02 66.848 1184.36 66.6315 1184.55 66.3051C1184.74 65.9775 1184.77 65.579 1184.62 65.229Z" fill="black" fill-opacity="0.12"/>
</g>
<g clip-path="url(#clip26_994_13224)">
<path d="M1023.6 45.4418L1001.44 32.6485C1000.86 32.3169 1000.12 32.5158 999.788 33.0902L988.202 53.1588C987.87 53.7332 988.069 54.4753 988.644 54.807L1010.8 67.6003C1011.38 67.932 1012.12 67.7332 1012.45 67.1588L1024.04 47.0902C1024.37 46.5096 1024.18 45.777 1023.6 45.4418ZM1009.73 53.0474C1009.15 52.7155 1008.41 52.9144 1008.08 53.489L1007.96 53.6968L1007.72 54.1123L1005.63 52.9056L1005.99 52.2824C1006.32 51.7078 1006.12 50.9659 1005.55 50.634C1004.97 50.3024 1004.23 50.5011 1003.9 51.0757L1003.78 51.2834L1003.54 51.699L1000.61 50.0089L1000.97 49.3856C1001.3 48.811 1001.11 48.0689 1000.53 47.7373C999.957 47.4056 999.214 47.6043 998.883 48.1789L998.763 48.3867L998.523 48.8022L994.759 46.6289L997.895 41.1965L999.985 42.4032L999.622 43.0327L999.502 43.2404C999.233 43.705 999.391 44.2929 999.855 44.5611C999.892 44.5822 999.926 44.5938 999.966 44.6087C999.999 44.6359 1000.03 44.6598 1000.06 44.681C1000.64 45.0126 1001.38 44.8139 1001.71 44.2396L1002.07 43.6101L1003.75 44.5768L1003.39 45.2063L1003.27 45.4141C1003 45.8787 1003.16 46.4666 1003.62 46.7347C1003.66 46.7559 1003.69 46.7675 1003.73 46.7824C1003.76 46.8096 1003.79 46.8335 1003.83 46.8547C1004.4 47.1863 1005.14 46.9876 1005.48 46.4132L1005.84 45.7837L1008.77 47.4737L1008.4 48.1032L1008.28 48.3109C1008.01 48.7756 1008.17 49.3636 1008.64 49.6317C1008.67 49.653 1008.71 49.6646 1008.75 49.6797C1008.78 49.7067 1008.81 49.7306 1008.85 49.7518C1009.42 50.0836 1010.16 49.8847 1010.49 49.3103L1010.86 48.6808L1012.95 49.8875L1012.58 50.517L1012.46 50.7248C1012.2 51.1894 1012.35 51.7772 1012.82 52.0454C1012.85 52.0665 1012.89 52.0783 1012.93 52.0931C1012.96 52.1204 1012.99 52.1442 1013.03 52.1655C1013.6 52.497 1014.34 52.2985 1014.67 51.7241L1015.04 51.0943L1017.96 52.7842L1014.83 58.2168L1009.81 55.32L1010.17 54.6967C1010.51 54.1151 1010.3 53.379 1009.73 53.0474ZM1001.28 35.3419L1021.34 46.9284L1019.17 50.6927L1016.24 49.003L1016.61 48.3735C1016.94 47.7991 1016.74 47.0567 1016.17 46.7252C1015.59 46.3934 1014.85 46.5925 1014.52 47.1668L1014.4 47.3746L1014.16 47.7901L1012.07 46.5836L1012.43 45.9543C1012.76 45.3797 1012.56 44.6377 1011.99 44.3059C1011.41 43.9743 1010.67 44.173 1010.34 44.7476L1010.22 44.9554L1009.98 45.3709L1007.05 43.6808L1007.42 43.0513C1007.75 42.4769 1007.55 41.7348 1006.98 41.4032C1006.4 41.0716 1005.66 41.2702 1005.33 41.8446L1005.21 42.0528L1004.97 42.4684L1003.29 41.5016L1003.66 40.8721C1003.99 40.2977 1003.79 39.5556 1003.21 39.2239C1002.64 38.8923 1001.89 39.1094 1001.55 39.6838L1001.44 39.8916L1001.2 40.3071L999.105 39.1004L1001.28 35.3419ZM1010.96 64.9074L990.895 53.3207L993.552 48.7191L997.316 50.8925L996.953 51.522L996.833 51.7297C996.564 52.1943 996.722 52.7825 997.186 53.0506C997.223 53.0718 997.257 53.0833 997.297 53.0983C997.331 53.1252 997.357 53.1494 997.394 53.1705C997.969 53.5022 998.711 53.3035 999.042 52.7291L999.406 52.0996L1002.33 53.7897L1001.97 54.4192L1001.85 54.6269C1001.58 55.0913 1001.74 55.6795 1002.2 55.9478C1002.24 55.969 1002.27 55.9807 1002.31 55.9954C1002.35 56.0226 1002.37 56.0466 1002.41 56.0677C1002.99 56.3992 1003.73 56.2007 1004.06 55.6263L1004.42 54.9968L1006.51 56.2035L1006.15 56.833L1006.03 57.041C1005.76 57.5054 1005.92 58.0935 1006.38 58.3617C1006.42 58.3828 1006.45 58.3946 1006.49 58.4094C1006.53 58.4365 1006.55 58.4605 1006.59 58.4818C1007.17 58.8134 1007.91 58.6147 1008.24 58.0404L1008.6 57.4109L1013.62 60.3074L1010.96 64.9083L1010.96 64.908L1010.96 64.9074Z" fill="black" fill-opacity="0.12"/>
</g>
<g clip-path="url(#clip27_994_13224)">
<path d="M1110.37 46.8641C1110.37 46.8569 1110.37 46.846 1110.38 46.8317C1110.42 46.6869 1110.45 46.5299 1110.44 46.3709C1110.43 46.33 1110.41 46.2923 1110.41 46.2517C1110.41 46.2109 1110.39 46.1658 1110.38 46.1277C1110.36 46.0715 1110.34 46.0224 1110.32 45.9697C1110.3 45.9428 1110.29 45.9163 1110.28 45.8898C1110.21 45.7752 1110.13 45.6708 1110.04 45.5804L1110.03 45.5765C1109.98 45.5294 1109.92 45.4964 1109.87 45.4635C1109.85 45.4552 1109.85 45.4511 1109.83 45.4429L1109.72 45.3772L1094.52 36.6013C1094.35 36.5066 1094.16 36.4506 1093.97 36.4396L1085.09 36.0385C1084.63 36.0151 1084.21 36.2481 1083.99 36.6401L1074.46 53.1502C1074.12 53.7277 1074.32 54.4692 1074.9 54.8023L1091.99 64.6678C1092.25 64.8203 1092.56 64.8683 1092.86 64.8015L1100.65 63.0022C1100.98 62.9262 1101.26 62.7183 1101.43 62.4336L1110.28 47.0983L1110.29 47.0913C1110.31 47.0118 1110.33 46.9393 1110.37 46.8641ZM1093.71 38.9192L1105.26 45.5841L1102.41 45.8151L1092.97 40.3641L1093.08 40.1789C1093.21 39.9509 1093.14 39.6514 1092.9 39.5156C1092.67 39.3797 1092.37 39.458 1092.24 39.6933L1092.13 39.8968L1089.81 38.5741C1089.81 38.5742 1093.5 38.9326 1093.71 38.9192ZM1078.27 53.4119C1078.27 53.1463 1078.05 52.9342 1077.78 52.9333L1077.36 52.9375L1085.59 38.686L1091.01 41.8424L1090.7 42.3697C1090.57 42.5977 1090.65 42.8972 1090.88 43.033C1091.12 43.1688 1091.41 43.0905 1091.54 42.8552L1091.84 42.335L1100.18 47.1965L1091.78 61.7545L1078.03 53.8184C1078.17 53.7383 1078.27 53.5853 1078.27 53.4119ZM1094.44 61.9504L1102.34 48.2694L1107.02 47.8758L1099.6 60.7235L1098.78 60.2277C1098.55 60.0962 1098.25 60.1772 1098.11 60.4125C1097.98 60.6335 1098.05 60.9212 1098.26 61.0587L1094.44 61.9504Z" fill="black" fill-opacity="0.12"/>
<path d="M1085.94 53.9344L1086.96 54.5268C1087.19 54.6584 1087.49 54.5843 1087.62 54.3566C1087.75 54.1283 1087.68 53.8296 1087.45 53.698L1086.42 53.1014C1086.19 52.9698 1085.89 53.0439 1085.75 53.2786C1085.63 53.4998 1085.71 53.8028 1085.94 53.9344Z" fill="black" fill-opacity="0.12"/>
<path d="M1089.69 45.099C1089.92 45.2306 1090.22 45.1565 1090.35 44.9213L1090.95 43.888C1091.08 43.66 1091 43.3605 1090.77 43.2247C1090.53 43.0889 1090.24 43.1672 1090.11 43.4024L1089.51 44.4357C1089.38 44.6637 1089.45 44.9632 1089.69 45.099Z" fill="black" fill-opacity="0.12"/>
<path d="M1097.74 59.6568L1096.71 59.0458C1096.49 58.9141 1096.18 58.9952 1096.05 59.2235C1095.92 59.4512 1095.99 59.7578 1096.22 59.8935L1097.27 60.4756C1097.49 60.6072 1097.79 60.5398 1097.92 60.312C1098.05 60.0843 1097.97 59.7885 1097.74 59.6568Z" fill="black" fill-opacity="0.12"/>
<path d="M1087.31 49.2176C1087.54 49.3493 1087.84 49.2749 1087.97 49.0402L1088.57 48.0069C1088.7 47.7789 1088.63 47.4794 1088.39 47.3436C1088.16 47.2078 1087.86 47.2861 1087.73 47.5213L1087.13 48.5546C1087 48.7826 1087.07 49.0818 1087.31 49.2176Z" fill="black" fill-opacity="0.12"/>
<path d="M1086.12 51.277C1086.35 51.4086 1086.65 51.3345 1086.78 51.0992L1087.38 50.0662C1087.51 49.8382 1087.44 49.5388 1087.2 49.4029C1086.97 49.2671 1086.68 49.3457 1086.54 49.5807L1085.94 50.6137C1085.81 50.8419 1085.89 51.1411 1086.12 51.277Z" fill="black" fill-opacity="0.12"/>
<path d="M1088.5 47.1583C1088.73 47.29 1089.03 47.2159 1089.16 46.9806L1089.76 45.9473C1089.89 45.7193 1089.82 45.4199 1089.58 45.284C1089.35 45.1482 1089.05 45.2265 1088.92 45.4618L1088.32 46.495C1088.19 46.7233 1088.26 47.0225 1088.5 47.1583Z" fill="black" fill-opacity="0.12"/>
<path d="M1092.11 57.509L1093.15 58.0986C1093.37 58.2304 1093.67 58.1631 1093.81 57.9278C1093.94 57.7001 1093.86 57.4075 1093.62 57.2718L1092.59 56.6685C1092.37 56.537 1092.06 56.618 1091.93 56.846C1091.81 57.0774 1091.88 57.3775 1092.11 57.509Z" fill="black" fill-opacity="0.12"/>
<path d="M1090.05 56.3125L1091.09 56.902C1091.32 57.0338 1091.62 56.9596 1091.75 56.7316C1091.88 56.5033 1091.8 56.2109 1091.57 56.0753L1090.54 55.4723C1090.31 55.3405 1090.01 55.4215 1089.88 55.6497C1089.74 55.8845 1089.83 56.1809 1090.05 56.3125Z" fill="black" fill-opacity="0.12"/>
<path d="M1088 55.1234L1089.03 55.72C1089.26 55.8516 1089.56 55.7775 1089.69 55.5498C1089.82 55.3215 1089.74 55.0294 1089.51 54.8935L1088.48 54.2899C1088.25 54.1583 1087.95 54.2324 1087.81 54.4676C1087.68 54.6954 1087.77 54.9918 1088 55.1234Z" fill="black" fill-opacity="0.12"/>
<path d="M1083.49 53.7772C1083.56 53.8184 1083.64 53.8382 1083.74 53.8431L1084.92 53.8336C1085.19 53.8348 1085.4 53.6149 1085.4 53.3496L1085.4 53.3389C1085.47 53.2953 1085.54 53.2407 1085.58 53.1622L1086.18 52.1289C1086.31 51.9009 1086.24 51.602 1086 51.4662C1085.77 51.3303 1085.48 51.4086 1085.34 51.6434L1084.74 52.6767C1084.71 52.7407 1084.69 52.8064 1084.68 52.8679L1083.71 52.8796C1083.45 52.8784 1083.24 53.0983 1083.23 53.3635C1083.25 53.5413 1083.35 53.6948 1083.49 53.7772Z" fill="black" fill-opacity="0.12"/>
<path d="M1078.73 53.8233C1078.8 53.8644 1078.89 53.8841 1078.98 53.8892L1080.16 53.879C1080.43 53.8807 1080.64 53.6608 1080.64 53.3957C1080.64 53.1301 1080.42 52.9181 1080.16 52.9171L1078.97 52.9273C1078.71 52.9254 1078.5 53.1455 1078.49 53.4108C1078.5 53.5842 1078.59 53.741 1078.73 53.8233Z" fill="black" fill-opacity="0.12"/>
<path d="M1081.11 53.8C1081.18 53.8411 1081.27 53.861 1081.36 53.8659L1082.54 53.8557C1082.81 53.8574 1083.02 53.6375 1083.02 53.3724C1083.02 53.1069 1082.8 52.8948 1082.54 52.8936L1081.35 52.9039C1081.09 52.9022 1080.87 53.1221 1080.87 53.3876C1080.88 53.5609 1080.97 53.7177 1081.11 53.8Z" fill="black" fill-opacity="0.12"/>
</g>
<g clip-path="url(#clip28_994_13224)">
<path d="M1235.24 14.2742C1235.02 13.4366 1234.15 12.9368 1233.31 13.1612L1227.45 14.7324L1211.21 5.35515C1210.45 4.91975 1209.49 5.17699 1209.06 5.93113C1208.62 6.68526 1208.88 7.64531 1209.63 8.08071L1223.15 15.8843L1217.42 17.4196L1207.54 11.7132C1206.78 11.2778 1205.82 11.5326 1205.39 12.2867C1204.95 13.0409 1205.21 14.0009 1205.96 14.4363L1213.12 18.5705L1207.39 20.1058L1203.87 18.0688C1203.11 17.6334 1202.15 17.8906 1201.72 18.6447C1201.28 19.3989 1201.54 20.3589 1202.29 20.7943L1203.09 21.2535L1200.12 22.0478C1199.29 22.2722 1198.79 23.1379 1199.01 23.9756C1199.12 24.3949 1199.4 24.7274 1199.75 24.9304C1200.1 25.132 1200.52 25.2003 1200.94 25.09L1206.94 23.484L1222.27 32.3362C1223.02 32.7716 1223.98 32.5144 1224.42 31.7602C1224.85 31.0061 1224.6 30.046 1223.84 29.6106L1211.24 22.3348L1216.97 20.7996L1225.95 25.9824C1226.7 26.4178 1227.66 26.1605 1228.1 25.4064C1228.53 24.6523 1228.27 23.6922 1227.52 23.2568L1221.27 19.6476L1227 18.1124L1229.61 19.6202C1230.36 20.0556 1231.32 19.7983 1231.76 19.0442C1232.17 18.324 1231.95 17.4225 1231.28 16.9579L1234.11 16.1995C1234.96 15.9786 1235.46 15.1105 1235.24 14.2742Z" fill="black" fill-opacity="0.15"/>
</g>
<g clip-path="url(#clip29_994_13224)">
<path d="M1250.66 43.9364C1251.82 44.607 1253.31 44.2083 1253.98 43.0468C1254.2 42.6661 1254.3 42.2491 1254.3 41.8389L1256.98 39.8372L1255.47 58.3374C1254.92 58.5166 1254.43 58.8826 1254.12 59.4209C1253.45 60.5824 1253.85 62.0703 1255.01 62.7409C1256.17 63.4115 1257.66 63.0128 1258.33 61.8513C1258.59 61.4027 1258.69 60.9079 1258.65 60.4288L1264.19 58.3127L1263.66 63.0243C1263.1 63.1985 1262.59 63.5721 1262.27 64.1249C1261.6 65.2864 1262 66.7743 1263.16 67.4449C1264.32 68.1155 1265.81 67.7168 1266.48 66.5553C1267.07 65.532 1266.83 64.2595 1265.97 63.5118L1266.55 58.3118C1267.18 58.1625 1267.75 57.7701 1268.1 57.1687C1268.77 56.0072 1268.37 54.5194 1267.21 53.8488C1266.04 53.1768 1264.56 53.5768 1263.89 54.7383C1263.65 55.1481 1263.55 55.5988 1263.57 56.039L1257.82 58.2406L1259.4 38.8835C1259.98 38.7152 1260.5 38.3338 1260.83 37.7664C1261.5 36.6049 1261.1 35.117 1259.94 34.4464C1258.78 33.7758 1257.29 34.1745 1256.62 35.336C1256.26 35.964 1256.21 36.6866 1256.43 37.3255L1253.15 39.7653C1253.13 39.7541 1253.11 39.7394 1253.09 39.7268C1251.93 39.0562 1250.44 39.4549 1249.77 40.6164C1249.1 41.7779 1249.5 43.2658 1250.66 43.9364Z" fill="black" fill-opacity="0.15"/>
</g>
<g clip-path="url(#clip30_994_13224)">
<path d="M1315.25 25.9819C1315.25 25.977 1315.26 25.9673 1315.26 25.9625L1315.26 25.9597C1315.45 25.6077 1315.5 25.1943 1315.4 24.808L1312.16 12.7165C1311.94 11.8942 1311.09 11.4014 1310.27 11.6217C1309.45 11.8421 1308.95 12.6956 1309.17 13.518L1310.39 18.0696L1300.78 12.5172L1305.33 11.2976C1306.15 11.0772 1306.64 10.2237 1306.42 9.40131C1306.2 8.57896 1305.35 8.08616 1304.53 8.30651L1292.43 11.5496C1292.04 11.6531 1291.72 11.9069 1291.51 12.2505L1291.5 12.2477C1291.5 12.2574 1291.49 12.2622 1291.49 12.2695C1291.49 12.2744 1291.48 12.284 1291.48 12.2865L1291.48 12.2893C1291.29 12.6364 1291.24 13.0547 1291.34 13.441L1294.58 25.5276C1294.8 26.3499 1295.65 26.8427 1296.47 26.6224C1297.3 26.402 1297.79 25.5485 1297.57 24.7261L1296.35 20.1773L1305.97 25.7297L1301.42 26.9521C1300.6 27.1725 1300.11 28.026 1300.33 28.8484C1300.55 29.6707 1301.4 30.1635 1302.23 29.9432L1314.31 26.7046C1314.7 26.6011 1315.03 26.3424 1315.24 26.0037L1315.24 26.0065C1315.24 25.9964 1315.24 25.9916 1315.25 25.9819ZM1294.9 14.2091C1295.44 14.125 1296.94 13.8021 1297.15 13.7985L1311.09 21.8471L1311.84 23.9895L1311.87 24.0615L1311.93 24.2219L1309.46 24.6922L1295.59 16.6828C1295.57 16.6702 1295.53 16.6583 1295.51 16.6505L1294.64 14.2374C1294.64 14.2374 1294.71 14.2367 1294.82 14.2185L1294.9 14.2091Z" fill="black" fill-opacity="0.15"/>
</g>
<g clip-path="url(#clip31_994_13224)">
<path d="M1361.58 51.2277C1363.09 48.6162 1356.39 43.4421 1351.8 40.7961C1348.49 38.8851 1339.53 34.5445 1337.87 37.4083C1337.85 37.4423 1337.85 37.487 1337.83 37.521C1337.79 37.5653 1337.76 37.6023 1337.73 37.6532L1330.75 49.7509C1330.54 50.1146 1330.52 50.5501 1330.7 50.9274C1330.87 51.2963 1332.62 54.6354 1341.17 59.579L1341.17 59.5832L1341.23 59.6154L1341.24 59.6196C1349.84 64.5768 1353.27 64.1541 1353.63 64.0869C1354.01 64.024 1354.32 63.7958 1354.51 63.4733L1361.49 51.3829C1361.49 51.3757 1361.5 51.3684 1361.5 51.3611C1361.53 51.3126 1361.55 51.2714 1361.58 51.2277ZM1350.54 43.0021C1354.88 45.5067 1357.56 48.0133 1358.68 49.4169C1357.1 48.9795 1354.03 47.735 1349.36 45.0414C1344.73 42.3674 1342.08 40.2604 1340.91 39.0694C1342.68 39.368 1346.18 40.4863 1350.54 43.0021ZM1342.47 57.4066C1336.49 53.9542 1334.12 51.3812 1333.34 50.3581L1338.94 40.661C1340.52 42.4292 1343.57 44.6197 1348.1 47.2335C1353.19 50.1735 1356.31 51.4634 1358.25 51.9225L1352.68 61.5686C1351.5 61.4588 1348.36 60.8114 1342.47 57.4066Z" fill="black" fill-opacity="0.15"/>
<path d="M1354.12 56.1617C1354.08 56.1379 1354.05 56.1097 1354.01 56.0786C1353.61 55.6708 1353.18 55.2549 1352.74 54.8522C1352.54 54.6592 1352.52 54.3448 1352.72 54.1394C1352.91 53.934 1353.23 53.9232 1353.43 54.1144C1353.88 54.5315 1354.31 54.9516 1354.72 55.375C1354.92 55.5752 1354.92 55.8972 1354.72 56.0911C1354.57 56.2426 1354.31 56.2709 1354.12 56.1617ZM1337.52 46.0265C1337.31 45.9089 1337.21 45.6556 1337.29 45.4194C1337.38 45.1538 1337.66 45.0116 1337.94 45.1045C1338.46 45.285 1339.03 45.4838 1339.63 45.7205C1339.89 45.8165 1340.03 46.1168 1339.92 46.3741C1339.83 46.6355 1339.53 46.7693 1339.27 46.666C1338.67 46.4359 1338.12 46.2431 1337.6 46.0668C1337.58 46.0514 1337.55 46.0433 1337.52 46.0265ZM1351.5 53.729C1351.47 53.7122 1351.45 53.6968 1351.43 53.677C1350.98 53.2974 1350.52 52.9172 1350.06 52.5613C1349.84 52.3877 1349.8 52.0638 1349.97 51.8457C1350.14 51.6291 1350.46 51.5791 1350.69 51.7545C1351.15 52.1188 1351.62 52.4994 1352.08 52.8985C1352.3 53.0769 1352.33 53.3996 1352.15 53.6135C1351.98 53.8065 1351.71 53.8494 1351.5 53.729ZM1348.77 51.4653C1348.75 51.4499 1348.72 51.4331 1348.7 51.4205C1348.2 51.0811 1347.7 50.7538 1347.22 50.4474C1346.98 50.2987 1346.91 49.981 1347.06 49.7518C1347.21 49.5225 1347.52 49.4381 1347.76 49.594C1348.25 49.9099 1348.76 50.2389 1349.26 50.594C1349.5 50.7573 1349.55 51.0666 1349.39 51.3031C1349.26 51.4946 1348.99 51.5611 1348.77 51.4653ZM1340.86 47.2944C1340.64 47.1698 1340.54 46.9006 1340.64 46.6583C1340.76 46.3965 1341.05 46.2787 1341.31 46.3896C1341.84 46.6136 1342.39 46.856 1342.96 47.1169C1343.21 47.2365 1343.32 47.5315 1343.2 47.789C1343.08 48.0465 1342.79 48.1543 1342.53 48.0347C1341.98 47.7808 1341.44 47.5426 1340.91 47.3228C1340.89 47.314 1340.87 47.3028 1340.86 47.2944ZM1344.19 48.5745C1343.98 48.4353 1343.9 48.1557 1344.01 47.9242C1344.14 47.6709 1344.44 47.5674 1344.69 47.6942C1345.22 47.9501 1345.75 48.2206 1346.3 48.5154C1346.55 48.6496 1346.64 48.9549 1346.5 49.204C1346.37 49.4531 1346.06 49.5452 1345.81 49.4111C1345.28 49.119 1344.75 48.8517 1344.23 48.6011C1344.22 48.5941 1344.2 48.5815 1344.19 48.5745Z" fill="black" fill-opacity="0.15"/>
</g>
<g clip-path="url(#clip32_994_13224)">
<path d="M1377.3 23.8918C1376.48 23.4186 1375.43 23.6994 1374.96 24.5214C1374.48 25.341 1374.76 26.3915 1375.58 26.8647L1389.94 35.1527C1390.76 35.6259 1391.81 35.3464 1392.28 34.5244L1398 24.6212L1404.29 13.7311C1404.76 12.9115 1404.48 11.8611 1403.66 11.3865L1389.3 3.0985C1388.48 2.6253 1387.44 2.90611 1386.96 3.72815C1386.49 4.54775 1386.77 5.59819 1387.59 6.07139L1400.46 13.5026L1395.89 21.4246L1384.5 14.8502C1383.68 14.377 1382.63 14.6579 1382.16 15.4775C1381.68 16.2971 1381.96 17.3475 1382.78 17.8207L1394.17 24.3951L1390.17 31.3254L1377.3 23.8918Z" fill="black" fill-opacity="0.15"/>
</g>
<g clip-path="url(#clip33_994_13224)">
<path d="M1438.1 62.6918L1440.09 39.368C1440.13 38.9173 1439.9 38.486 1439.51 38.2606L1439.45 38.2242C1439.06 37.9988 1438.57 38.0185 1438.2 38.276L1419 51.6598C1418.82 51.7847 1418.68 51.9533 1418.59 52.1487C1418.39 52.6084 1416.89 56.7721 1425.56 61.8472C1425.63 61.9166 1425.71 61.9753 1425.79 62.0243C1434.67 67.1511 1437.58 63.6928 1437.88 63.2819C1438.01 63.1102 1438.09 62.9053 1438.1 62.6918ZM1427.14 60.1133C1427.07 60.0452 1427 59.9879 1426.91 59.9389C1421.13 56.6027 1420.68 54.0956 1420.71 53.3008L1421.32 52.877C1421.4 52.8493 1421.47 52.7996 1421.53 52.7338L1437.57 41.5572L1436.01 59.9065C1435.85 59.72 1435.57 59.6868 1435.37 59.8404C1435.17 59.9989 1435.13 60.293 1435.29 60.4944C1435.52 60.7854 1435.71 61.0704 1435.88 61.3542L1435.83 62.0294C1435.16 62.4522 1432.8 63.3305 1427.14 60.1133Z" fill="black" fill-opacity="0.15"/>
<path d="M1427.23 53.587C1426.75 53.3646 1426.27 53.1638 1425.8 52.9864C1425.55 52.8953 1425.29 53.0161 1425.2 53.2577C1425.12 53.4723 1425.2 53.7148 1425.4 53.8268C1425.42 53.8394 1425.44 53.8496 1425.47 53.8598C1425.92 54.0299 1426.38 54.2233 1426.85 54.4369C1427.08 54.5424 1427.36 54.4398 1427.46 54.208C1427.57 53.9684 1427.48 53.6881 1427.23 53.587Z" fill="black" fill-opacity="0.15"/>
<path d="M1424.31 52.4869C1423.78 52.3359 1423.26 52.2158 1422.77 52.1299C1422.52 52.0871 1422.28 52.2559 1422.23 52.5103C1422.2 52.7077 1422.29 52.8978 1422.46 52.993C1422.51 53.0196 1422.56 53.0389 1422.61 53.0499C1423.07 53.1301 1423.55 53.2406 1424.05 53.3821C1424.3 53.4534 1424.56 53.3083 1424.63 53.0617C1424.7 52.8151 1424.56 52.5581 1424.31 52.4869Z" fill="black" fill-opacity="0.15"/>
<path d="M1434.97 58.7381C1434.62 58.382 1434.23 58.0249 1433.81 57.6765C1433.62 57.5078 1433.32 57.5354 1433.16 57.7312C1432.99 57.9271 1433.02 58.222 1433.21 58.3868C1433.6 58.7164 1433.97 59.056 1434.31 59.3923C1434.34 59.4216 1434.37 59.4475 1434.41 59.4685C1434.59 59.5707 1434.82 59.5456 1434.97 59.3942C1435.15 59.2144 1435.15 58.9209 1434.97 58.7381Z" fill="black" fill-opacity="0.15"/>
<path d="M1432.59 56.713C1432.18 56.415 1431.75 56.1182 1431.31 55.8321C1431.1 55.6916 1430.8 55.7542 1430.66 55.9703C1430.52 56.1863 1430.58 56.4749 1430.8 56.6158C1431.23 56.8924 1431.65 57.1808 1432.04 57.4666C1432.05 57.4775 1432.07 57.4859 1432.08 57.4943C1432.29 57.6119 1432.55 57.5599 1432.69 57.364C1432.84 57.1559 1432.79 56.8671 1432.59 56.713Z" fill="black" fill-opacity="0.15"/>
<path d="M1430.08 54.8627L1429.93 54.7787C1429.51 54.5379 1429.09 54.3481 1428.7 54.1453C1428.47 54.0262 1428.17 54.1474 1428.05 54.3761C1427.94 54.5975 1428.07 54.7798 1428.28 54.9044C1428.29 54.9072 1428.3 54.9114 1428.3 54.9142C1428.67 55.1284 1429.06 55.3524 1429.47 55.5876L1429.61 55.6674C1429.61 55.6688 1429.61 55.6688 1429.61 55.6688C1429.83 55.7962 1430.11 55.7217 1430.24 55.5011C1430.37 55.2794 1430.3 54.9915 1430.08 54.8627Z" fill="black" fill-opacity="0.15"/>
</g>
<g clip-path="url(#clip34_994_13224)">
<path d="M1458.19 23.811C1458.1 24.5269 1458.44 25.2284 1459.07 25.5891L1478.67 36.9081C1479.53 37.4018 1480.62 37.1091 1481.11 36.2537L1483.8 31.6107C1484.29 30.7558 1484 29.6629 1483.14 29.1691C1482.29 28.6754 1481.19 28.968 1480.7 29.8232L1478.91 32.9185L1464.57 24.6406L1475.78 21.5972C1476.68 21.3533 1477.24 20.4617 1477.07 19.547L1474.64 6.37375L1489.34 14.8615L1488.74 15.8933C1488.25 16.7483 1488.54 17.841 1489.4 18.3349C1490.25 18.8287 1491.34 18.5358 1491.84 17.6809L1493.33 15.1013C1493.82 14.2463 1493.53 13.1534 1492.67 12.6597L1473.07 1.34042C1472.46 0.991816 1471.71 1.02635 1471.14 1.42888C1470.57 1.83141 1470.29 2.52832 1470.42 3.21355L1473.26 18.5795L1459.49 22.3166C1458.8 22.5057 1458.28 23.0951 1458.19 23.811Z" fill="black" fill-opacity="0.15"/>
</g>
<g clip-path="url(#clip35_994_13224)">
<path d="M1527.21 45.3276L1526.51 47.6266L1509.19 57.6243C1508.3 58.14 1507.99 59.2809 1508.5 60.1686C1509.02 61.0565 1510.16 61.3622 1511.05 60.8465L1525.16 52.6995L1523.69 58.1689C1523.42 59.1626 1524.01 60.182 1525 60.4481C1526 60.7146 1527.02 60.1228 1527.29 59.1289L1531.21 44.5885C1531.34 44.1099 1531.25 43.5569 1530.99 43.1217C1530.75 42.6806 1530.34 42.3616 1529.85 42.232L1515.28 38.333C1514.29 38.0665 1513.26 38.6584 1513 39.6523C1512.73 40.6464 1513.32 41.6711 1514.32 41.9373L1519.8 43.4057L1505.68 51.5527C1504.79 52.0682 1504.49 53.2093 1505 54.1025C1505.52 54.9958 1506.66 55.3015 1507.55 54.7858L1524.85 44.7748L1527.21 45.3276Z" fill="black" fill-opacity="0.15"/>
</g>
<g clip-path="url(#clip36_994_13224)">
<path d="M1559.48 26.5982C1558.78 26.1982 1557.9 26.4354 1557.5 27.1282C1557.1 27.821 1557.34 28.707 1558.03 29.107L1567.64 34.6586C1568.34 35.0586 1569.22 34.8214 1569.62 34.1283C1570.02 33.4356 1569.79 32.55 1569.09 32.1499L1559.48 26.5982Z" fill="black" fill-opacity="0.15"/>
<path d="M1552.62 7.58565C1552.22 8.27848 1552.45 9.16405 1553.15 9.56406L1556.49 11.4951L1554.56 14.84C1554.16 15.5327 1554.4 16.4185 1555.09 16.8185C1555.78 17.2185 1556.67 16.9813 1557.07 16.2883L1559 12.9434L1562.76 15.1159C1563.45 15.5159 1564.34 15.2786 1564.74 14.5858C1565.14 13.893 1564.9 13.0073 1564.21 12.6073L1560.45 10.4348L1562.86 6.25394C1563.26 5.56111 1563.02 4.67554 1562.33 4.27553C1561.64 3.87553 1560.75 4.11279 1560.35 4.80562L1557.94 8.98645L1554.59 7.05539C1553.9 6.65565 1553.02 6.89299 1552.62 7.58565Z" fill="black" fill-opacity="0.15"/>
<path d="M1577.84 15.9849C1577.63 15.2122 1576.84 14.7537 1576.07 14.9608L1547.28 22.6741C1546.51 22.8812 1546.05 23.6753 1546.26 24.4476C1546.36 24.834 1546.61 25.1422 1546.93 25.3274C1547.25 25.5124 1547.65 25.5756 1548.03 25.4717L1576.82 17.7592C1577.59 17.5524 1578.05 16.7575 1577.84 15.9849Z" fill="black" fill-opacity="0.15"/>
</g>
<g clip-path="url(#clip37_994_13224)">
<path d="M1660.14 19.6181C1660.82 20.0113 1661.69 19.7783 1662.08 19.0972C1662.48 18.4161 1662.24 17.5457 1661.56 17.1523L1659.36 15.8835L1663.1 14.0151C1663.81 13.6635 1664.09 12.8081 1663.74 12.105C1663.39 11.4016 1662.53 11.1165 1661.83 11.4678L1656.41 14.1771L1649.74 10.3239C1645.61 7.93964 1640.52 8.99072 1638.4 12.667L1637.74 13.809L1637.55 14.1289C1635.92 16.9535 1636.26 20.6607 1638.04 23.3623L1634.87 24.9459C1634.16 25.2977 1633.88 26.153 1634.23 26.8561C1634.36 27.1148 1634.56 27.3173 1634.79 27.4518C1635.19 27.683 1635.7 27.7151 1636.14 27.493L1640.08 25.5238C1640.29 25.6723 1640.5 25.8141 1640.72 25.9417L1652.55 32.7701C1653.23 33.1634 1654.1 32.9302 1654.49 32.2488C1654.88 31.5679 1654.65 30.6973 1653.97 30.304L1643.09 24.0208L1648.17 21.4775L1651.41 23.3465C1652.09 23.7397 1652.96 23.5067 1653.36 22.8254C1653.75 22.1444 1653.52 21.2737 1652.83 20.8804L1651.23 19.9516L1656.31 17.4088L1660.14 19.6181ZM1640.61 22.0746C1639.47 20.5246 1639.04 18.3368 1639.6 16.5269L1645.22 19.7715L1640.61 22.0746ZM1648.27 18.2457L1640.92 14.0029C1642.45 11.4981 1645.92 11.4119 1648.31 12.7898L1653.36 15.7029L1648.27 18.2457Z" fill="black" fill-opacity="0.15"/>
</g>
<g clip-path="url(#clip38_994_13224)">
<path d="M1723.43 13.3505L1724.43 13.9296L1725.32 23.8811C1725.36 24.3481 1725.63 24.7584 1726.03 24.9874C1726.1 25.0325 1726.19 25.0707 1726.28 25.1004C1726.81 25.2829 1727.4 25.1363 1727.78 24.7253L1738.14 13.6241L1748.77 19.7616C1749.45 20.1547 1750.32 19.9218 1750.72 19.2405C1751.11 18.5596 1750.88 17.6887 1750.19 17.2954L1738.58 10.592C1738.01 10.2607 1737.28 10.3694 1736.83 10.8536L1727.87 20.4516L1727.2 12.9398C1727.16 12.4785 1726.9 12.0655 1726.5 11.8335L1724.85 10.8844C1724.17 10.4912 1723.3 10.7244 1722.91 11.4056C1722.51 12.0866 1722.75 12.9573 1723.43 13.3505Z" fill="black" fill-opacity="0.15"/>
<path d="M1732.96 25.8405C1732.61 26.446 1732.84 27.1764 1733.48 27.5439C1733.91 27.7922 1734.4 27.7146 1734.89 27.5296L1737.92 26.2616L1738.33 29.5152C1738.42 30.0972 1738.62 30.513 1739.1 30.7886C1739.71 31.1383 1740.46 31.0023 1740.86 30.3179C1741.04 29.9995 1741.08 29.6392 1740.99 29.164L1740.28 25.4805L1743.74 24.2553C1744.07 24.1269 1744.36 23.9545 1744.56 23.62C1744.91 23.0145 1744.67 22.2837 1744.03 21.916C1743.6 21.6678 1743.11 21.7457 1742.62 21.9308L1739.8 23.1036L1739.44 20.0923C1739.35 19.5099 1739.14 19.0939 1738.67 18.8183C1738.06 18.4688 1737.3 18.6052 1736.91 19.2898C1736.73 19.6078 1736.69 19.9684 1736.77 20.4425L1737.44 23.8847L1733.77 25.2047C1733.43 25.3247 1733.15 25.5059 1732.96 25.8405Z" fill="black" fill-opacity="0.15"/>
</g>
<g clip-path="url(#clip39_994_13224)">
<path d="M1783.62 65.229L1782.44 62.4225C1782.18 61.8108 1781.48 61.5248 1780.87 61.7825C1780.45 61.958 1780.19 62.3423 1780.15 62.7623L1776.47 60.642C1781.05 59.2438 1787.03 54.0737 1794.31 45.2082C1794.73 44.6968 1794.66 43.9405 1794.14 43.5194C1793.63 43.0981 1792.87 43.1735 1792.45 43.6855C1781.82 56.6351 1776.4 58.6091 1774.11 58.6334C1774 58.6344 1773.89 58.6295 1773.79 58.621L1783.07 42.538C1783.18 42.7461 1783.34 42.9215 1783.54 43.0364C1783.75 43.1586 1784 43.2182 1784.26 43.1898C1784.92 43.1205 1785.4 42.5292 1785.33 41.8706L1785.01 38.886C1784.97 38.508 1784.76 38.1716 1784.43 37.9785C1784.11 37.8032 1783.7 37.7584 1783.35 37.906L1780.55 39.0883C1779.94 39.3458 1779.65 40.0495 1779.91 40.66C1780.09 41.1027 1780.52 41.3712 1780.96 41.3898L1771.7 57.4296C1768.92 54.3947 1771.69 41.8663 1774.73 33.4332C1774.95 32.8094 1774.63 32.1212 1774.01 31.897C1773.38 31.6728 1772.7 31.9955 1772.47 32.619C1772.39 32.8504 1770.41 38.3565 1769.15 44.3966C1768.09 49.5022 1767.86 53.3523 1768.48 56.0251L1762.36 52.4944C1761.79 52.163 1761.05 52.3597 1760.72 52.9336C1760.39 53.5076 1760.59 54.2415 1761.16 54.5729L1779.07 64.91C1778.59 65.1106 1778.28 65.5981 1778.34 66.136C1778.38 66.5336 1778.61 66.8642 1778.93 67.0497C1779.14 67.1722 1779.39 67.231 1779.66 67.2029L1782.64 66.8877C1783.02 66.848 1783.36 66.6315 1783.55 66.3051C1783.74 65.9775 1783.77 65.579 1783.62 65.229Z" fill="black" fill-opacity="0.15"/>
</g>
<g clip-path="url(#clip40_994_13224)">
<path d="M1622.6 45.4418L1600.44 32.6485C1599.86 32.3169 1599.12 32.5158 1598.79 33.0902L1587.2 53.1588C1586.87 53.7332 1587.07 54.4753 1587.64 54.807L1609.8 67.6003C1610.38 67.932 1611.12 67.7332 1611.45 67.1588L1623.04 47.0902C1623.37 46.5096 1623.18 45.777 1622.6 45.4418ZM1608.73 53.0474C1608.15 52.7155 1607.41 52.9144 1607.08 53.489L1606.96 53.6968L1606.72 54.1123L1604.63 52.9056L1604.99 52.2824C1605.32 51.7078 1605.12 50.9659 1604.55 50.634C1603.97 50.3024 1603.23 50.5011 1602.9 51.0757L1602.78 51.2834L1602.54 51.699L1599.61 50.0089L1599.97 49.3856C1600.3 48.811 1600.11 48.0689 1599.53 47.7373C1598.96 47.4056 1598.21 47.6043 1597.88 48.1789L1597.76 48.3867L1597.52 48.8022L1593.76 46.6289L1596.89 41.1965L1598.98 42.4032L1598.62 43.0327L1598.5 43.2404C1598.23 43.705 1598.39 44.2929 1598.86 44.5611C1598.89 44.5822 1598.93 44.5938 1598.97 44.6087C1599 44.6359 1599.03 44.6598 1599.06 44.681C1599.64 45.0126 1600.38 44.8139 1600.71 44.2396L1601.07 43.6101L1602.75 44.5768L1602.39 45.2063L1602.27 45.4141C1602 45.8787 1602.16 46.4666 1602.62 46.7347C1602.66 46.7559 1602.69 46.7675 1602.73 46.7824C1602.76 46.8096 1602.79 46.8335 1602.83 46.8547C1603.4 47.1863 1604.14 46.9876 1604.48 46.4132L1604.84 45.7837L1607.77 47.4737L1607.4 48.1032L1607.28 48.3109C1607.01 48.7756 1607.17 49.3636 1607.64 49.6317C1607.67 49.653 1607.71 49.6646 1607.75 49.6797C1607.78 49.7067 1607.81 49.7306 1607.85 49.7518C1608.42 50.0836 1609.16 49.8847 1609.49 49.3103L1609.86 48.6808L1611.95 49.8875L1611.58 50.517L1611.46 50.7248C1611.2 51.1894 1611.35 51.7772 1611.82 52.0454C1611.85 52.0665 1611.89 52.0783 1611.93 52.0931C1611.96 52.1204 1611.99 52.1442 1612.03 52.1655C1612.6 52.497 1613.34 52.2985 1613.67 51.7241L1614.04 51.0943L1616.96 52.7842L1613.83 58.2168L1608.81 55.32L1609.17 54.6967C1609.51 54.1151 1609.3 53.379 1608.73 53.0474ZM1600.28 35.3419L1620.34 46.9284L1618.17 50.6927L1615.24 49.003L1615.61 48.3735C1615.94 47.7991 1615.74 47.0567 1615.17 46.7252C1614.59 46.3934 1613.85 46.5925 1613.52 47.1668L1613.4 47.3746L1613.16 47.7901L1611.07 46.5836L1611.43 45.9543C1611.76 45.3797 1611.56 44.6377 1610.99 44.3059C1610.41 43.9743 1609.67 44.173 1609.34 44.7476L1609.22 44.9554L1608.98 45.3709L1606.05 43.6808L1606.42 43.0513C1606.75 42.4769 1606.55 41.7348 1605.98 41.4032C1605.4 41.0716 1604.66 41.2702 1604.33 41.8446L1604.21 42.0528L1603.97 42.4684L1602.29 41.5016L1602.66 40.8721C1602.99 40.2977 1602.79 39.5556 1602.21 39.2239C1601.64 38.8923 1600.89 39.1094 1600.55 39.6838L1600.44 39.8916L1600.2 40.3071L1598.11 39.1004L1600.28 35.3419ZM1609.96 64.9074L1589.89 53.3207L1592.55 48.7191L1596.32 50.8925L1595.95 51.522L1595.83 51.7297C1595.56 52.1943 1595.72 52.7825 1596.19 53.0506C1596.22 53.0718 1596.26 53.0833 1596.3 53.0983C1596.33 53.1252 1596.36 53.1494 1596.39 53.1705C1596.97 53.5022 1597.71 53.3035 1598.04 52.7291L1598.41 52.0996L1601.33 53.7897L1600.97 54.4192L1600.85 54.6269C1600.58 55.0913 1600.74 55.6795 1601.2 55.9478C1601.24 55.969 1601.27 55.9807 1601.31 55.9954C1601.35 56.0226 1601.37 56.0466 1601.41 56.0677C1601.99 56.3992 1602.73 56.2007 1603.06 55.6263L1603.42 54.9968L1605.51 56.2035L1605.15 56.833L1605.03 57.041C1604.76 57.5054 1604.92 58.0935 1605.38 58.3617C1605.42 58.3828 1605.45 58.3946 1605.49 58.4094C1605.53 58.4365 1605.55 58.4605 1605.59 58.4818C1606.17 58.8134 1606.91 58.6147 1607.24 58.0404L1607.6 57.4109L1612.62 60.3074L1609.96 64.9083L1609.96 64.908L1609.96 64.9074Z" fill="black" fill-opacity="0.15"/>
</g>
<g clip-path="url(#clip41_994_13224)">
<path d="M1709.37 46.8641C1709.37 46.8569 1709.37 46.846 1709.38 46.8317C1709.42 46.6869 1709.45 46.5299 1709.44 46.3709C1709.43 46.33 1709.41 46.2923 1709.41 46.2517C1709.41 46.2109 1709.39 46.1658 1709.38 46.1277C1709.36 46.0715 1709.34 46.0224 1709.32 45.9697C1709.3 45.9428 1709.29 45.9163 1709.28 45.8898C1709.21 45.7752 1709.13 45.6708 1709.04 45.5804L1709.03 45.5765C1708.98 45.5294 1708.92 45.4964 1708.87 45.4635C1708.85 45.4552 1708.85 45.4511 1708.83 45.4429L1708.72 45.3772L1693.52 36.6013C1693.35 36.5066 1693.16 36.4506 1692.97 36.4396L1684.09 36.0385C1683.63 36.0151 1683.21 36.2481 1682.99 36.6401L1673.46 53.1502C1673.12 53.7277 1673.32 54.4692 1673.9 54.8023L1690.99 64.6678C1691.25 64.8203 1691.56 64.8683 1691.86 64.8015L1699.65 63.0022C1699.98 62.9262 1700.26 62.7183 1700.43 62.4336L1709.28 47.0983L1709.29 47.0913C1709.31 47.0118 1709.33 46.9393 1709.37 46.8641ZM1692.71 38.9192L1704.26 45.5841L1701.41 45.8151L1691.97 40.3641L1692.08 40.1789C1692.21 39.9509 1692.14 39.6514 1691.9 39.5156C1691.67 39.3797 1691.37 39.458 1691.24 39.6933L1691.13 39.8968L1688.81 38.5741C1688.81 38.5742 1692.5 38.9326 1692.71 38.9192ZM1677.27 53.4119C1677.27 53.1463 1677.05 52.9342 1676.78 52.9333L1676.36 52.9375L1684.59 38.686L1690.01 41.8424L1689.7 42.3697C1689.57 42.5977 1689.65 42.8972 1689.88 43.033C1690.12 43.1688 1690.41 43.0905 1690.54 42.8552L1690.84 42.335L1699.18 47.1965L1690.78 61.7545L1677.03 53.8184C1677.17 53.7383 1677.27 53.5853 1677.27 53.4119ZM1693.44 61.9504L1701.34 48.2694L1706.02 47.8758L1698.6 60.7235L1697.78 60.2277C1697.55 60.0962 1697.25 60.1772 1697.11 60.4125C1696.98 60.6335 1697.05 60.9212 1697.26 61.0587L1693.44 61.9504Z" fill="black" fill-opacity="0.15"/>
<path d="M1684.94 53.9344L1685.96 54.5268C1686.19 54.6584 1686.49 54.5843 1686.62 54.3566C1686.75 54.1283 1686.68 53.8296 1686.45 53.698L1685.42 53.1014C1685.19 52.9698 1684.89 53.0439 1684.75 53.2786C1684.63 53.4998 1684.71 53.8028 1684.94 53.9344Z" fill="black" fill-opacity="0.15"/>
<path d="M1688.69 45.099C1688.92 45.2306 1689.21 45.1565 1689.35 44.9213L1689.95 43.888C1690.08 43.66 1690 43.3605 1689.77 43.2247C1689.53 43.0889 1689.24 43.1672 1689.11 43.4024L1688.51 44.4357C1688.38 44.6637 1688.45 44.9632 1688.69 45.099Z" fill="black" fill-opacity="0.15"/>
<path d="M1696.74 59.6568L1695.71 59.0458C1695.49 58.9141 1695.18 58.9952 1695.05 59.2235C1694.92 59.4512 1694.99 59.7578 1695.22 59.8935L1696.27 60.4756C1696.49 60.6072 1696.79 60.5398 1696.92 60.312C1697.05 60.0843 1696.97 59.7885 1696.74 59.6568Z" fill="black" fill-opacity="0.15"/>
<path d="M1686.31 49.2176C1686.54 49.3493 1686.84 49.2749 1686.97 49.0402L1687.57 48.0069C1687.7 47.7789 1687.63 47.4794 1687.39 47.3436C1687.16 47.2078 1686.86 47.2861 1686.73 47.5213L1686.13 48.5546C1686 48.7826 1686.07 49.0818 1686.31 49.2176Z" fill="black" fill-opacity="0.15"/>
<path d="M1685.12 51.277C1685.35 51.4086 1685.65 51.3345 1685.78 51.0992L1686.38 50.0662C1686.51 49.8382 1686.44 49.5388 1686.2 49.4029C1685.97 49.2671 1685.68 49.3457 1685.54 49.5807L1684.94 50.6137C1684.81 50.8419 1684.89 51.1411 1685.12 51.277Z" fill="black" fill-opacity="0.15"/>
<path d="M1687.5 47.1583C1687.73 47.29 1688.03 47.2159 1688.16 46.9806L1688.76 45.9473C1688.89 45.7193 1688.82 45.4199 1688.58 45.284C1688.35 45.1482 1688.05 45.2265 1687.92 45.4618L1687.32 46.495C1687.19 46.7233 1687.26 47.0225 1687.5 47.1583Z" fill="black" fill-opacity="0.15"/>
<path d="M1691.11 57.509L1692.15 58.0986C1692.37 58.2304 1692.67 58.1631 1692.81 57.9278C1692.94 57.7001 1692.86 57.4075 1692.62 57.2718L1691.59 56.6685C1691.37 56.537 1691.06 56.618 1690.93 56.846C1690.81 57.0774 1690.88 57.3775 1691.11 57.509Z" fill="black" fill-opacity="0.15"/>
<path d="M1689.05 56.3125L1690.09 56.902C1690.32 57.0338 1690.62 56.9596 1690.75 56.7316C1690.88 56.5033 1690.8 56.2109 1690.57 56.0753L1689.54 55.4723C1689.31 55.3405 1689.01 55.4215 1688.88 55.6497C1688.74 55.8845 1688.83 56.1809 1689.05 56.3125Z" fill="black" fill-opacity="0.15"/>
<path d="M1687 55.1234L1688.03 55.72C1688.26 55.8516 1688.56 55.7775 1688.69 55.5498C1688.82 55.3215 1688.74 55.0294 1688.51 54.8935L1687.48 54.2899C1687.25 54.1583 1686.95 54.2324 1686.81 54.4676C1686.68 54.6954 1686.77 54.9918 1687 55.1234Z" fill="black" fill-opacity="0.15"/>
<path d="M1682.49 53.7772C1682.56 53.8184 1682.64 53.8382 1682.74 53.8431L1683.92 53.8336C1684.19 53.8348 1684.4 53.6149 1684.4 53.3496L1684.4 53.3389C1684.47 53.2953 1684.54 53.2407 1684.58 53.1622L1685.18 52.1289C1685.31 51.9009 1685.24 51.602 1685 51.4662C1684.77 51.3303 1684.48 51.4086 1684.34 51.6434L1683.74 52.6767C1683.71 52.7407 1683.69 52.8064 1683.68 52.8679L1682.71 52.8796C1682.45 52.8784 1682.24 53.0983 1682.23 53.3635C1682.25 53.5413 1682.35 53.6948 1682.49 53.7772Z" fill="black" fill-opacity="0.15"/>
<path d="M1677.73 53.8233C1677.8 53.8644 1677.89 53.8841 1677.98 53.8892L1679.16 53.879C1679.43 53.8807 1679.64 53.6608 1679.64 53.3957C1679.64 53.1301 1679.42 52.9181 1679.16 52.9171L1677.97 52.9273C1677.71 52.9254 1677.5 53.1455 1677.49 53.4108C1677.5 53.5842 1677.59 53.741 1677.73 53.8233Z" fill="black" fill-opacity="0.15"/>
<path d="M1680.11 53.8C1680.18 53.8411 1680.27 53.861 1680.36 53.8659L1681.54 53.8557C1681.81 53.8574 1682.02 53.6375 1682.02 53.3724C1682.02 53.1069 1681.8 52.8948 1681.54 52.8936L1680.35 52.9039C1680.09 52.9022 1679.87 53.1221 1679.87 53.3876C1679.88 53.5609 1679.97 53.7177 1680.11 53.8Z" fill="black" fill-opacity="0.15"/>
</g>
<defs>
<linearGradient id="paint0_linear_994_13224" x1="1797" y1="34.9999" x2="1.26778e-05" y2="35.0006" gradientUnits="userSpaceOnUse">
<stop stop-color="#2378C3"/>
<stop offset="1" stop-color="#2C608A"/>
</linearGradient>
<clipPath id="clip0_994_13224">
<rect width="28" height="28" fill="white" transform="translate(14) rotate(30)"/>
</clipPath>
<clipPath id="clip1_994_13224">
<rect width="28" height="28" fill="white" transform="translate(57 31) rotate(30)"/>
</clipPath>
<clipPath id="clip2_994_13224">
<rect width="28" height="28" fill="white" transform="translate(100.249) rotate(30)"/>
</clipPath>
<clipPath id="clip3_994_13224">
<rect width="28" height="28" fill="white" transform="translate(143.249 31) rotate(30)"/>
</clipPath>
<clipPath id="clip4_994_13224">
<rect width="28" height="28" fill="white" transform="translate(186.498) rotate(30)"/>
</clipPath>
<clipPath id="clip5_994_13224">
<rect width="28" height="28" fill="white" transform="translate(229.498 31) rotate(30)"/>
</clipPath>
<clipPath id="clip6_994_13224">
<rect width="28.0002" height="28" fill="white" transform="translate(272.746) rotate(30)"/>
</clipPath>
<clipPath id="clip7_994_13224">
<rect width="28" height="28" fill="white" transform="translate(301.746 45) rotate(-30)"/>
</clipPath>
<clipPath id="clip8_994_13224">
<rect width="28" height="28" fill="white" transform="translate(358.995) rotate(30)"/>
</clipPath>
<clipPath id="clip9_994_13224">
<rect width="28" height="28" fill="white" transform="translate(445.244) rotate(30)"/>
</clipPath>
<clipPath id="clip10_994_13224">
<rect width="28" height="28" fill="white" transform="translate(531.493) rotate(30)"/>
</clipPath>
<clipPath id="clip11_994_13224">
<rect width="28" height="28" fill="white" transform="translate(574.492 31) rotate(30)"/>
</clipPath>
<clipPath id="clip12_994_13224">
<rect width="28" height="28" fill="white" transform="translate(401.995 31) rotate(30)"/>
</clipPath>
<clipPath id="clip13_994_13224">
<rect width="28" height="28" fill="white" transform="translate(488.244 31) rotate(30)"/>
</clipPath>
<clipPath id="clip14_994_13224">
<rect width="28" height="28" fill="white" transform="translate(613) rotate(30)"/>
</clipPath>
<clipPath id="clip15_994_13224">
<rect width="28" height="28" fill="white" transform="translate(656 31) rotate(30)"/>
</clipPath>
<clipPath id="clip16_994_13224">
<rect width="28" height="28" fill="white" transform="translate(699.249) rotate(30)"/>
</clipPath>
<clipPath id="clip17_994_13224">
<rect width="28" height="28" fill="white" transform="translate(742.249 31) rotate(30)"/>
</clipPath>
<clipPath id="clip18_994_13224">
<rect width="28" height="28" fill="white" transform="translate(785.498) rotate(30)"/>
</clipPath>
<clipPath id="clip19_994_13224">
<rect width="28" height="28" fill="white" transform="translate(828.498 31) rotate(30)"/>
</clipPath>
<clipPath id="clip20_994_13224">
<rect width="28.0002" height="28" fill="white" transform="translate(871.746) rotate(30)"/>
</clipPath>
<clipPath id="clip21_994_13224">
<rect width="28" height="28" fill="white" transform="translate(900.746 45) rotate(-30)"/>
</clipPath>
<clipPath id="clip22_994_13224">
<rect width="28" height="28" fill="white" transform="translate(957.995) rotate(30)"/>
</clipPath>
<clipPath id="clip23_994_13224">
<rect width="28" height="28" fill="white" transform="translate(1044.24) rotate(30)"/>
</clipPath>
<clipPath id="clip24_994_13224">
<rect width="28" height="28" fill="white" transform="translate(1130.49) rotate(30)"/>
</clipPath>
<clipPath id="clip25_994_13224">
<rect width="28" height="28" fill="white" transform="translate(1173.49 31) rotate(30)"/>
</clipPath>
<clipPath id="clip26_994_13224">
<rect width="28" height="28" fill="white" transform="translate(1001 31) rotate(30)"/>
</clipPath>
<clipPath id="clip27_994_13224">
<rect width="28" height="28" fill="white" transform="translate(1087.24 31) rotate(30)"/>
</clipPath>
<clipPath id="clip28_994_13224">
<rect width="28" height="28" fill="white" transform="translate(1212) rotate(30)"/>
</clipPath>
<clipPath id="clip29_994_13224">
<rect width="28" height="28" fill="white" transform="translate(1255 31) rotate(30)"/>
</clipPath>
<clipPath id="clip30_994_13224">
<rect width="28" height="28" fill="white" transform="translate(1298.25) rotate(30)"/>
</clipPath>
<clipPath id="clip31_994_13224">
<rect width="28" height="28" fill="white" transform="translate(1341.25 31) rotate(30)"/>
</clipPath>
<clipPath id="clip32_994_13224">
<rect width="28" height="28" fill="white" transform="translate(1384.5) rotate(30)"/>
</clipPath>
<clipPath id="clip33_994_13224">
<rect width="28" height="28" fill="white" transform="translate(1427.5 31) rotate(30)"/>
</clipPath>
<clipPath id="clip34_994_13224">
<rect width="28.0002" height="28" fill="white" transform="translate(1470.75) rotate(30)"/>
</clipPath>
<clipPath id="clip35_994_13224">
<rect width="28" height="28" fill="white" transform="translate(1499.75 45) rotate(-30)"/>
</clipPath>
<clipPath id="clip36_994_13224">
<rect width="28" height="28" fill="white" transform="translate(1557) rotate(30)"/>
</clipPath>
<clipPath id="clip37_994_13224">
<rect width="28" height="28" fill="white" transform="translate(1643.24) rotate(30)"/>
</clipPath>
<clipPath id="clip38_994_13224">
<rect width="28" height="28" fill="white" transform="translate(1729.49) rotate(30)"/>
</clipPath>
<clipPath id="clip39_994_13224">
<rect width="28" height="28" fill="white" transform="translate(1772.49 31) rotate(30)"/>
</clipPath>
<clipPath id="clip40_994_13224">
<rect width="28" height="28" fill="white" transform="translate(1600 31) rotate(30)"/>
</clipPath>
<clipPath id="clip41_994_13224">
<rect width="28" height="28" fill="white" transform="translate(1686.24 31) rotate(30)"/>
</clipPath>
</defs>
</svg>
